<?xml version="1.0" encoding="utf-8" standalone="no"?>
<!DOCTYPE svg PUBLIC "-//W3C//DTD SVG 1.1//EN"
  "http://www.w3.org/Graphics/SVG/1.1/DTD/svg11.dtd">
<svg xmlns:xlink="http://www.w3.org/1999/xlink" width="460.8pt" height="345.6pt" viewBox="0 0 460.8 345.6" xmlns="http://www.w3.org/2000/svg" version="1.1">
 <metadata>
  <rdf:RDF xmlns:dc="http://purl.org/dc/elements/1.1/" xmlns:cc="http://creativecommons.org/ns#" xmlns:rdf="http://www.w3.org/1999/02/22-rdf-syntax-ns#">
   <cc:Work>
    <dc:type rdf:resource="http://purl.org/dc/dcmitype/StillImage"/>
    <dc:date>2024-04-20T15:44:38.560195</dc:date>
    <dc:format>image/svg+xml</dc:format>
    <dc:creator>
     <cc:Agent>
      <dc:title>Matplotlib v3.8.0, https://matplotlib.org/</dc:title>
     </cc:Agent>
    </dc:creator>
   </cc:Work>
  </rdf:RDF>
 </metadata>
 <defs>
  <style type="text/css">*{stroke-linejoin: round; stroke-linecap: butt}</style>
 </defs>
 <g id="figure_1">
  <g id="patch_1">
   <path d="M 0 345.6 
L 460.8 345.6 
L 460.8 0 
L 0 0 
z
" style="fill: #ffffff"/>
  </g>
  <g id="axes_1">
   <g id="patch_2">
    <path d="M 57.6 276.48 
L 414.72 276.48 
L 414.72 41.472 
L 57.6 41.472 
z
" style="fill: #ffffff"/>
   </g>
   <g id="matplotlib.axis_1">
    <g id="xtick_1">
     <g id="line2d_1">
      <defs>
       <path id="macbbc5afcb" d="M 0 0 
L 0 3.5 
" style="stroke: #000000; stroke-width: 0.8"/>
      </defs>
      <g>
       <use xlink:href="#macbbc5afcb" x="119.049713" y="276.48" style="stroke: #000000; stroke-width: 0.8"/>
      </g>
     </g>
     <g id="text_1">
      <!-- 2020 -->
      <g transform="translate(95.969523 302.78544) rotate(-30) scale(0.1 -0.1)">
       <defs>
        <path id="DejaVuSans-32" d="M 1228 531 
L 3431 531 
L 3431 0 
L 469 0 
L 469 531 
Q 828 903 1448 1529 
Q 2069 2156 2228 2338 
Q 2531 2678 2651 2914 
Q 2772 3150 2772 3378 
Q 2772 3750 2511 3984 
Q 2250 4219 1831 4219 
Q 1534 4219 1204 4116 
Q 875 4013 500 3803 
L 500 4441 
Q 881 4594 1212 4672 
Q 1544 4750 1819 4750 
Q 2544 4750 2975 4387 
Q 3406 4025 3406 3419 
Q 3406 3131 3298 2873 
Q 3191 2616 2906 2266 
Q 2828 2175 2409 1742 
Q 1991 1309 1228 531 
z
" transform="scale(0.015625)"/>
        <path id="DejaVuSans-30" d="M 2034 4250 
Q 1547 4250 1301 3770 
Q 1056 3291 1056 2328 
Q 1056 1369 1301 889 
Q 1547 409 2034 409 
Q 2525 409 2770 889 
Q 3016 1369 3016 2328 
Q 3016 3291 2770 3770 
Q 2525 4250 2034 4250 
z
M 2034 4750 
Q 2819 4750 3233 4129 
Q 3647 3509 3647 2328 
Q 3647 1150 3233 529 
Q 2819 -91 2034 -91 
Q 1250 -91 836 529 
Q 422 1150 422 2328 
Q 422 3509 836 4129 
Q 1250 4750 2034 4750 
z
" transform="scale(0.015625)"/>
       </defs>
       <use xlink:href="#DejaVuSans-32"/>
       <use xlink:href="#DejaVuSans-30" x="63.623047"/>
       <use xlink:href="#DejaVuSans-32" x="127.246094"/>
       <use xlink:href="#DejaVuSans-30" x="190.869141"/>
      </g>
     </g>
    </g>
    <g id="xtick_2">
     <g id="line2d_2">
      <g>
       <use xlink:href="#macbbc5afcb" x="184.194211" y="276.48" style="stroke: #000000; stroke-width: 0.8"/>
      </g>
     </g>
     <g id="text_2">
      <!-- 2021 -->
      <g transform="translate(161.11402 302.78544) rotate(-30) scale(0.1 -0.1)">
       <defs>
        <path id="DejaVuSans-31" d="M 794 531 
L 1825 531 
L 1825 4091 
L 703 3866 
L 703 4441 
L 1819 4666 
L 2450 4666 
L 2450 531 
L 3481 531 
L 3481 0 
L 794 0 
L 794 531 
z
" transform="scale(0.015625)"/>
       </defs>
       <use xlink:href="#DejaVuSans-32"/>
       <use xlink:href="#DejaVuSans-30" x="63.623047"/>
       <use xlink:href="#DejaVuSans-32" x="127.246094"/>
       <use xlink:href="#DejaVuSans-31" x="190.869141"/>
      </g>
     </g>
    </g>
    <g id="xtick_3">
     <g id="line2d_3">
      <g>
       <use xlink:href="#macbbc5afcb" x="249.160718" y="276.48" style="stroke: #000000; stroke-width: 0.8"/>
      </g>
     </g>
     <g id="text_3">
      <!-- 2022 -->
      <g transform="translate(226.080527 302.78544) rotate(-30) scale(0.1 -0.1)">
       <use xlink:href="#DejaVuSans-32"/>
       <use xlink:href="#DejaVuSans-30" x="63.623047"/>
       <use xlink:href="#DejaVuSans-32" x="127.246094"/>
       <use xlink:href="#DejaVuSans-32" x="190.869141"/>
      </g>
     </g>
    </g>
    <g id="xtick_4">
     <g id="line2d_4">
      <g>
       <use xlink:href="#macbbc5afcb" x="314.127225" y="276.48" style="stroke: #000000; stroke-width: 0.8"/>
      </g>
     </g>
     <g id="text_4">
      <!-- 2023 -->
      <g transform="translate(291.047035 302.78544) rotate(-30) scale(0.1 -0.1)">
       <defs>
        <path id="DejaVuSans-33" d="M 2597 2516 
Q 3050 2419 3304 2112 
Q 3559 1806 3559 1356 
Q 3559 666 3084 287 
Q 2609 -91 1734 -91 
Q 1441 -91 1130 -33 
Q 819 25 488 141 
L 488 750 
Q 750 597 1062 519 
Q 1375 441 1716 441 
Q 2309 441 2620 675 
Q 2931 909 2931 1356 
Q 2931 1769 2642 2001 
Q 2353 2234 1838 2234 
L 1294 2234 
L 1294 2753 
L 1863 2753 
Q 2328 2753 2575 2939 
Q 2822 3125 2822 3475 
Q 2822 3834 2567 4026 
Q 2313 4219 1838 4219 
Q 1578 4219 1281 4162 
Q 984 4106 628 3988 
L 628 4550 
Q 988 4650 1302 4700 
Q 1616 4750 1894 4750 
Q 2613 4750 3031 4423 
Q 3450 4097 3450 3541 
Q 3450 3153 3228 2886 
Q 3006 2619 2597 2516 
z
" transform="scale(0.015625)"/>
       </defs>
       <use xlink:href="#DejaVuSans-32"/>
       <use xlink:href="#DejaVuSans-30" x="63.623047"/>
       <use xlink:href="#DejaVuSans-32" x="127.246094"/>
       <use xlink:href="#DejaVuSans-33" x="190.869141"/>
      </g>
     </g>
    </g>
    <g id="xtick_5">
     <g id="line2d_5">
      <g>
       <use xlink:href="#macbbc5afcb" x="379.093732" y="276.48" style="stroke: #000000; stroke-width: 0.8"/>
      </g>
     </g>
     <g id="text_5">
      <!-- 2024 -->
      <g transform="translate(356.013542 302.78544) rotate(-30) scale(0.1 -0.1)">
       <defs>
        <path id="DejaVuSans-34" d="M 2419 4116 
L 825 1625 
L 2419 1625 
L 2419 4116 
z
M 2253 4666 
L 3047 4666 
L 3047 1625 
L 3713 1625 
L 3713 1100 
L 3047 1100 
L 3047 0 
L 2419 0 
L 2419 1100 
L 313 1100 
L 313 1709 
L 2253 4666 
z
" transform="scale(0.015625)"/>
       </defs>
       <use xlink:href="#DejaVuSans-32"/>
       <use xlink:href="#DejaVuSans-30" x="63.623047"/>
       <use xlink:href="#DejaVuSans-32" x="127.246094"/>
       <use xlink:href="#DejaVuSans-34" x="190.869141"/>
      </g>
     </g>
    </g>
    <g id="text_6">
     <!-- Date -->
     <g transform="translate(224.209219 316.18494) scale(0.1 -0.1)">
      <defs>
       <path id="DejaVuSans-44" d="M 1259 4147 
L 1259 519 
L 2022 519 
Q 2988 519 3436 956 
Q 3884 1394 3884 2338 
Q 3884 3275 3436 3711 
Q 2988 4147 2022 4147 
L 1259 4147 
z
M 628 4666 
L 1925 4666 
Q 3281 4666 3915 4102 
Q 4550 3538 4550 2338 
Q 4550 1131 3912 565 
Q 3275 0 1925 0 
L 628 0 
L 628 4666 
z
" transform="scale(0.015625)"/>
       <path id="DejaVuSans-61" d="M 2194 1759 
Q 1497 1759 1228 1600 
Q 959 1441 959 1056 
Q 959 750 1161 570 
Q 1363 391 1709 391 
Q 2188 391 2477 730 
Q 2766 1069 2766 1631 
L 2766 1759 
L 2194 1759 
z
M 3341 1997 
L 3341 0 
L 2766 0 
L 2766 531 
Q 2569 213 2275 61 
Q 1981 -91 1556 -91 
Q 1019 -91 701 211 
Q 384 513 384 1019 
Q 384 1609 779 1909 
Q 1175 2209 1959 2209 
L 2766 2209 
L 2766 2266 
Q 2766 2663 2505 2880 
Q 2244 3097 1772 3097 
Q 1472 3097 1187 3025 
Q 903 2953 641 2809 
L 641 3341 
Q 956 3463 1253 3523 
Q 1550 3584 1831 3584 
Q 2591 3584 2966 3190 
Q 3341 2797 3341 1997 
z
" transform="scale(0.015625)"/>
       <path id="DejaVuSans-74" d="M 1172 4494 
L 1172 3500 
L 2356 3500 
L 2356 3053 
L 1172 3053 
L 1172 1153 
Q 1172 725 1289 603 
Q 1406 481 1766 481 
L 2356 481 
L 2356 0 
L 1766 0 
Q 1100 0 847 248 
Q 594 497 594 1153 
L 594 3053 
L 172 3053 
L 172 3500 
L 594 3500 
L 594 4494 
L 1172 4494 
z
" transform="scale(0.015625)"/>
       <path id="DejaVuSans-65" d="M 3597 1894 
L 3597 1613 
L 953 1613 
Q 991 1019 1311 708 
Q 1631 397 2203 397 
Q 2534 397 2845 478 
Q 3156 559 3463 722 
L 3463 178 
Q 3153 47 2828 -22 
Q 2503 -91 2169 -91 
Q 1331 -91 842 396 
Q 353 884 353 1716 
Q 353 2575 817 3079 
Q 1281 3584 2069 3584 
Q 2775 3584 3186 3129 
Q 3597 2675 3597 1894 
z
M 3022 2063 
Q 3016 2534 2758 2815 
Q 2500 3097 2075 3097 
Q 1594 3097 1305 2825 
Q 1016 2553 972 2059 
L 3022 2063 
z
" transform="scale(0.015625)"/>
      </defs>
      <use xlink:href="#DejaVuSans-44"/>
      <use xlink:href="#DejaVuSans-61" x="77.001953"/>
      <use xlink:href="#DejaVuSans-74" x="138.28125"/>
      <use xlink:href="#DejaVuSans-65" x="177.490234"/>
     </g>
    </g>
   </g>
   <g id="matplotlib.axis_2">
    <g id="ytick_1">
     <g id="line2d_6">
      <defs>
       <path id="m04effab352" d="M 0 0 
L -3.5 0 
" style="stroke: #000000; stroke-width: 0.8"/>
      </defs>
      <g>
       <use xlink:href="#m04effab352" x="57.6" y="273.547775" style="stroke: #000000; stroke-width: 0.8"/>
      </g>
     </g>
     <g id="text_7">
      <!-- 0 -->
      <g transform="translate(44.2375 277.346994) scale(0.1 -0.1)">
       <use xlink:href="#DejaVuSans-30"/>
      </g>
     </g>
    </g>
    <g id="ytick_2">
     <g id="line2d_7">
      <g>
       <use xlink:href="#m04effab352" x="57.6" y="226.93958" style="stroke: #000000; stroke-width: 0.8"/>
      </g>
     </g>
     <g id="text_8">
      <!-- 200 -->
      <g transform="translate(31.5125 230.738798) scale(0.1 -0.1)">
       <use xlink:href="#DejaVuSans-32"/>
       <use xlink:href="#DejaVuSans-30" x="63.623047"/>
       <use xlink:href="#DejaVuSans-30" x="127.246094"/>
      </g>
     </g>
    </g>
    <g id="ytick_3">
     <g id="line2d_8">
      <g>
       <use xlink:href="#m04effab352" x="57.6" y="180.331384" style="stroke: #000000; stroke-width: 0.8"/>
      </g>
     </g>
     <g id="text_9">
      <!-- 400 -->
      <g transform="translate(31.5125 184.130603) scale(0.1 -0.1)">
       <use xlink:href="#DejaVuSans-34"/>
       <use xlink:href="#DejaVuSans-30" x="63.623047"/>
       <use xlink:href="#DejaVuSans-30" x="127.246094"/>
      </g>
     </g>
    </g>
    <g id="ytick_4">
     <g id="line2d_9">
      <g>
       <use xlink:href="#m04effab352" x="57.6" y="133.723189" style="stroke: #000000; stroke-width: 0.8"/>
      </g>
     </g>
     <g id="text_10">
      <!-- 600 -->
      <g transform="translate(31.5125 137.522408) scale(0.1 -0.1)">
       <defs>
        <path id="DejaVuSans-36" d="M 2113 2584 
Q 1688 2584 1439 2293 
Q 1191 2003 1191 1497 
Q 1191 994 1439 701 
Q 1688 409 2113 409 
Q 2538 409 2786 701 
Q 3034 994 3034 1497 
Q 3034 2003 2786 2293 
Q 2538 2584 2113 2584 
z
M 3366 4563 
L 3366 3988 
Q 3128 4100 2886 4159 
Q 2644 4219 2406 4219 
Q 1781 4219 1451 3797 
Q 1122 3375 1075 2522 
Q 1259 2794 1537 2939 
Q 1816 3084 2150 3084 
Q 2853 3084 3261 2657 
Q 3669 2231 3669 1497 
Q 3669 778 3244 343 
Q 2819 -91 2113 -91 
Q 1303 -91 875 529 
Q 447 1150 447 2328 
Q 447 3434 972 4092 
Q 1497 4750 2381 4750 
Q 2619 4750 2861 4703 
Q 3103 4656 3366 4563 
z
" transform="scale(0.015625)"/>
       </defs>
       <use xlink:href="#DejaVuSans-36"/>
       <use xlink:href="#DejaVuSans-30" x="63.623047"/>
       <use xlink:href="#DejaVuSans-30" x="127.246094"/>
      </g>
     </g>
    </g>
    <g id="ytick_5">
     <g id="line2d_10">
      <g>
       <use xlink:href="#m04effab352" x="57.6" y="87.114994" style="stroke: #000000; stroke-width: 0.8"/>
      </g>
     </g>
     <g id="text_11">
      <!-- 800 -->
      <g transform="translate(31.5125 90.914212) scale(0.1 -0.1)">
       <defs>
        <path id="DejaVuSans-38" d="M 2034 2216 
Q 1584 2216 1326 1975 
Q 1069 1734 1069 1313 
Q 1069 891 1326 650 
Q 1584 409 2034 409 
Q 2484 409 2743 651 
Q 3003 894 3003 1313 
Q 3003 1734 2745 1975 
Q 2488 2216 2034 2216 
z
M 1403 2484 
Q 997 2584 770 2862 
Q 544 3141 544 3541 
Q 544 4100 942 4425 
Q 1341 4750 2034 4750 
Q 2731 4750 3128 4425 
Q 3525 4100 3525 3541 
Q 3525 3141 3298 2862 
Q 3072 2584 2669 2484 
Q 3125 2378 3379 2068 
Q 3634 1759 3634 1313 
Q 3634 634 3220 271 
Q 2806 -91 2034 -91 
Q 1263 -91 848 271 
Q 434 634 434 1313 
Q 434 1759 690 2068 
Q 947 2378 1403 2484 
z
M 1172 3481 
Q 1172 3119 1398 2916 
Q 1625 2713 2034 2713 
Q 2441 2713 2670 2916 
Q 2900 3119 2900 3481 
Q 2900 3844 2670 4047 
Q 2441 4250 2034 4250 
Q 1625 4250 1398 4047 
Q 1172 3844 1172 3481 
z
" transform="scale(0.015625)"/>
       </defs>
       <use xlink:href="#DejaVuSans-38"/>
       <use xlink:href="#DejaVuSans-30" x="63.623047"/>
       <use xlink:href="#DejaVuSans-30" x="127.246094"/>
      </g>
     </g>
    </g>
   </g>
   <g id="line2d_11">
    <path d="M 73.832727 262.64204 
L 74.188708 262.485806 
L 74.366699 262.732308 
L 74.544689 263.242674 
L 75.434641 263.104956 
L 75.612632 262.947565 
L 75.790622 262.957981 
L 76.324593 263.140832 
L 76.502584 263.530836 
L 76.680574 263.483969 
L 77.036555 263.779077 
L 77.570526 264.379136 
L 77.748517 264.1714 
L 77.926507 264.313745 
L 78.104498 264.278449 
L 78.282488 264.490234 
L 78.816459 264.766825 
L 78.99445 264.575294 
L 79.528421 265.148731 
L 80.240383 265.254047 
L 80.774354 265.700493 
L 81.308325 265.797818 
L 81.486316 265.263696 
L 81.664306 265.363338 
L 82.020287 265.118871 
L 82.732249 264.814735 
L 82.910239 265.078318 
L 83.08823 264.958982 
L 83.26622 265.168691 
L 83.800191 265.146097 
L 83.978182 264.691341 
L 85.046124 264.704086 
L 85.224115 264.772444 
L 85.580096 264.09176 
L 86.292057 263.921446 
L 86.470048 264.14969 
L 86.648038 264.119568 
L 87.53799 264.440504 
L 87.715981 264.434709 
L 87.893971 264.275399 
L 88.071962 263.91507 
L 88.249952 263.838024 
L 88.961914 263.868726 
L 89.317895 263.689142 
L 89.495885 263.78994 
L 90.029856 263.623101 
L 90.385837 263.197888 
L 90.563828 263.503763 
L 90.741818 263.405861 
L 91.45378 263.383848 
L 91.809761 263.993857 
L 92.521722 264.812419 
L 92.877703 264.632831 
L 93.055694 264.379676 
L 93.233684 264.616031 
L 93.767656 264.774183 
L 93.945646 264.507701 
L 94.123636 264.854125 
L 94.301627 264.929438 
L 94.479617 264.304366 
L 95.013589 263.654382 
L 95.191579 263.822963 
L 95.369569 263.628316 
L 95.54756 263.613833 
L 95.72555 264.137526 
L 96.259522 263.963155 
L 96.437512 264.174602 
L 96.615502 264.198956 
L 96.793493 263.863785 
L 96.971483 263.834212 
L 97.683445 264.02789 
L 97.861435 263.761727 
L 98.039426 263.125017 
L 98.217416 263.188228 
L 98.751388 263.080948 
L 99.107368 262.858857 
L 99.285359 262.862334 
L 99.463349 262.997444 
L 100.531292 263.287384 
L 100.709282 263.533834 
L 101.243254 263.409161 
L 101.421244 263.543113 
L 101.599234 263.212579 
L 101.777225 263.26419 
L 101.955215 263.587762 
L 102.667177 263.457869 
L 102.845167 263.513539 
L 103.023158 263.033978 
L 103.73512 262.858857 
L 103.91311 263.270568 
L 104.447081 262.762593 
L 104.981053 262.73128 
L 105.159043 262.160679 
L 105.693014 262.501649 
L 106.226986 262.181555 
L 106.582967 262.234904 
L 106.760957 262.132265 
L 106.938947 261.686919 
L 107.472919 261.556443 
L 107.650909 261.780857 
L 107.8289 261.776219 
L 108.00689 261.891035 
L 108.18488 261.799992 
L 108.726268 261.34131 
L 109.43823 261.499036 
L 110.506172 261.382481 
L 110.684163 261.707212 
L 111.218134 261.238091 
L 111.396124 261.486859 
L 111.574115 261.301877 
L 111.930096 261.318693 
L 112.464067 260.720258 
L 112.642057 260.964386 
L 112.820048 260.883144 
L 113.176029 260.970189 
L 113.88799 261.49711 
L 114.065981 261.394976 
L 114.243971 261.434435 
L 114.421962 261.235392 
L 115.133923 261.130356 
L 115.311914 260.935371 
L 115.489904 260.544824 
L 116.201866 260.482151 
L 116.913828 259.656954 
L 118.159761 259.802031 
L 118.693732 260.06607 
L 119.227703 259.625619 
L 119.405694 259.848457 
L 119.939665 259.791007 
L 120.295646 259.598343 
L 121.185598 258.925188 
L 121.541579 259.297164 
L 121.719569 259.102179 
L 121.89756 259.081868 
L 122.609522 259.15963 
L 122.965502 258.874121 
L 123.143493 259.012233 
L 123.677464 259.608789 
L 123.855455 259.15789 
L 124.033445 259.298905 
L 124.211435 259.283235 
L 124.389426 259.827566 
L 124.923397 259.601245 
L 125.279378 258.995984 
L 125.457368 258.793458 
L 125.635359 258.947819 
L 126.525311 257.73208 
L 126.703301 257.834211 
L 126.881292 256.731046 
L 127.593254 256.337594 
L 127.771244 255.285498 
L 127.949234 255.633678 
L 128.127225 256.482676 
L 128.839187 258.340818 
L 129.017177 258.015844 
L 129.195167 258.880438 
L 129.373158 257.866038 
L 129.907129 257.49674 
L 130.08512 258.108751 
L 130.26311 257.027569 
L 130.619091 258.100036 
L 131.145646 259.296188 
L 131.323636 258.38805 
L 131.501627 259.236382 
L 131.679617 260.987636 
L 131.857608 259.563291 
L 132.391579 262.14372 
L 132.569569 260.931893 
L 132.74756 261.770938 
L 132.92555 261.181576 
L 133.103541 261.600807 
L 133.637512 261.197832 
L 133.815502 259.079025 
L 133.993493 259.285738 
L 134.171483 258.611018 
L 134.349474 258.872892 
L 134.883445 258.12617 
L 135.061435 258.241718 
L 135.239426 259.433804 
L 135.417416 258.713793 
L 135.595407 259.385027 
L 136.129378 257.963005 
L 136.307368 258.507079 
L 136.485359 258.0472 
L 136.663349 258.279461 
L 137.375311 257.878811 
L 137.553301 257.060088 
L 137.731292 257.240674 
L 137.909282 256.435885 
L 138.621244 256.880084 
L 138.799234 257.898548 
L 138.977225 256.93234 
L 139.155215 257.056602 
L 139.333206 256.732599 
L 139.867177 256.29769 
L 140.045167 256.629822 
L 140.223158 256.217555 
L 140.579139 257.128021 
L 141.469091 256.256462 
L 141.825072 255.402315 
L 142.359043 254.814701 
L 142.537033 255.425544 
L 142.715024 255.477802 
L 142.893014 254.895989 
L 143.071005 253.827004 
L 143.960957 252.713888 
L 144.138947 253.166216 
L 144.316938 252.583243 
L 145.0289 253.299769 
L 145.20689 253.746868 
L 145.38488 253.835711 
L 145.562871 252.933377 
L 146.630813 253.177248 
L 146.808804 252.820564 
L 147.342775 253.087784 
L 147.698756 251.782464 
L 147.876746 253.108123 
L 148.054737 252.791517 
L 148.588708 252.23093 
L 148.766699 252.475499 
L 148.944689 252.086282 
L 149.122679 252.128108 
L 149.30067 252.027609 
L 149.834641 251.410672 
L 150.012632 251.589016 
L 150.190622 252.087446 
L 150.368612 251.496064 
L 150.546603 252.274502 
L 151.080574 252.169938 
L 151.258565 251.478055 
L 151.614545 251.211998 
L 152.504498 250.609006 
L 152.860478 249.128243 
L 153.038469 249.197366 
L 153.57244 250.189579 
L 153.750431 249.434964 
L 154.106411 249.997876 
L 154.284402 249.842768 
L 154.818373 249.124175 
L 154.996364 249.547666 
L 155.174354 249.291481 
L 155.352344 250.009496 
L 156.064306 249.33156 
L 156.242297 249.81024 
L 156.598278 248.884253 
L 156.776268 248.882514 
L 157.844211 247.207719 
L 158.022201 247.523737 
L 158.556172 247.603904 
L 158.734163 248.335866 
L 158.912153 246.964314 
L 159.090144 246.957922 
L 159.268134 246.676757 
L 159.802105 244.880554 
L 160.336077 245.335997 
L 160.514067 244.075402 
L 161.404019 243.867432 
L 161.58201 244.203785 
L 161.76 242.996635 
L 162.293971 242.469739 
L 162.649952 240.201156 
L 162.827943 243.294898 
L 163.005933 244.208374 
L 163.717895 245.857512 
L 163.895885 243.993365 
L 164.251866 245.272932 
L 164.963828 243.351836 
L 165.141818 244.459403 
L 165.319809 244.577945 
L 165.497799 245.215405 
L 166.209761 244.172922 
L 166.387751 245.367655 
L 166.565742 244.846412 
L 166.743732 243.624373 
L 167.277703 243.249568 
L 167.811675 241.902584 
L 167.989665 243.186226 
L 168.879617 241.090223 
L 169.235598 241.558004 
L 169.769569 240.481242 
L 169.94756 240.429521 
L 170.481531 241.444688 
L 171.015502 242.173965 
L 171.193493 241.830534 
L 171.549474 242.491822 
L 171.727464 241.958959 
L 172.261435 243.002602 
L 172.439426 242.408723 
L 172.617416 244.197911 
L 172.795407 243.275131 
L 172.973397 244.414075 
L 173.514785 244.30541 
L 173.692775 243.285593 
L 174.048756 240.634648 
L 174.226746 239.700251 
L 174.760718 241.864824 
L 174.938708 243.865525 
L 175.116699 242.359324 
L 175.294689 242.269264 
L 175.472679 242.640584 
L 176.006651 242.133292 
L 176.184641 242.349453 
L 176.540622 242.307611 
L 176.718612 243.126956 
L 177.252584 243.005503 
L 177.430574 243.429124 
L 177.608565 242.785274 
L 177.964545 242.723679 
L 178.498517 242.397686 
L 178.676507 242.424416 
L 178.854498 242.065299 
L 179.032488 242.401263 
L 179.210478 242.024026 
L 179.74445 241.911264 
L 180.100431 243.483007 
L 180.278421 243.386506 
L 180.456411 243.291186 
L 181.168373 242.48381 
L 181.346364 242.758167 
L 181.524354 242.528565 
L 181.702344 242.689574 
L 182.236316 242.549495 
L 182.414306 242.675051 
L 182.592297 243.300481 
L 183.660239 243.453941 
L 183.83823 242.983115 
L 184.01622 243.194116 
L 184.728182 243.058099 
L 184.906172 242.380927 
L 185.084163 244.218306 
L 185.262153 242.522175 
L 185.440144 242.678529 
L 185.974115 241.876967 
L 186.152105 242.19492 
L 186.330096 242.085646 
L 186.686077 243.648663 
L 187.398038 243.263283 
L 187.754019 241.305 
L 187.93201 241.665382 
L 188.465981 241.803142 
L 188.643971 242.310007 
L 188.821962 243.513229 
L 188.999952 243.203412 
L 189.177943 243.345819 
L 189.711914 242.770955 
L 189.889904 242.027511 
L 190.067895 242.088544 
L 190.245885 241.777579 
L 190.423876 241.947883 
L 190.957847 239.97681 
L 191.135837 240.384863 
L 191.491818 238.088856 
L 191.669809 238.761971 
L 192.38177 237.904016 
L 192.559761 238.890433 
L 192.737751 239.069455 
L 192.915742 238.842773 
L 193.627703 240.666765 
L 193.805694 239.836721 
L 193.983684 242.607041 
L 194.161675 241.660738 
L 194.695646 241.364875 
L 195.229617 244.786199 
L 195.407608 244.574039 
L 195.941579 246.592768 
L 196.119569 244.427392 
L 196.29756 244.548336 
L 196.47555 243.326674 
L 196.653541 243.646483 
L 197.536077 242.517858 
L 197.714067 243.956988 
L 198.426029 242.878379 
L 198.604019 243.147001 
L 198.78201 244.141893 
L 198.96 244.392503 
L 199.13799 243.685445 
L 199.671962 243.431926 
L 199.849952 243.609843 
L 200.205933 241.423541 
L 200.917895 241.014769 
L 201.095885 241.307827 
L 201.451866 240.2484 
L 201.629856 240.055349 
L 202.163828 238.173729 
L 202.341818 237.079404 
L 202.519809 238.015569 
L 202.697799 236.014747 
L 203.409761 237.818457 
L 203.587751 238.261532 
L 203.765742 237.821362 
L 203.943732 239.00813 
L 204.121722 238.042896 
L 204.655694 237.548068 
L 205.011675 238.016152 
L 205.189665 237.904507 
L 205.367656 238.637742 
L 205.901627 239.039536 
L 206.079617 240.168741 
L 206.435598 239.769272 
L 206.613589 239.096516 
L 207.14756 240.367595 
L 207.32555 240.273395 
L 207.503541 241.547393 
L 207.681531 241.76428 
L 207.859522 240.420514 
L 208.393493 240.600768 
L 208.571483 240.949056 
L 208.749474 240.832767 
L 209.105455 238.679022 
L 209.639426 237.236406 
L 209.995407 237.031723 
L 210.173397 237.524812 
L 210.351388 235.765299 
L 211.063349 235.718777 
L 211.597321 232.663179 
L 212.131292 232.5684 
L 212.487273 233.165617 
L 212.665263 233.01033 
L 212.843254 232.079186 
L 213.377225 231.629031 
L 213.555215 232.164678 
L 213.733206 232.114084 
L 213.911196 230.143626 
L 214.089187 230.186671 
L 214.623158 230.6787 
L 214.979139 229.213073 
L 215.157129 228.868181 
L 215.33512 229.274139 
L 215.869091 227.054749 
L 216.047081 226.957629 
L 216.225072 227.014044 
L 216.581053 225.886905 
L 217.293014 225.394876 
L 217.648995 227.2461 
L 218.360957 225.827582 
L 218.716938 227.388589 
L 219.072919 231.298103 
L 219.60689 229.858647 
L 219.78488 230.248896 
L 219.962871 228.39243 
L 220.140861 227.964382 
L 220.318852 228.048131 
L 221.030813 228.862367 
L 221.386794 227.806183 
L 221.564785 228.185379 
L 222.276746 227.450249 
L 222.632727 225.537948 
L 222.810718 226.168396 
L 223.344689 226.333572 
L 223.70067 227.720101 
L 224.056651 226.582501 
L 224.590622 227.136176 
L 224.946603 229.253205 
L 225.302584 225.121514 
L 225.836555 222.464774 
L 226.014545 222.848629 
L 226.192536 221.871543 
L 226.370526 222.208872 
L 226.548517 220.887484 
L 227.082488 220.766511 
L 227.260478 221.462224 
L 227.438469 221.331924 
L 227.616459 221.436628 
L 227.79445 220.396549 
L 228.506411 220.817695 
L 228.862392 221.946192 
L 229.040383 221.245828 
L 229.574354 222.004367 
L 229.930335 221.564595 
L 230.108325 221.794955 
L 230.286316 222.590725 
L 230.820287 224.421922 
L 230.998278 224.112457 
L 231.354258 221.236519 
L 231.532249 222.169575 
L 232.06622 223.149154 
L 232.244211 225.385218 
L 232.422201 225.808693 
L 232.600191 225.345655 
L 232.778182 225.285165 
L 233.312153 227.635235 
L 233.490144 225.962266 
L 233.846124 224.510336 
L 234.024115 225.078079 
L 234.736077 225.45037 
L 234.914067 224.826782 
L 235.092057 222.949048 
L 235.98201 221.683271 
L 236.16 222.118381 
L 236.33799 220.747889 
L 236.515981 220.66878 
L 237.049952 219.644991 
L 237.227943 216.036113 
L 237.405933 216.655043 
L 237.761914 214.058323 
L 238.295885 213.453357 
L 238.473876 212.117781 
L 238.651866 211.65938 
L 238.829856 204.20662 
L 239.007847 204.320644 
L 239.549234 201.872832 
L 239.727225 202.214876 
L 239.905215 205.002393 
L 240.083206 202.836146 
L 240.261196 202.836146 
L 240.795167 203.685414 
L 240.973158 203.271242 
L 241.151148 205.463113 
L 241.507129 196.798075 
L 242.219091 199.680997 
L 242.397081 197.521719 
L 242.753062 200.246403 
L 243.287033 195.888292 
L 243.465024 197.517061 
L 243.643014 200.395673 
L 243.821005 198.787649 
L 243.998995 202.122365 
L 244.532967 203.648945 
L 244.710957 198.087203 
L 244.888947 199.485776 
L 245.066938 202.59477 
L 245.244928 203.274278 
L 245.7789 208.014573 
L 245.95689 207.605001 
L 246.13488 202.66692 
L 246.312871 207.488637 
L 246.490861 208.85232 
L 247.024833 209.043131 
L 247.202823 205.887619 
L 248.270766 201.535944 
L 248.626746 203.732715 
L 248.982727 205.105707 
L 249.516699 203.453483 
L 249.694689 205.3873 
L 249.872679 209.310756 
L 250.05067 207.975024 
L 250.22866 210.141527 
L 250.762632 209.785486 
L 251.118612 208.391565 
L 251.296603 211.705336 
L 251.474593 210.851289 
L 252.186555 213.269139 
L 252.720526 219.154352 
L 253.254498 219.159006 
L 253.432488 221.597797 
L 253.610478 220.555257 
L 253.788469 222.482088 
L 253.966459 220.397022 
L 254.500431 216.566628 
L 254.678421 216.212906 
L 254.856411 214.807349 
L 255.034402 217.818605 
L 255.212392 216.955248 
L 255.746364 216.003473 
L 255.924354 215.119179 
L 256.102344 211.402813 
L 256.280335 213.452987 
L 256.458325 217.816272 
L 256.992297 217.07626 
L 257.170287 211.891496 
L 257.348278 211.854273 
L 257.704258 218.530689 
L 258.41622 219.117125 
L 258.594211 221.451197 
L 258.772201 218.284018 
L 258.950191 217.332236 
L 259.484163 216.801664 
L 259.662153 218.914665 
L 259.840144 217.176032 
L 260.196124 220.164525 
L 260.730096 223.85126 
L 260.908086 223.474208 
L 261.086077 219.982978 
L 261.968612 223.902466 
L 262.324593 216.533643 
L 262.502584 215.905227 
L 262.680574 211.978758 
L 263.214545 211.324732 
L 263.392536 211.8135 
L 263.570526 213.884968 
L 263.748517 208.029003 
L 263.926507 209.094983 
L 264.460478 207.86841 
L 264.638469 206.851288 
L 264.99445 210.039955 
L 265.17244 211.37593 
L 265.706411 209.867721 
L 266.062392 216.740787 
L 266.240383 217.203963 
L 266.418373 219.73859 
L 267.130335 223.497492 
L 267.308325 221.870576 
L 267.486316 224.070049 
L 268.198278 222.84812 
L 268.376268 221.882211 
L 268.554258 223.548687 
L 268.910239 228.126863 
L 269.444211 227.226123 
L 269.622201 229.818938 
L 269.800191 230.687096 
L 269.978182 227.505419 
L 270.156172 230.379864 
L 270.690144 228.084964 
L 270.868134 227.924364 
L 271.046124 226.220647 
L 271.224115 229.6886 
L 271.402105 230.081949 
L 271.936077 234.096867 
L 272.114067 232.595638 
L 272.470048 235.900666 
L 272.648038 232.337282 
L 273.18201 233.366032 
L 273.36 231.241034 
L 273.53799 234.124788 
L 273.715981 233.691883 
L 273.893971 234.692704 
L 274.427943 234.217893 
L 274.605933 235.949545 
L 275.139904 229.765415 
L 275.851866 230.088933 
L 276.029856 230.908207 
L 276.207847 227.947645 
L 276.385837 229.977213 
L 276.919809 229.82359 
L 277.097799 229.497753 
L 277.275789 230.135615 
L 277.45378 231.532403 
L 277.63177 234.032654 
L 278.165742 237.12188 
L 278.343732 236.681891 
L 278.521722 235.073256 
L 278.699713 237.228967 
L 278.877703 236.579456 
L 279.589665 234.982466 
L 279.945646 235.776312 
L 280.123636 233.678804 
L 280.657608 234.277088 
L 281.013589 237.366321 
L 281.191579 238.257933 
L 281.369569 239.738527 
L 282.259522 238.32545 
L 282.437512 236.630679 
L 282.615502 236.677237 
L 283.149474 238.27423 
L 283.327464 238.437184 
L 283.505455 238.246298 
L 283.683445 237.762078 
L 283.861435 236.854162 
L 284.395407 236.064978 
L 284.751388 232.093442 
L 284.929378 231.527744 
L 285.107368 233.229495 
L 285.64134 233.916251 
L 285.81933 235.059295 
L 285.997321 232.133023 
L 286.353301 231.264681 
L 287.065263 230.41963 
L 287.421244 228.815645 
L 287.599234 229.341769 
L 288.133206 232.126039 
L 288.311196 233.771912 
L 288.489187 231.418336 
L 288.667177 231.77917 
L 288.845167 229.993609 
L 289.379139 229.24167 
L 289.557129 229.597856 
L 289.73512 230.86427 
L 289.91311 229.844619 
L 290.0911 231.995665 
L 290.625072 233.892977 
L 290.803062 233.550762 
L 290.981053 233.455311 
L 291.159043 231.846675 
L 291.337033 235.694831 
L 291.871005 236.763372 
L 292.226986 238.409256 
L 292.404976 241.102725 
L 292.582967 241.777839 
L 293.294928 242.201541 
L 293.650909 240.969666 
L 293.8289 240.045183 
L 294.362871 239.770399 
L 294.540861 242.969994 
L 294.718852 242.976978 
L 294.896842 243.440386 
L 295.074833 242.813974 
L 295.608804 242.385492 
L 295.786794 242.865201 
L 295.964785 242.667264 
L 296.142775 244.297335 
L 296.320766 244.402124 
L 296.854737 245.072784 
L 297.032727 244.64198 
L 297.210718 243.88982 
L 297.388708 245.091413 
L 297.566699 245.280037 
L 298.10067 244.411441 
L 298.27866 242.886166 
L 298.456651 242.788357 
L 298.634641 242.972316 
L 298.812632 245.42674 
L 299.524593 246.56779 
L 299.702584 246.768057 
L 299.880574 245.696868 
L 300.058565 247.403784 
L 300.770526 245.680565 
L 301.126507 245.151958 
L 301.304498 244.518557 
L 301.838469 244.208847 
L 302.016459 242.667264 
L 302.19445 243.517225 
L 302.37244 242.865201 
L 302.550431 241.332939 
L 303.084402 242.117703 
L 303.262392 242.010581 
L 303.440383 242.765069 
L 303.618373 242.294678 
L 303.796364 240.583105 
L 304.337751 240.245449 
L 304.515742 239.544516 
L 304.693732 241.468004 
L 304.871722 236.871205 
L 305.049713 235.527561 
L 305.583684 235.602082 
L 305.761675 234.738142 
L 305.939665 236.498616 
L 306.295646 237.665278 
L 306.829617 237.879519 
L 307.185598 235.080457 
L 308.07555 236.691891 
L 308.253541 237.129685 
L 308.431531 234.129592 
L 308.609522 233.635785 
L 308.787512 234.239068 
L 309.321483 234.858649 
L 309.499474 236.309785 
L 309.677464 235.99999 
L 309.855455 233.556591 
L 310.033445 233.947909 
L 310.567416 232.704079 
L 310.745407 231.453262 
L 310.923397 232.380305 
L 311.279378 234.949495 
L 311.99134 236.081516 
L 312.16933 235.112545 
L 312.347321 237.81915 
L 312.525311 238.128942 
L 313.237273 240.656194 
L 313.415263 240.854188 
L 313.593254 239.533489 
L 313.771244 239.507869 
L 314.483206 240.204325 
L 314.661196 239.193415 
L 314.839187 240.320781 
L 315.017177 238.937196 
L 316.08512 235.089243 
L 316.26311 234.185491 
L 316.975072 232.31509 
L 317.153062 233.0721 
L 317.331053 234.497616 
L 317.509043 231.995985 
L 318.043014 228.842155 
L 318.398995 228.53935 
L 318.754976 226.112255 
L 319.288947 228.914361 
L 319.466938 228.040892 
L 319.822919 222.98172 
L 320.000909 224.400241 
L 320.53488 224.425862 
L 320.712871 221.900936 
L 320.890861 221.8264 
L 321.068852 221.518941 
L 321.246842 224.015917 
L 321.780813 222.797704 
L 321.958804 220.04218 
L 322.136794 220.524342 
L 322.492775 223.729409 
L 323.204737 225.436765 
L 323.382727 225.20617 
L 323.560718 218.427998 
L 323.738708 219.308469 
L 324.272679 218.807674 
L 324.45067 219.471515 
L 324.62866 220.678075 
L 324.984641 217.901589 
L 325.518612 218.684223 
L 325.696603 219.294594 
L 325.874593 217.214201 
L 326.230574 220.047077 
L 326.757129 220.044744 
L 326.93512 217.489102 
L 327.11311 217.104714 
L 327.2911 214.045863 
L 327.469091 213.6172 
L 328.003062 213.209513 
L 328.359043 211.886262 
L 328.537033 210.201921 
L 328.715024 211.161742 
L 329.426986 212.021387 
L 329.960957 208.836745 
L 330.494928 208.398769 
L 330.850909 210.924114 
L 331.740861 209.298005 
L 331.918852 210.253176 
L 332.096842 211.823358 
L 332.274833 211.897911 
L 332.452823 211.210665 
L 332.986794 210.642229 
L 333.342775 208.477974 
L 333.520766 210.404608 
L 333.698756 210.369653 
L 334.232727 210.549043 
L 334.410718 212.415099 
L 334.766699 210.120376 
L 334.944689 208.901968 
L 335.47866 206.197226 
L 335.834641 208.778499 
L 336.012632 209.337618 
L 336.190622 206.733054 
L 336.724593 205.635781 
L 336.902584 206.986989 
L 337.080574 206.255472 
L 337.436555 207.525135 
L 338.148517 205.491347 
L 338.504498 199.74873 
L 338.682488 200.713203 
L 339.216459 200.918216 
L 339.39445 202.055087 
L 339.57244 202.404535 
L 339.750431 185.067198 
L 339.928421 182.816733 
L 340.640383 180.102681 
L 340.818373 185.407322 
L 340.996364 180.897089 
L 341.174354 181.929139 
L 341.708325 182.292561 
L 341.886316 183.496988 
L 342.064306 186.234643 
L 342.242297 183.82318 
L 342.954258 181.558519 
L 343.310239 173.368915 
L 343.48823 174.170399 
L 343.66622 174.079524 
L 344.378182 171.479355 
L 344.556172 173.257074 
L 344.734163 173.303664 
L 344.912153 175.204874 
L 345.446124 178.879124 
L 345.624115 175.980727 
L 345.980096 178.436447 
L 346.158086 174.988197 
L 346.692057 174.729575 
L 347.048038 174.953235 
L 347.226029 175.45184 
L 347.404019 174.519875 
L 347.93799 175.272444 
L 348.115981 174.748222 
L 348.471962 166.425798 
L 348.649952 167.609387 
L 349.183923 165.298122 
L 349.361914 162.891331 
L 349.539904 163.862909 
L 349.895885 170.312073 
L 350.429856 169.606116 
L 350.607847 167.120106 
L 350.785837 167.649 
L 350.963828 166.605194 
L 351.141818 164.624779 
L 351.675789 164.673702 
L 351.85378 165.190946 
L 352.03177 170.405267 
L 352.921722 167.730537 
L 353.099713 169.484958 
L 353.277703 174.401057 
L 353.455694 174.787814 
L 353.633684 178.359568 
L 354.167656 171.607496 
L 354.345646 171.17181 
L 354.523636 172.22959 
L 354.879617 172.665276 
L 355.413589 164.119191 
L 355.591579 167.145744 
L 355.769569 163.772034 
L 355.94756 163.662532 
L 356.12555 166.330271 
L 356.659522 164.426736 
L 356.837512 159.885758 
L 357.015502 158.767399 
L 357.193493 158.555388 
L 357.371483 160.526478 
L 358.083445 160.435603 
L 358.439426 165.801826 
L 358.617416 167.360657 
L 359.151388 168.278718 
L 359.329378 168.996389 
L 359.507368 167.563373 
L 359.685359 167.339691 
L 359.863349 171.256583 
L 360.397321 171.102797 
L 360.575311 172.142015 
L 360.931292 177.974241 
L 361.109282 176.592502 
L 361.643254 175.166477 
L 361.821244 175.891139 
L 362.355215 172.190952 
L 362.889187 169.20143 
L 363.067177 172.149006 
L 363.423158 169.420461 
L 363.601148 166.917937 
L 364.13512 168.057355 
L 364.31311 166.834053 
L 364.4911 164.485316 
L 364.669091 164.161436 
L 364.847081 167.619308 
L 365.381053 166.142014 
L 365.737033 175.22707 
L 365.915024 175.448419 
L 366.093014 177.112107 
L 366.804976 171.808811 
L 367.160957 179.584342 
L 367.338947 179.178902 
L 367.872919 177.638718 
L 368.050909 178.526483 
L 368.58488 168.681832 
L 369.304258 166.468234 
L 369.660239 164.149793 
L 369.83823 160.922601 
L 370.372201 160.258525 
L 370.550191 157.844551 
L 370.728182 159.634056 
L 370.906172 158.254642 
L 371.084163 158.678721 
L 371.618134 156.089988 
L 371.796124 157.173485 
L 371.974115 160.034837 
L 372.330096 162.225122 
L 372.864067 161.139299 
L 373.042057 162.120279 
L 373.220048 161.376977 
L 373.398038 164.5692 
L 373.576029 164.580857 
L 374.11 167.50512 
L 374.28799 165.035005 
L 374.465981 167.512111 
L 374.821962 162.844521 
L 375.355933 164.89286 
L 375.711914 161.488285 
L 375.889904 160.877747 
L 376.067895 159.619384 
L 376.601866 156.853324 
L 376.779856 157.955546 
L 376.957847 161.434697 
L 377.135837 159.386357 
L 377.313828 159.75921 
L 378.38177 158.146634 
L 378.559761 158.146634 
L 379.271722 161.301862 
L 379.449713 162.697711 
L 379.627703 161.698013 
L 380.695646 146.89595 
L 380.873636 145.796046 
L 381.051627 146.057036 
L 381.763589 142.160769 
L 381.941579 142.92744 
L 382.119569 140.471307 
L 382.29756 134.915874 
L 382.831531 134.53603 
L 383.009522 134.025698 
L 383.187512 130.555886 
L 383.365502 129.961662 
L 383.543493 131.327208 
L 384.255455 127.26549 
L 384.433445 130.171376 
L 384.611435 126.675918 
L 384.789426 119.375096 
L 385.323397 111.983385 
L 385.501388 114.567687 
L 385.679378 110.19605 
L 385.857368 111.263324 
L 386.035359 105.456203 
L 386.56933 105.188229 
L 386.747321 105.467852 
L 386.925311 101.338572 
L 387.103301 104.232795 
L 387.281292 104.337666 
L 387.993254 111.703747 
L 388.171244 116.317756 
L 388.349234 90.530643 
L 388.527225 89.880492 
L 389.061196 89.239658 
L 389.239187 90.150799 
L 389.417177 92.569652 
L 389.595167 89.193047 
L 389.773158 81.812984 
L 390.48512 73.216426 
L 390.8411 57.591032 
L 391.019091 69.571662 
L 391.545646 73.65921 
L 391.723636 59.352821 
L 391.901627 61.741491 
L 392.079617 68.602218 
L 392.257608 68.851573 
L 392.791579 67.411382 
L 393.32555 60.466764 
L 393.503541 53.815765 
L 394.037512 52.154182 
L 394.393493 63.228294 
L 394.571483 62.981271 
L 395.283445 62.964956 
L 395.639426 66.225197 
L 395.817416 73.353927 
L 395.995407 68.453068 
L 396.529378 70.492177 
L 396.707368 74.637985 
L 396.885359 70.711236 
L 397.063349 62.37537 
L 397.24134 68.038263 
L 397.775311 73.130202 
L 397.953301 69.835 
L 398.131292 77.711796 
L 398.309282 76.229645 
L 398.487273 95.970551 
L 398.487273 95.970551 
" clip-path="url(#p39dfe76d96)" style="fill: none; stroke: #1f77b4; stroke-width: 1.5; stroke-linecap: square"/>
   </g>
   <g id="patch_3">
    <path d="M 57.6 276.48 
L 57.6 41.472 
" style="fill: none; stroke: #000000; stroke-width: 0.8; stroke-linejoin: miter; stroke-linecap: square"/>
   </g>
   <g id="patch_4">
    <path d="M 414.72 276.48 
L 414.72 41.472 
" style="fill: none; stroke: #000000; stroke-width: 0.8; stroke-linejoin: miter; stroke-linecap: square"/>
   </g>
   <g id="patch_5">
    <path d="M 57.6 276.48 
L 414.72 276.48 
" style="fill: none; stroke: #000000; stroke-width: 0.8; stroke-linejoin: miter; stroke-linecap: square"/>
   </g>
   <g id="patch_6">
    <path d="M 57.6 41.472 
L 414.72 41.472 
" style="fill: none; stroke: #000000; stroke-width: 0.8; stroke-linejoin: miter; stroke-linecap: square"/>
   </g>
   <g id="text_12">
    <!-- NVDA Stock Prices -->
    <g transform="translate(180.765 35.472) scale(0.12 -0.12)">
     <defs>
      <path id="DejaVuSans-4e" d="M 628 4666 
L 1478 4666 
L 3547 763 
L 3547 4666 
L 4159 4666 
L 4159 0 
L 3309 0 
L 1241 3903 
L 1241 0 
L 628 0 
L 628 4666 
z
" transform="scale(0.015625)"/>
      <path id="DejaVuSans-56" d="M 1831 0 
L 50 4666 
L 709 4666 
L 2188 738 
L 3669 4666 
L 4325 4666 
L 2547 0 
L 1831 0 
z
" transform="scale(0.015625)"/>
      <path id="DejaVuSans-41" d="M 2188 4044 
L 1331 1722 
L 3047 1722 
L 2188 4044 
z
M 1831 4666 
L 2547 4666 
L 4325 0 
L 3669 0 
L 3244 1197 
L 1141 1197 
L 716 0 
L 50 0 
L 1831 4666 
z
" transform="scale(0.015625)"/>
      <path id="DejaVuSans-20" transform="scale(0.015625)"/>
      <path id="DejaVuSans-53" d="M 3425 4513 
L 3425 3897 
Q 3066 4069 2747 4153 
Q 2428 4238 2131 4238 
Q 1616 4238 1336 4038 
Q 1056 3838 1056 3469 
Q 1056 3159 1242 3001 
Q 1428 2844 1947 2747 
L 2328 2669 
Q 3034 2534 3370 2195 
Q 3706 1856 3706 1288 
Q 3706 609 3251 259 
Q 2797 -91 1919 -91 
Q 1588 -91 1214 -16 
Q 841 59 441 206 
L 441 856 
Q 825 641 1194 531 
Q 1563 422 1919 422 
Q 2459 422 2753 634 
Q 3047 847 3047 1241 
Q 3047 1584 2836 1778 
Q 2625 1972 2144 2069 
L 1759 2144 
Q 1053 2284 737 2584 
Q 422 2884 422 3419 
Q 422 4038 858 4394 
Q 1294 4750 2059 4750 
Q 2388 4750 2728 4690 
Q 3069 4631 3425 4513 
z
" transform="scale(0.015625)"/>
      <path id="DejaVuSans-6f" d="M 1959 3097 
Q 1497 3097 1228 2736 
Q 959 2375 959 1747 
Q 959 1119 1226 758 
Q 1494 397 1959 397 
Q 2419 397 2687 759 
Q 2956 1122 2956 1747 
Q 2956 2369 2687 2733 
Q 2419 3097 1959 3097 
z
M 1959 3584 
Q 2709 3584 3137 3096 
Q 3566 2609 3566 1747 
Q 3566 888 3137 398 
Q 2709 -91 1959 -91 
Q 1206 -91 779 398 
Q 353 888 353 1747 
Q 353 2609 779 3096 
Q 1206 3584 1959 3584 
z
" transform="scale(0.015625)"/>
      <path id="DejaVuSans-63" d="M 3122 3366 
L 3122 2828 
Q 2878 2963 2633 3030 
Q 2388 3097 2138 3097 
Q 1578 3097 1268 2742 
Q 959 2388 959 1747 
Q 959 1106 1268 751 
Q 1578 397 2138 397 
Q 2388 397 2633 464 
Q 2878 531 3122 666 
L 3122 134 
Q 2881 22 2623 -34 
Q 2366 -91 2075 -91 
Q 1284 -91 818 406 
Q 353 903 353 1747 
Q 353 2603 823 3093 
Q 1294 3584 2113 3584 
Q 2378 3584 2631 3529 
Q 2884 3475 3122 3366 
z
" transform="scale(0.015625)"/>
      <path id="DejaVuSans-6b" d="M 581 4863 
L 1159 4863 
L 1159 1991 
L 2875 3500 
L 3609 3500 
L 1753 1863 
L 3688 0 
L 2938 0 
L 1159 1709 
L 1159 0 
L 581 0 
L 581 4863 
z
" transform="scale(0.015625)"/>
      <path id="DejaVuSans-50" d="M 1259 4147 
L 1259 2394 
L 2053 2394 
Q 2494 2394 2734 2622 
Q 2975 2850 2975 3272 
Q 2975 3691 2734 3919 
Q 2494 4147 2053 4147 
L 1259 4147 
z
M 628 4666 
L 2053 4666 
Q 2838 4666 3239 4311 
Q 3641 3956 3641 3272 
Q 3641 2581 3239 2228 
Q 2838 1875 2053 1875 
L 1259 1875 
L 1259 0 
L 628 0 
L 628 4666 
z
" transform="scale(0.015625)"/>
      <path id="DejaVuSans-72" d="M 2631 2963 
Q 2534 3019 2420 3045 
Q 2306 3072 2169 3072 
Q 1681 3072 1420 2755 
Q 1159 2438 1159 1844 
L 1159 0 
L 581 0 
L 581 3500 
L 1159 3500 
L 1159 2956 
Q 1341 3275 1631 3429 
Q 1922 3584 2338 3584 
Q 2397 3584 2469 3576 
Q 2541 3569 2628 3553 
L 2631 2963 
z
" transform="scale(0.015625)"/>
      <path id="DejaVuSans-69" d="M 603 3500 
L 1178 3500 
L 1178 0 
L 603 0 
L 603 3500 
z
M 603 4863 
L 1178 4863 
L 1178 4134 
L 603 4134 
L 603 4863 
z
" transform="scale(0.015625)"/>
      <path id="DejaVuSans-73" d="M 2834 3397 
L 2834 2853 
Q 2591 2978 2328 3040 
Q 2066 3103 1784 3103 
Q 1356 3103 1142 2972 
Q 928 2841 928 2578 
Q 928 2378 1081 2264 
Q 1234 2150 1697 2047 
L 1894 2003 
Q 2506 1872 2764 1633 
Q 3022 1394 3022 966 
Q 3022 478 2636 193 
Q 2250 -91 1575 -91 
Q 1294 -91 989 -36 
Q 684 19 347 128 
L 347 722 
Q 666 556 975 473 
Q 1284 391 1588 391 
Q 1994 391 2212 530 
Q 2431 669 2431 922 
Q 2431 1156 2273 1281 
Q 2116 1406 1581 1522 
L 1381 1569 
Q 847 1681 609 1914 
Q 372 2147 372 2553 
Q 372 3047 722 3315 
Q 1072 3584 1716 3584 
Q 2034 3584 2315 3537 
Q 2597 3491 2834 3397 
z
" transform="scale(0.015625)"/>
     </defs>
     <use xlink:href="#DejaVuSans-4e"/>
     <use xlink:href="#DejaVuSans-56" x="74.804688"/>
     <use xlink:href="#DejaVuSans-44" x="143.212891"/>
     <use xlink:href="#DejaVuSans-41" x="218.464844"/>
     <use xlink:href="#DejaVuSans-20" x="286.873047"/>
     <use xlink:href="#DejaVuSans-53" x="318.660156"/>
     <use xlink:href="#DejaVuSans-74" x="382.136719"/>
     <use xlink:href="#DejaVuSans-6f" x="421.345703"/>
     <use xlink:href="#DejaVuSans-63" x="482.527344"/>
     <use xlink:href="#DejaVuSans-6b" x="537.507812"/>
     <use xlink:href="#DejaVuSans-20" x="595.417969"/>
     <use xlink:href="#DejaVuSans-50" x="627.205078"/>
     <use xlink:href="#DejaVuSans-72" x="685.757812"/>
     <use xlink:href="#DejaVuSans-69" x="726.871094"/>
     <use xlink:href="#DejaVuSans-63" x="754.654297"/>
     <use xlink:href="#DejaVuSans-65" x="809.634766"/>
     <use xlink:href="#DejaVuSans-73" x="871.158203"/>
    </g>
   </g>
  </g>
 </g>
 <defs>
  <clipPath id="p39dfe76d96">
   <rect x="57.6" y="41.472" width="357.12" height="235.008"/>
  </clipPath>
 </defs>
</svg>
