<?xml version="1.0" encoding="utf-8" standalone="no"?>
<!DOCTYPE svg PUBLIC "-//W3C//DTD SVG 1.1//EN"
  "http://www.w3.org/Graphics/SVG/1.1/DTD/svg11.dtd">
<svg xmlns:xlink="http://www.w3.org/1999/xlink" width="460.8pt" height="345.6pt" viewBox="0 0 460.8 345.6" xmlns="http://www.w3.org/2000/svg" version="1.1">
 <metadata>
  <rdf:RDF xmlns:dc="http://purl.org/dc/elements/1.1/" xmlns:cc="http://creativecommons.org/ns#" xmlns:rdf="http://www.w3.org/1999/02/22-rdf-syntax-ns#">
   <cc:Work>
    <dc:type rdf:resource="http://purl.org/dc/dcmitype/StillImage"/>
    <dc:date>2024-04-20T21:09:17.364868</dc:date>
    <dc:format>image/svg+xml</dc:format>
    <dc:creator>
     <cc:Agent>
      <dc:title>Matplotlib v3.8.3, https://matplotlib.org/</dc:title>
     </cc:Agent>
    </dc:creator>
   </cc:Work>
  </rdf:RDF>
 </metadata>
 <defs>
  <style type="text/css">*{stroke-linejoin: round; stroke-linecap: butt}</style>
 </defs>
 <g id="figure_1">
  <g id="patch_1">
   <path d="M 0 345.6 
L 460.8 345.6 
L 460.8 0 
L 0 0 
z
" style="fill: #ffffff"/>
  </g>
  <g id="axes_1">
   <g id="patch_2">
    <path d="M 57.6 276.48 
L 414.72 276.48 
L 414.72 41.472 
L 57.6 41.472 
z
" style="fill: #ffffff"/>
   </g>
   <g id="matplotlib.axis_1">
    <g id="xtick_1">
     <g id="line2d_1">
      <defs>
       <path id="m66ff565312" d="M 0 0 
L 0 3.5 
" style="stroke: #000000; stroke-width: 0.8"/>
      </defs>
      <g>
       <use xlink:href="#m66ff565312" x="119.049713" y="276.48" style="stroke: #000000; stroke-width: 0.8"/>
      </g>
     </g>
     <g id="text_1">
      <!-- 2020 -->
      <g transform="translate(95.969523 302.78544) rotate(-30) scale(0.1 -0.1)">
       <defs>
        <path id="DejaVuSans-32" d="M 1228 531 
L 3431 531 
L 3431 0 
L 469 0 
L 469 531 
Q 828 903 1448 1529 
Q 2069 2156 2228 2338 
Q 2531 2678 2651 2914 
Q 2772 3150 2772 3378 
Q 2772 3750 2511 3984 
Q 2250 4219 1831 4219 
Q 1534 4219 1204 4116 
Q 875 4013 500 3803 
L 500 4441 
Q 881 4594 1212 4672 
Q 1544 4750 1819 4750 
Q 2544 4750 2975 4387 
Q 3406 4025 3406 3419 
Q 3406 3131 3298 2873 
Q 3191 2616 2906 2266 
Q 2828 2175 2409 1742 
Q 1991 1309 1228 531 
z
" transform="scale(0.015625)"/>
        <path id="DejaVuSans-30" d="M 2034 4250 
Q 1547 4250 1301 3770 
Q 1056 3291 1056 2328 
Q 1056 1369 1301 889 
Q 1547 409 2034 409 
Q 2525 409 2770 889 
Q 3016 1369 3016 2328 
Q 3016 3291 2770 3770 
Q 2525 4250 2034 4250 
z
M 2034 4750 
Q 2819 4750 3233 4129 
Q 3647 3509 3647 2328 
Q 3647 1150 3233 529 
Q 2819 -91 2034 -91 
Q 1250 -91 836 529 
Q 422 1150 422 2328 
Q 422 3509 836 4129 
Q 1250 4750 2034 4750 
z
" transform="scale(0.015625)"/>
       </defs>
       <use xlink:href="#DejaVuSans-32"/>
       <use xlink:href="#DejaVuSans-30" x="63.623047"/>
       <use xlink:href="#DejaVuSans-32" x="127.246094"/>
       <use xlink:href="#DejaVuSans-30" x="190.869141"/>
      </g>
     </g>
    </g>
    <g id="xtick_2">
     <g id="line2d_2">
      <g>
       <use xlink:href="#m66ff565312" x="184.194211" y="276.48" style="stroke: #000000; stroke-width: 0.8"/>
      </g>
     </g>
     <g id="text_2">
      <!-- 2021 -->
      <g transform="translate(161.11402 302.78544) rotate(-30) scale(0.1 -0.1)">
       <defs>
        <path id="DejaVuSans-31" d="M 794 531 
L 1825 531 
L 1825 4091 
L 703 3866 
L 703 4441 
L 1819 4666 
L 2450 4666 
L 2450 531 
L 3481 531 
L 3481 0 
L 794 0 
L 794 531 
z
" transform="scale(0.015625)"/>
       </defs>
       <use xlink:href="#DejaVuSans-32"/>
       <use xlink:href="#DejaVuSans-30" x="63.623047"/>
       <use xlink:href="#DejaVuSans-32" x="127.246094"/>
       <use xlink:href="#DejaVuSans-31" x="190.869141"/>
      </g>
     </g>
    </g>
    <g id="xtick_3">
     <g id="line2d_3">
      <g>
       <use xlink:href="#m66ff565312" x="249.160718" y="276.48" style="stroke: #000000; stroke-width: 0.8"/>
      </g>
     </g>
     <g id="text_3">
      <!-- 2022 -->
      <g transform="translate(226.080527 302.78544) rotate(-30) scale(0.1 -0.1)">
       <use xlink:href="#DejaVuSans-32"/>
       <use xlink:href="#DejaVuSans-30" x="63.623047"/>
       <use xlink:href="#DejaVuSans-32" x="127.246094"/>
       <use xlink:href="#DejaVuSans-32" x="190.869141"/>
      </g>
     </g>
    </g>
    <g id="xtick_4">
     <g id="line2d_4">
      <g>
       <use xlink:href="#m66ff565312" x="314.127225" y="276.48" style="stroke: #000000; stroke-width: 0.8"/>
      </g>
     </g>
     <g id="text_4">
      <!-- 2023 -->
      <g transform="translate(291.047035 302.78544) rotate(-30) scale(0.1 -0.1)">
       <defs>
        <path id="DejaVuSans-33" d="M 2597 2516 
Q 3050 2419 3304 2112 
Q 3559 1806 3559 1356 
Q 3559 666 3084 287 
Q 2609 -91 1734 -91 
Q 1441 -91 1130 -33 
Q 819 25 488 141 
L 488 750 
Q 750 597 1062 519 
Q 1375 441 1716 441 
Q 2309 441 2620 675 
Q 2931 909 2931 1356 
Q 2931 1769 2642 2001 
Q 2353 2234 1838 2234 
L 1294 2234 
L 1294 2753 
L 1863 2753 
Q 2328 2753 2575 2939 
Q 2822 3125 2822 3475 
Q 2822 3834 2567 4026 
Q 2313 4219 1838 4219 
Q 1578 4219 1281 4162 
Q 984 4106 628 3988 
L 628 4550 
Q 988 4650 1302 4700 
Q 1616 4750 1894 4750 
Q 2613 4750 3031 4423 
Q 3450 4097 3450 3541 
Q 3450 3153 3228 2886 
Q 3006 2619 2597 2516 
z
" transform="scale(0.015625)"/>
       </defs>
       <use xlink:href="#DejaVuSans-32"/>
       <use xlink:href="#DejaVuSans-30" x="63.623047"/>
       <use xlink:href="#DejaVuSans-32" x="127.246094"/>
       <use xlink:href="#DejaVuSans-33" x="190.869141"/>
      </g>
     </g>
    </g>
    <g id="xtick_5">
     <g id="line2d_5">
      <g>
       <use xlink:href="#m66ff565312" x="379.093732" y="276.48" style="stroke: #000000; stroke-width: 0.8"/>
      </g>
     </g>
     <g id="text_5">
      <!-- 2024 -->
      <g transform="translate(356.013542 302.78544) rotate(-30) scale(0.1 -0.1)">
       <defs>
        <path id="DejaVuSans-34" d="M 2419 4116 
L 825 1625 
L 2419 1625 
L 2419 4116 
z
M 2253 4666 
L 3047 4666 
L 3047 1625 
L 3713 1625 
L 3713 1100 
L 3047 1100 
L 3047 0 
L 2419 0 
L 2419 1100 
L 313 1100 
L 313 1709 
L 2253 4666 
z
" transform="scale(0.015625)"/>
       </defs>
       <use xlink:href="#DejaVuSans-32"/>
       <use xlink:href="#DejaVuSans-30" x="63.623047"/>
       <use xlink:href="#DejaVuSans-32" x="127.246094"/>
       <use xlink:href="#DejaVuSans-34" x="190.869141"/>
      </g>
     </g>
    </g>
    <g id="text_6">
     <!-- Date -->
     <g transform="translate(224.209219 316.18494) scale(0.1 -0.1)">
      <defs>
       <path id="DejaVuSans-44" d="M 1259 4147 
L 1259 519 
L 2022 519 
Q 2988 519 3436 956 
Q 3884 1394 3884 2338 
Q 3884 3275 3436 3711 
Q 2988 4147 2022 4147 
L 1259 4147 
z
M 628 4666 
L 1925 4666 
Q 3281 4666 3915 4102 
Q 4550 3538 4550 2338 
Q 4550 1131 3912 565 
Q 3275 0 1925 0 
L 628 0 
L 628 4666 
z
" transform="scale(0.015625)"/>
       <path id="DejaVuSans-61" d="M 2194 1759 
Q 1497 1759 1228 1600 
Q 959 1441 959 1056 
Q 959 750 1161 570 
Q 1363 391 1709 391 
Q 2188 391 2477 730 
Q 2766 1069 2766 1631 
L 2766 1759 
L 2194 1759 
z
M 3341 1997 
L 3341 0 
L 2766 0 
L 2766 531 
Q 2569 213 2275 61 
Q 1981 -91 1556 -91 
Q 1019 -91 701 211 
Q 384 513 384 1019 
Q 384 1609 779 1909 
Q 1175 2209 1959 2209 
L 2766 2209 
L 2766 2266 
Q 2766 2663 2505 2880 
Q 2244 3097 1772 3097 
Q 1472 3097 1187 3025 
Q 903 2953 641 2809 
L 641 3341 
Q 956 3463 1253 3523 
Q 1550 3584 1831 3584 
Q 2591 3584 2966 3190 
Q 3341 2797 3341 1997 
z
" transform="scale(0.015625)"/>
       <path id="DejaVuSans-74" d="M 1172 4494 
L 1172 3500 
L 2356 3500 
L 2356 3053 
L 1172 3053 
L 1172 1153 
Q 1172 725 1289 603 
Q 1406 481 1766 481 
L 2356 481 
L 2356 0 
L 1766 0 
Q 1100 0 847 248 
Q 594 497 594 1153 
L 594 3053 
L 172 3053 
L 172 3500 
L 594 3500 
L 594 4494 
L 1172 4494 
z
" transform="scale(0.015625)"/>
       <path id="DejaVuSans-65" d="M 3597 1894 
L 3597 1613 
L 953 1613 
Q 991 1019 1311 708 
Q 1631 397 2203 397 
Q 2534 397 2845 478 
Q 3156 559 3463 722 
L 3463 178 
Q 3153 47 2828 -22 
Q 2503 -91 2169 -91 
Q 1331 -91 842 396 
Q 353 884 353 1716 
Q 353 2575 817 3079 
Q 1281 3584 2069 3584 
Q 2775 3584 3186 3129 
Q 3597 2675 3597 1894 
z
M 3022 2063 
Q 3016 2534 2758 2815 
Q 2500 3097 2075 3097 
Q 1594 3097 1305 2825 
Q 1016 2553 972 2059 
L 3022 2063 
z
" transform="scale(0.015625)"/>
      </defs>
      <use xlink:href="#DejaVuSans-44"/>
      <use xlink:href="#DejaVuSans-61" x="77.001953"/>
      <use xlink:href="#DejaVuSans-74" x="138.28125"/>
      <use xlink:href="#DejaVuSans-65" x="177.490234"/>
     </g>
    </g>
   </g>
   <g id="matplotlib.axis_2">
    <g id="ytick_1">
     <g id="line2d_6">
      <defs>
       <path id="m6f9fdd427c" d="M 0 0 
L -3.5 0 
" style="stroke: #000000; stroke-width: 0.8"/>
      </defs>
      <g>
       <use xlink:href="#m6f9fdd427c" x="57.6" y="268.358387" style="stroke: #000000; stroke-width: 0.8"/>
      </g>
     </g>
     <g id="text_7">
      <!-- 40 -->
      <g transform="translate(37.875 272.157606) scale(0.1 -0.1)">
       <use xlink:href="#DejaVuSans-34"/>
       <use xlink:href="#DejaVuSans-30" x="63.623047"/>
      </g>
     </g>
    </g>
    <g id="ytick_2">
     <g id="line2d_7">
      <g>
       <use xlink:href="#m6f9fdd427c" x="57.6" y="240.966066" style="stroke: #000000; stroke-width: 0.8"/>
      </g>
     </g>
     <g id="text_8">
      <!-- 60 -->
      <g transform="translate(37.875 244.765285) scale(0.1 -0.1)">
       <defs>
        <path id="DejaVuSans-36" d="M 2113 2584 
Q 1688 2584 1439 2293 
Q 1191 2003 1191 1497 
Q 1191 994 1439 701 
Q 1688 409 2113 409 
Q 2538 409 2786 701 
Q 3034 994 3034 1497 
Q 3034 2003 2786 2293 
Q 2538 2584 2113 2584 
z
M 3366 4563 
L 3366 3988 
Q 3128 4100 2886 4159 
Q 2644 4219 2406 4219 
Q 1781 4219 1451 3797 
Q 1122 3375 1075 2522 
Q 1259 2794 1537 2939 
Q 1816 3084 2150 3084 
Q 2853 3084 3261 2657 
Q 3669 2231 3669 1497 
Q 3669 778 3244 343 
Q 2819 -91 2113 -91 
Q 1303 -91 875 529 
Q 447 1150 447 2328 
Q 447 3434 972 4092 
Q 1497 4750 2381 4750 
Q 2619 4750 2861 4703 
Q 3103 4656 3366 4563 
z
" transform="scale(0.015625)"/>
       </defs>
       <use xlink:href="#DejaVuSans-36"/>
       <use xlink:href="#DejaVuSans-30" x="63.623047"/>
      </g>
     </g>
    </g>
    <g id="ytick_3">
     <g id="line2d_8">
      <g>
       <use xlink:href="#m6f9fdd427c" x="57.6" y="213.573745" style="stroke: #000000; stroke-width: 0.8"/>
      </g>
     </g>
     <g id="text_9">
      <!-- 80 -->
      <g transform="translate(37.875 217.372964) scale(0.1 -0.1)">
       <defs>
        <path id="DejaVuSans-38" d="M 2034 2216 
Q 1584 2216 1326 1975 
Q 1069 1734 1069 1313 
Q 1069 891 1326 650 
Q 1584 409 2034 409 
Q 2484 409 2743 651 
Q 3003 894 3003 1313 
Q 3003 1734 2745 1975 
Q 2488 2216 2034 2216 
z
M 1403 2484 
Q 997 2584 770 2862 
Q 544 3141 544 3541 
Q 544 4100 942 4425 
Q 1341 4750 2034 4750 
Q 2731 4750 3128 4425 
Q 3525 4100 3525 3541 
Q 3525 3141 3298 2862 
Q 3072 2584 2669 2484 
Q 3125 2378 3379 2068 
Q 3634 1759 3634 1313 
Q 3634 634 3220 271 
Q 2806 -91 2034 -91 
Q 1263 -91 848 271 
Q 434 634 434 1313 
Q 434 1759 690 2068 
Q 947 2378 1403 2484 
z
M 1172 3481 
Q 1172 3119 1398 2916 
Q 1625 2713 2034 2713 
Q 2441 2713 2670 2916 
Q 2900 3119 2900 3481 
Q 2900 3844 2670 4047 
Q 2441 4250 2034 4250 
Q 1625 4250 1398 4047 
Q 1172 3844 1172 3481 
z
" transform="scale(0.015625)"/>
       </defs>
       <use xlink:href="#DejaVuSans-38"/>
       <use xlink:href="#DejaVuSans-30" x="63.623047"/>
      </g>
     </g>
    </g>
    <g id="ytick_4">
     <g id="line2d_9">
      <g>
       <use xlink:href="#m6f9fdd427c" x="57.6" y="186.181424" style="stroke: #000000; stroke-width: 0.8"/>
      </g>
     </g>
     <g id="text_10">
      <!-- 100 -->
      <g transform="translate(31.5125 189.980643) scale(0.1 -0.1)">
       <use xlink:href="#DejaVuSans-31"/>
       <use xlink:href="#DejaVuSans-30" x="63.623047"/>
       <use xlink:href="#DejaVuSans-30" x="127.246094"/>
      </g>
     </g>
    </g>
    <g id="ytick_5">
     <g id="line2d_10">
      <g>
       <use xlink:href="#m6f9fdd427c" x="57.6" y="158.789103" style="stroke: #000000; stroke-width: 0.8"/>
      </g>
     </g>
     <g id="text_11">
      <!-- 120 -->
      <g transform="translate(31.5125 162.588322) scale(0.1 -0.1)">
       <use xlink:href="#DejaVuSans-31"/>
       <use xlink:href="#DejaVuSans-32" x="63.623047"/>
       <use xlink:href="#DejaVuSans-30" x="127.246094"/>
      </g>
     </g>
    </g>
    <g id="ytick_6">
     <g id="line2d_11">
      <g>
       <use xlink:href="#m6f9fdd427c" x="57.6" y="131.396782" style="stroke: #000000; stroke-width: 0.8"/>
      </g>
     </g>
     <g id="text_12">
      <!-- 140 -->
      <g transform="translate(31.5125 135.196001) scale(0.1 -0.1)">
       <use xlink:href="#DejaVuSans-31"/>
       <use xlink:href="#DejaVuSans-34" x="63.623047"/>
       <use xlink:href="#DejaVuSans-30" x="127.246094"/>
      </g>
     </g>
    </g>
    <g id="ytick_7">
     <g id="line2d_12">
      <g>
       <use xlink:href="#m6f9fdd427c" x="57.6" y="104.004461" style="stroke: #000000; stroke-width: 0.8"/>
      </g>
     </g>
     <g id="text_13">
      <!-- 160 -->
      <g transform="translate(31.5125 107.80368) scale(0.1 -0.1)">
       <use xlink:href="#DejaVuSans-31"/>
       <use xlink:href="#DejaVuSans-36" x="63.623047"/>
       <use xlink:href="#DejaVuSans-30" x="127.246094"/>
      </g>
     </g>
    </g>
    <g id="ytick_8">
     <g id="line2d_13">
      <g>
       <use xlink:href="#m6f9fdd427c" x="57.6" y="76.61214" style="stroke: #000000; stroke-width: 0.8"/>
      </g>
     </g>
     <g id="text_14">
      <!-- 180 -->
      <g transform="translate(31.5125 80.411359) scale(0.1 -0.1)">
       <use xlink:href="#DejaVuSans-31"/>
       <use xlink:href="#DejaVuSans-38" x="63.623047"/>
       <use xlink:href="#DejaVuSans-30" x="127.246094"/>
      </g>
     </g>
    </g>
    <g id="ytick_9">
     <g id="line2d_14">
      <g>
       <use xlink:href="#m6f9fdd427c" x="57.6" y="49.219819" style="stroke: #000000; stroke-width: 0.8"/>
      </g>
     </g>
     <g id="text_15">
      <!-- 200 -->
      <g transform="translate(31.5125 53.019037) scale(0.1 -0.1)">
       <use xlink:href="#DejaVuSans-32"/>
       <use xlink:href="#DejaVuSans-30" x="63.623047"/>
       <use xlink:href="#DejaVuSans-30" x="127.246094"/>
      </g>
     </g>
    </g>
   </g>
   <g id="line2d_15">
    <path d="M 73.832727 255.723405 
L 74.010718 254.751005 
L 74.188708 254.85648 
L 74.544689 255.799209 
L 75.07866 255.697036 
L 75.256651 256.995779 
L 75.434641 253.748918 
L 75.612632 254.200512 
L 75.790622 253.343463 
L 76.324593 254.42137 
L 76.502584 256.273886 
L 76.680574 256.260699 
L 77.036555 257.895896 
L 77.570526 261.688035 
L 77.926507 259.967347 
L 78.282488 260.602672 
L 78.816459 262.558303 
L 78.99445 261.396822 
L 79.350431 263.693295 
L 79.528421 263.921602 
L 80.240383 264.166483 
L 80.418373 264.447737 
L 80.596364 264.143311 
L 80.774354 265.212117 
L 81.308325 265.797818 
L 81.664306 262.740294 
L 81.842297 261.853484 
L 82.020287 260.222133 
L 82.554258 259.418036 
L 82.732249 258.680124 
L 82.910239 258.885292 
L 83.08823 258.898541 
L 83.26622 259.365099 
L 83.800191 258.984571 
L 83.978182 257.475655 
L 84.156172 257.667578 
L 84.334163 257.141448 
L 84.512153 257.366448 
L 85.046124 257.432629 
L 85.224115 258.428655 
L 85.402105 257.028945 
L 85.580096 257.048789 
L 85.758086 257.651031 
L 86.648038 255.503482 
L 87.004019 255.563038 
L 87.53799 256.956129 
L 87.893971 255.893943 
L 88.071962 256.383678 
L 88.249952 255.870787 
L 88.783923 255.238754 
L 89.139904 255.854236 
L 89.317895 255.089861 
L 89.495885 256.105725 
L 90.207847 254.037581 
L 90.385837 254.09383 
L 90.563828 254.639818 
L 91.275789 253.759634 
L 91.45378 254.057435 
L 91.63177 252.647808 
L 91.987751 255.632532 
L 92.521722 259.166567 
L 93.055694 255.827762 
L 93.233684 256.382465 
L 93.767656 256.551865 
L 93.945646 253.731838 
L 94.123636 255.797872 
L 94.301627 256.133353 
L 94.479617 254.552279 
L 95.013589 253.273462 
L 95.191579 253.27015 
L 95.369569 252.512818 
L 95.54756 252.572609 
L 95.72555 255.834413 
L 96.259522 254.555597 
L 96.437512 255.329522 
L 96.615502 254.874474 
L 96.793493 253.718568 
L 96.971483 253.808239 
L 97.683445 254.818006 
L 98.039426 252.300242 
L 98.217416 252.306904 
L 98.751388 252.00463 
L 98.929378 251.164263 
L 99.107368 248.87568 
L 99.285359 249.041767 
L 99.463349 250.483321 
L 99.997321 250.101356 
L 100.175311 249.835624 
L 100.353301 249.148052 
L 100.531292 249.749265 
L 100.709282 250.822131 
L 101.243254 250.493311 
L 101.421244 250.838745 
L 101.599234 249.726005 
L 101.955215 250.460071 
L 102.667177 248.543532 
L 102.845167 250.413582 
L 103.023158 249.795765 
L 103.201148 247.739706 
L 103.73512 247.723096 
L 103.91311 248.60664 
L 104.269091 246.716663 
L 104.447081 244.683843 
L 104.981053 244.796779 
L 105.337033 245.295035 
L 105.693014 244.617406 
L 106.226986 243.255569 
L 106.404976 243.438245 
L 106.582967 242.368708 
L 106.760957 242.235818 
L 106.938947 241.239353 
L 107.472919 240.418928 
L 107.650909 242.332161 
L 107.8289 242.34213 
L 108.18488 238.170204 
L 108.726268 237.612194 
L 108.904258 237.735078 
L 109.082249 237.698542 
L 109.260239 236.712432 
L 109.972201 235.789557 
L 110.150191 235.869541 
L 110.328182 235.033317 
L 110.506172 235.642979 
L 110.684163 234.603536 
L 111.218134 234.157119 
L 111.396124 234.426963 
L 111.752105 235.852875 
L 111.930096 235.929515 
L 112.464067 234.400306 
L 112.642057 235.093244 
L 112.820048 233.910577 
L 113.176029 234.10714 
L 113.71 235.136567 
L 113.88799 236.705755 
L 114.065981 235.942833 
L 114.421962 232.9544 
L 114.955933 234.217056 
L 115.489904 232.704525 
L 115.667895 231.475191 
L 116.379856 229.722816 
L 116.557847 229.946003 
L 116.735837 229.852732 
L 116.913828 230.045961 
L 117.447799 228.526773 
L 117.625789 228.436846 
L 117.98177 226.557783 
L 118.159761 226.59446 
L 118.693732 226.021429 
L 118.871722 225.311825 
L 119.227703 223.079657 
L 119.405694 224.052481 
L 119.939665 223.262897 
L 120.117656 223.732637 
L 120.651627 219.754781 
L 121.185598 217.545958 
L 121.363589 218.971865 
L 121.541579 219.418292 
L 121.89756 216.956281 
L 122.609522 217.675895 
L 122.965502 216.789687 
L 123.143493 217.096197 
L 123.677464 220.214511 
L 124.033445 215.08727 
L 124.211435 215.243832 
L 124.389426 220.027938 
L 124.923397 220.311136 
L 125.101388 216.916301 
L 125.457368 214.797426 
L 125.635359 216.270125 
L 126.16933 215.762537 
L 126.347321 216.410397 
L 126.525311 213.875731 
L 126.703301 214.653831 
L 126.881292 214.627102 
L 127.593254 216.614086 
L 127.771244 215.071261 
L 127.949234 216.179968 
L 128.127225 218.601091 
L 128.661196 223.566858 
L 128.839187 226.939717 
L 129.017177 225.41358 
L 129.195167 231.802005 
L 129.373158 231.855411 
L 129.907129 223.356492 
L 130.08512 226.52561 
L 130.26311 222.044075 
L 130.619091 226.622454 
L 131.145646 234.256482 
L 131.323636 227.854745 
L 131.501627 231.164125 
L 131.679617 240.247481 
L 131.857608 230.315899 
L 132.391579 242.257845 
L 132.569569 238.701323 
L 132.74756 240.768443 
L 132.92555 241.399604 
L 133.103541 246.589118 
L 133.637512 248.215438 
L 133.815502 240.698307 
L 133.993493 241.152472 
L 134.171483 236.837887 
L 134.349474 240.411128 
L 134.883445 238.05012 
L 135.061435 238.223778 
L 135.239426 242.691968 
L 135.417416 241.349505 
L 135.595407 242.524998 
L 136.129378 235.492095 
L 136.307368 236.507301 
L 136.485359 234.289878 
L 136.663349 233.648696 
L 137.375311 231.892141 
L 137.553301 227.283699 
L 137.731292 228.158622 
L 137.909282 227.403887 
L 138.087273 228.70297 
L 138.621244 230.663225 
L 138.799234 233.521788 
L 138.977225 230.940394 
L 139.155215 231.297719 
L 139.333206 228.646199 
L 139.867177 228.579386 
L 140.045167 230.112221 
L 140.401148 225.029567 
L 140.579139 226.6091 
L 141.11311 225.243267 
L 141.825072 219.295825 
L 142.359043 217.661778 
L 142.715024 220.126266 
L 142.893014 219.493402 
L 143.071005 220.106182 
L 143.604976 217.678529 
L 143.782967 218.287934 
L 143.960957 216.248703 
L 144.138947 217.045643 
L 144.316938 216.36256 
L 145.0289 217.085842 
L 145.20689 216.62373 
L 145.38488 216.576865 
L 145.562871 216.680648 
L 146.452823 214.276432 
L 146.630813 215.213999 
L 146.808804 212.140085 
L 147.342775 211.483783 
L 147.698756 204.994387 
L 147.876746 210.666739 
L 148.054737 209.695671 
L 148.588708 208.292669 
L 148.766699 205.24888 
L 148.944689 205.412967 
L 149.122679 205.366049 
L 149.30067 206.039122 
L 149.834641 202.975229 
L 150.012632 200.410271 
L 150.190622 202.576744 
L 150.368612 200.976145 
L 150.546603 204.72983 
L 151.258565 200.989562 
L 151.436555 201.220618 
L 151.614545 201.220618 
L 152.326507 197.95918 
L 152.504498 198.347582 
L 152.682488 195.441097 
L 153.038469 194.667585 
L 153.57244 195.260272 
L 153.928421 192.249963 
L 154.106411 193.860593 
L 154.284402 194.121795 
L 154.818373 191.402793 
L 154.996364 193.22103 
L 155.174354 192.856045 
L 155.352344 198.786256 
L 155.530335 199.094333 
L 156.064306 196.154338 
L 156.242297 198.240445 
L 156.598278 194.305933 
L 156.776268 180.818153 
L 157.48823 176.257518 
L 157.66622 175.725092 
L 157.844211 170.581791 
L 158.022201 174.050387 
L 158.556172 171.88335 
L 158.734163 176.381792 
L 159.090144 168.820659 
L 159.802105 169.360733 
L 159.980096 168.079309 
L 160.158086 167.884743 
L 160.336077 164.439637 
L 160.514067 156.261251 
L 161.048038 154.265301 
L 161.226029 155.650717 
L 161.404019 153.37298 
L 161.58201 155.402482 
L 161.76 155.674207 
L 162.293971 149.99499 
L 162.471962 143.098059 
L 162.649952 146.828265 
L 162.827943 160.944207 
L 163.005933 160.83684 
L 163.717895 171.759243 
L 163.895885 165.721071 
L 164.251866 172.859528 
L 164.785837 168.351034 
L 164.963828 168.109497 
L 165.497799 179.783324 
L 166.209761 173.114471 
L 166.387751 179.407586 
L 166.565742 177.931586 
L 166.743732 172.483801 
L 167.277703 168.887754 
L 167.455694 170.055144 
L 167.811675 166.432232 
L 167.989665 171.490873 
L 168.523636 166.821376 
L 168.701627 171.303025 
L 168.879617 168.726719 
L 169.057608 168.874316 
L 169.235598 166.190685 
L 169.769569 156.221 
L 169.94756 160.649002 
L 170.12555 160.52825 
L 170.303541 161.172295 
L 170.481531 163.439959 
L 171.015502 167.519089 
L 171.193493 165.466117 
L 171.371483 166.324875 
L 171.727464 168.780408 
L 172.261435 168.766991 
L 172.439426 166.687165 
L 172.617416 173.932999 
L 172.795407 168.404681 
L 172.973397 177.072817 
L 173.514785 177.193611 
L 173.692775 174.952771 
L 174.048756 163.426552 
L 174.226746 163.608005 
L 174.938708 167.264052 
L 175.116699 162.532705 
L 175.294689 162.909059 
L 175.472679 162.841828 
L 176.006651 161.443957 
L 176.362632 164.495144 
L 176.540622 163.675236 
L 177.252584 170.113618 
L 177.608565 167.183404 
L 177.964545 166.430706 
L 178.498517 163.124117 
L 178.676507 158.19116 
L 178.854498 157.707262 
L 179.032488 157.895444 
L 179.210478 158.822896 
L 179.92244 155.959902 
L 180.100431 159.454622 
L 180.278421 157.492214 
L 180.456411 158.607817 
L 180.990383 159.454622 
L 181.168373 151.255452 
L 181.346364 151.349527 
L 181.524354 150.153255 
L 181.702344 152.895278 
L 182.236316 150.784981 
L 182.414306 145.8789 
L 182.592297 147.115475 
L 182.770287 145.757939 
L 183.482249 139.413663 
L 183.83823 143.405708 
L 184.01622 144.790121 
L 184.728182 149.198907 
L 184.906172 147.048349 
L 185.084163 152.975936 
L 185.262153 147.169289 
L 185.440144 145.650415 
L 185.974115 149.776912 
L 186.152105 150.018825 
L 186.330096 147.209624 
L 186.686077 152.250104 
L 187.398038 151.322652 
L 187.93201 136.214597 
L 188.465981 131.039686 
L 188.643971 130.717094 
L 188.821962 132.195655 
L 189.177943 145.771356 
L 189.889904 141.69862 
L 190.067895 143.110013 
L 190.245885 138.472762 
L 190.423876 139.044864 
L 190.957847 138.842962 
L 191.313828 140.889089 
L 191.491818 141.239037 
L 191.669809 140.915986 
L 192.38177 143.850558 
L 192.737751 148.535102 
L 192.915742 148.319783 
L 193.449713 153.529323 
L 193.627703 153.717787 
L 193.805694 154.404319 
L 193.983684 160.273495 
L 194.161675 159.910056 
L 194.695646 151.119715 
L 195.229617 161.431167 
L 195.407608 159.694674 
L 195.941579 166.50614 
L 196.119569 160.138886 
L 196.29756 161.6331 
L 196.47555 158.967724 
L 196.653541 160.219649 
L 197.358086 154.108164 
L 197.536077 155.198542 
L 197.714067 160.892702 
L 197.892057 161.619642 
L 198.426029 157.042757 
L 198.604019 158.18697 
L 198.78201 161.485033 
L 199.13799 159.977329 
L 199.671962 159.73503 
L 199.849952 161.740791 
L 200.205933 157.567774 
L 201.095885 153.246626 
L 201.451866 147.660137 
L 201.629856 144.106337 
L 202.163828 146.475537 
L 202.341818 142.181359 
L 202.519809 145.412107 
L 202.697799 142.087106 
L 202.875789 142.544808 
L 203.409761 141.629446 
L 203.587751 143.95829 
L 203.765742 143.433295 
L 203.943732 145.533236 
L 204.121722 142.329426 
L 204.655694 141.791013 
L 204.833684 142.235236 
L 205.011675 143.325583 
L 205.189665 143.460191 
L 205.367656 146.179423 
L 205.901627 144.725544 
L 206.079617 151.038963 
L 206.257608 150.702421 
L 206.613589 147.564337 
L 207.32555 153.362593 
L 207.503541 157.596656 
L 207.859522 151.286016 
L 208.393493 152.877148 
L 208.571483 154.791917 
L 208.749474 155.007654 
L 208.927464 151.474805 
L 209.105455 154.009836 
L 209.639426 151.757961 
L 209.817416 152.027637 
L 209.995407 152.095067 
L 210.351388 155.115533 
L 211.063349 155.560528 
L 211.24134 154.50875 
L 211.41933 156.558357 
L 211.597321 153.389552 
L 212.131292 153.376073 
L 212.487273 151.717501 
L 212.665263 153.092895 
L 213.377225 147.200282 
L 213.555215 148.332949 
L 213.733206 147.645236 
L 213.911196 145.433842 
L 214.089187 147.227241 
L 214.623158 144.74615 
L 214.801148 142.480774 
L 215.33512 143.65388 
L 215.869091 141.402047 
L 216.225072 138.462459 
L 216.403062 138.044444 
L 216.581053 134.417164 
L 217.293014 131.639437 
L 217.471005 128.200914 
L 217.648995 129.994313 
L 217.826986 127.472804 
L 218.360957 128.295313 
L 218.538947 126.75809 
L 218.716938 122.025144 
L 218.894928 122.928594 
L 219.072919 125.746802 
L 219.60689 131.059624 
L 219.78488 126.070397 
L 219.962871 127.081747 
L 220.318852 122.820736 
L 220.852823 122.24086 
L 221.208804 127.648081 
L 221.386794 126.75809 
L 221.564785 126.461454 
L 222.098756 126.919908 
L 222.276746 124.438796 
L 222.454737 124.99167 
L 222.632727 124.843331 
L 222.810718 125.788641 
L 223.344689 125.856186 
L 223.522679 126.517901 
L 223.70067 126.166803 
L 223.87866 122.074904 
L 224.056651 121.79133 
L 224.590622 119.063487 
L 224.768612 120.319331 
L 224.946603 125.491567 
L 225.124593 125.032402 
L 225.302584 123.020256 
L 225.836555 120.967545 
L 226.014545 121.089092 
L 226.370526 123.898 
L 226.548517 122.466545 
L 227.082488 116.362521 
L 227.260478 118.104572 
L 227.438469 117.186305 
L 227.79445 114.769017 
L 228.506411 111.541445 
L 228.862392 115.079592 
L 229.040383 121.966878 
L 229.574354 121.183638 
L 229.752344 123.11478 
L 229.930335 121.885833 
L 230.108325 122.209972 
L 230.286316 125.896688 
L 230.820287 130.110092 
L 230.998278 129.448377 
L 231.354258 124.856832 
L 231.532249 124.735306 
L 232.06622 126.828518 
L 232.244211 131.501087 
L 232.422201 130.25864 
L 232.600191 132.054735 
L 232.778182 130.501733 
L 233.312153 135.241784 
L 233.668134 131.379499 
L 233.846124 129.637426 
L 234.024115 130.164136 
L 234.558086 130.285641 
L 234.914067 132.851497 
L 235.270048 127.544256 
L 235.804019 125.234973 
L 235.98201 122.250474 
L 236.33799 121.278162 
L 236.515981 122.34504 
L 237.049952 122.412543 
L 237.227943 121.494234 
L 237.405933 122.128969 
L 237.583923 117.105322 
L 237.761914 120.846019 
L 238.295885 121.9804 
L 238.651866 118.563779 
L 238.829856 119.279496 
L 239.007847 118.549212 
L 239.549234 119.685223 
L 239.727225 119.184846 
L 239.905215 123.093359 
L 240.083206 123.160946 
L 240.261196 120.293793 
L 240.795167 120.280313 
L 240.973158 118.927897 
L 241.151148 115.560366 
L 241.507129 106.012281 
L 242.0411 105.376627 
L 242.397081 104.132444 
L 242.753062 111.070326 
L 243.287033 106.431529 
L 243.465024 99.588277 
L 243.643014 100.305102 
L 243.821005 101.671019 
L 243.998995 104.267659 
L 244.532967 99.561234 
L 244.888947 86.361668 
L 245.066938 87.064908 
L 245.244928 80.451583 
L 245.95689 87.375944 
L 246.13488 80.654426 
L 246.312871 90.175468 
L 246.490861 91.690184 
L 247.024833 93.57002 
L 247.380813 85.6043 
L 247.558804 84.73876 
L 248.270766 79.261445 
L 248.448756 80.667989 
L 248.626746 80.546233 
L 248.982727 82.994096 
L 249.516699 76.989424 
L 249.694689 80.113463 
L 250.05067 90.527089 
L 250.22866 90.297203 
L 250.762632 90.270118 
L 250.940622 86.361668 
L 251.118612 85.753077 
L 251.296603 90.270118 
L 251.474593 89.07998 
L 252.186555 93.502413 
L 252.542536 100.656701 
L 252.720526 103.49679 
L 253.254498 104.565214 
L 253.432488 107.053662 
L 253.610478 107.175376 
L 253.788469 107.810989 
L 253.966459 92.785651 
L 254.500431 86.767395 
L 254.678421 86.99728 
L 254.856411 85.333808 
L 255.034402 89.309928 
L 255.746364 90.691122 
L 256.102344 84.434997 
L 256.458325 94.780618 
L 256.992297 94.455623 
L 257.170287 89.160984 
L 257.348278 89.485916 
L 257.704258 96.59523 
L 258.41622 100.630515 
L 258.594211 106.385615 
L 258.950191 99.912833 
L 259.484163 99.547232 
L 259.662153 102.147174 
L 259.840144 97.597238 
L 260.018134 98.044115 
L 260.196124 102.187801 
L 260.908086 109.947022 
L 261.086077 102.485733 
L 261.442057 113.616726 
L 261.968612 119.182254 
L 262.324593 107.035648 
L 262.502584 105.640849 
L 262.680574 101.090934 
L 263.214545 99.195152 
L 263.748517 87.427605 
L 263.926507 86.547457 
L 264.460478 85.355814 
L 264.638469 80.805899 
L 264.816459 82.417313 
L 264.99445 86.696402 
L 265.17244 87.102651 
L 265.706411 81.51006 
L 266.062392 90.460923 
L 266.240383 90.041132 
L 266.418373 92.817124 
L 266.952344 98.694106 
L 267.308325 92.397354 
L 267.486316 99.317012 
L 268.198278 99.614923 
L 268.376268 96.459807 
L 268.554258 96.689985 
L 268.732249 97.786852 
L 268.910239 104.05652 
L 269.444211 102.580466 
L 269.622201 110.813649 
L 269.800191 111.125102 
L 269.978182 101.551332 
L 270.156172 109.662675 
L 270.690144 109.242862 
L 270.868134 107.184593 
L 271.046124 98.328483 
L 271.224115 110.854318 
L 271.402105 109.850742 
L 271.936077 116.929774 
L 272.114067 113.607238 
L 272.470048 129.813038 
L 272.648038 123.642639 
L 273.18201 125.771755 
L 273.36 120.754044 
L 273.715981 136.878465 
L 273.893971 136.553009 
L 274.427943 129.067143 
L 274.605933 132.796492 
L 274.783923 132.579501 
L 274.961914 128.158531 
L 275.139904 120.211598 
L 276.029856 121.472813 
L 276.207847 118.082461 
L 276.385837 125.988746 
L 276.919809 124.958044 
L 277.097799 121.472813 
L 277.275789 122.489889 
L 277.63177 137.176814 
L 278.165742 144.296494 
L 278.343732 143.103095 
L 278.521722 139.482231 
L 278.699713 146.764649 
L 278.877703 144.730476 
L 279.589665 138.885532 
L 279.767656 139.590717 
L 280.123636 131.033521 
L 280.657608 131.033521 
L 280.835598 136.756416 
L 281.013589 134.328909 
L 281.191579 137.732824 
L 281.369569 134.735764 
L 282.081531 131.169133 
L 282.259522 129.324824 
L 282.437512 124.673258 
L 282.615502 123.737561 
L 283.149474 126.680367 
L 283.327464 125.337794 
L 283.505455 125.839551 
L 283.861435 119.492872 
L 284.395407 123.69683 
L 284.751388 115.600764 
L 284.929378 112.468093 
L 285.107368 114.176832 
L 285.64134 115.722812 
L 285.81933 117.553557 
L 285.997321 110.515257 
L 286.175311 109.755841 
L 286.353301 102.758231 
L 286.887273 104.114346 
L 287.065263 106.148519 
L 287.243254 97.848984 
L 287.599234 98.595318 
L 288.133206 99.247168 
L 288.311196 99.179248 
L 288.489187 93.312632 
L 288.667177 94.33113 
L 288.845167 89.428717 
L 289.379139 87.948484 
L 289.557129 88.165788 
L 289.73512 86.101563 
L 289.91311 86.644761 
L 290.0911 90.216388 
L 290.625072 95.580515 
L 290.803062 96.04223 
L 290.981053 95.634852 
L 291.159043 92.239798 
L 291.337033 100.944685 
L 291.871005 103.986593 
L 292.226986 109.635966 
L 292.404976 108.63099 
L 292.582967 111.550766 
L 293.294928 113.289056 
L 293.472919 111.347046 
L 293.650909 113.384103 
L 293.8289 109.432267 
L 294.362871 101.202721 
L 294.540861 114.226069 
L 294.718852 112.229785 
L 295.074833 118.490236 
L 295.608804 113.356914 
L 295.786794 110.070533 
L 295.964785 114.389016 
L 296.142775 115.719865 
L 296.320766 118.856904 
L 296.854737 118.395147 
L 297.032727 117.050735 
L 297.210718 119.658138 
L 297.566699 135.4654 
L 298.10067 129.693832 
L 298.27866 124.737103 
L 298.456651 124.329704 
L 298.634641 125.64699 
L 298.812632 132.898749 
L 299.346603 132.450619 
L 299.702584 135.275285 
L 299.880574 128.960518 
L 300.058565 135.220948 
L 300.770526 127.928416 
L 300.948517 127.779053 
L 301.126507 128.417299 
L 301.304498 123.148239 
L 301.838469 120.187774 
L 302.016459 116.263085 
L 302.37244 126.50252 
L 302.550431 111.645834 
L 303.084402 114.905067 
L 303.262392 118.558136 
L 303.618373 134.541929 
L 303.796364 134.909203 
L 304.337751 134.174698 
L 304.515742 133.38573 
L 304.693732 139.683757 
L 304.871722 123.360528 
L 305.049713 119.511012 
L 305.583684 121.442593 
L 305.761675 119.048524 
L 305.939665 120.748861 
L 306.117656 118.123527 
L 306.295646 117.348165 
L 306.829617 121.809846 
L 307.185598 117.647434 
L 308.07555 126.965258 
L 308.253541 131.114106 
L 308.431531 121.782657 
L 308.609522 121.401757 
L 309.321483 123.687007 
L 309.677464 131.42696 
L 309.855455 129.100895 
L 310.033445 129.767416 
L 310.745407 125.26492 
L 310.923397 128.339117 
L 311.101388 137.466533 
L 311.279378 140.173476 
L 311.813349 143.084454 
L 311.99134 143.179647 
L 312.16933 138.894811 
L 312.347321 143.274883 
L 312.525311 143.778206 
L 313.237273 146.267448 
L 313.415263 151.69493 
L 313.593254 146.838777 
L 313.771244 146.403478 
L 314.483206 153.01439 
L 314.661196 151.259642 
L 314.839187 153.082404 
L 315.017177 146.825172 
L 315.551148 146.10423 
L 315.729139 145.315284 
L 315.907129 141.560919 
L 316.08512 141.669717 
L 316.26311 139.833413 
L 316.975072 138.228311 
L 317.153062 139.22127 
L 317.331053 139.13966 
L 317.509043 135.602955 
L 318.221005 129.264134 
L 318.398995 130.175505 
L 318.754976 124.639235 
L 319.288947 128.624781 
L 319.644928 125.319362 
L 320.000909 112.98172 
L 320.53488 116.749648 
L 320.712871 112.777707 
L 321.068852 117.919535 
L 321.246842 117.415417 
L 321.780813 113.54636 
L 321.958804 114.431879 
L 322.136794 111.530118 
L 322.492775 115.317398 
L 323.204737 120.862153 
L 323.560718 119.608776 
L 323.738708 123.273485 
L 324.272679 121.625081 
L 324.45067 122.319878 
L 324.62866 125.180803 
L 324.806651 124.363372 
L 324.984641 117.388186 
L 325.518612 113.573612 
L 325.696603 116.611612 
L 325.874593 114.881452 
L 326.230574 120.834922 
L 326.757129 118.151093 
L 326.93512 115.262916 
L 327.11311 114.717982 
L 327.2911 110.821674 
L 327.469091 111.97967 
L 328.003062 108.71005 
L 328.181053 106.148833 
L 328.359043 108.124239 
L 328.715024 104.827367 
L 329.426986 108.369464 
L 329.782967 101.952816 
L 329.960957 98.492475 
L 330.494928 96.762252 
L 330.672919 97.497949 
L 330.850909 100.04554 
L 331.0289 98.819414 
L 331.740861 102.402368 
L 332.096842 105.031694 
L 332.274833 97.59333 
L 332.452823 98.070134 
L 332.986794 98.042882 
L 333.342775 94.773241 
L 333.520766 96.108374 
L 333.698756 98.328985 
L 334.232727 97.906643 
L 334.410718 100.031914 
L 334.588708 100.04554 
L 334.766699 93.710627 
L 334.944689 91.980467 
L 335.47866 92.103079 
L 336.012632 97.279996 
L 336.190622 86.680916 
L 336.724593 86.776277 
L 336.902584 89.133147 
L 337.080574 86.694563 
L 337.258565 86.435712 
L 337.436555 87.718076 
L 337.970526 88.400188 
L 338.148517 88.400188 
L 338.326507 87.554376 
L 338.504498 84.334788 
L 338.682488 84.184715 
L 339.216459 85.494393 
L 339.39445 89.095947 
L 339.57244 88.713982 
L 339.750431 87.145118 
L 339.928421 83.816417 
L 340.640383 81.265294 
L 340.818373 81.333507 
L 340.996364 77.459101 
L 341.174354 76.28587 
L 341.886316 78.659626 
L 342.064306 80.555888 
L 342.242297 76.804261 
L 342.420287 76.272202 
L 342.954258 72.411463 
L 343.132249 73.06626 
L 343.310239 72.193176 
L 343.48823 69.382868 
L 343.66622 70.869872 
L 344.378182 70.747092 
L 344.556172 72.179508 
L 344.734163 68.032269 
L 344.912153 68.468843 
L 345.446124 70.392358 
L 345.802105 64.962754 
L 345.980096 64.498929 
L 346.158086 58.523578 
L 347.048038 62.125152 
L 347.226029 61.470334 
L 347.404019 63.011925 
L 348.115981 66.558891 
L 348.471962 63.202918 
L 348.649952 62.998278 
L 349.183923 58.496305 
L 349.361914 58.851018 
L 349.539904 56.982007 
L 349.895885 61.292967 
L 350.429856 60.18797 
L 350.785837 57.800546 
L 350.963828 59.546777 
L 351.141818 55.986122 
L 351.675789 55.140311 
L 351.85378 56.286269 
L 352.209761 62.343439 
L 352.387751 74.867037 
L 352.921722 79.150745 
L 353.099713 77.854734 
L 353.277703 80.051143 
L 353.455694 80.351248 
L 353.633684 80.269284 
L 354.167656 77.987942 
L 354.701627 85.446682 
L 355.413589 82.933134 
L 355.591579 81.034301 
L 355.769569 75.720268 
L 355.94756 82.195453 
L 356.12555 79.149114 
L 356.659522 76.990719 
L 357.015502 66.799832 
L 357.193493 66.499288 
L 357.371483 64.327225 
L 358.083445 63.999388 
L 358.439426 80.583475 
L 358.617416 79.736535 
L 359.151388 78.124557 
L 359.507368 85.159826 
L 359.685359 83.069707 
L 359.863349 84.066992 
L 360.575311 78.520712 
L 360.931292 85.542314 
L 361.109282 84.367515 
L 361.643254 82.605276 
L 361.821244 88.233479 
L 361.999234 90.323598 
L 362.177225 89.968383 
L 362.355215 89.258037 
L 362.889187 85.788208 
L 363.067177 87.632412 
L 363.423158 84.203565 
L 363.601148 80.679086 
L 364.13512 78.629991 
L 364.31311 79.449638 
L 364.669091 76.280352 
L 364.847081 78.821256 
L 365.381053 78.998832 
L 365.737033 82.933134 
L 365.915024 83.452216 
L 366.093014 86.976695 
L 366.626986 86.812766 
L 366.804976 86.211699 
L 366.982967 89.408278 
L 367.160957 95.159449 
L 367.338947 93.34258 
L 368.050909 89.859104 
L 368.40689 80.569807 
L 368.58488 81.826612 
L 369.126268 78.302154 
L 369.482249 73.302332 
L 369.660239 73.958049 
L 369.83823 68.171956 
L 370.372201 70.360529 
L 370.550191 66.749362 
L 370.728182 65.969695 
L 370.906172 63.644277 
L 371.084163 63.671655 
L 371.618134 61.26421 
L 371.796124 62.372175 
L 371.974115 61.455705 
L 372.330096 63.288645 
L 372.864067 63.534873 
L 373.042057 62.700472 
L 373.220048 64.109378 
L 373.398038 63.316022 
L 373.576029 61.551442 
L 374.11 64.027308 
L 374.28799 58.569492 
L 374.465981 60.074135 
L 374.821962 55.437072 
L 375.355933 58.89779 
L 375.533923 56.804933 
L 375.711914 52.359365 
L 375.889904 52.154182 
L 376.601866 55.190865 
L 376.779856 53.754582 
L 376.957847 56.640795 
L 377.135837 56.845999 
L 377.313828 58.323264 
L 378.025789 59.075596 
L 378.20378 58.938835 
L 378.38177 58.350641 
L 378.559761 59.786903 
L 379.805694 75.312242 
L 380.339665 69.320966 
L 380.517656 69.89547 
L 380.695646 68.459208 
L 380.873636 69.279921 
L 381.051627 68.82853 
L 381.763589 71.96095 
L 381.941579 73.26043 
L 382.29756 61.11374 
L 382.831531 57.926607 
L 383.009522 56.162048 
L 383.365502 57.543597 
L 383.543493 59.937374 
L 384.077464 60.8812 
L 384.433445 70.907698 
L 384.611435 67.542718 
L 384.789426 68.924267 
L 385.323397 66.421085 
L 385.501388 64.205114 
L 385.679378 64.054644 
L 385.857368 65.545619 
L 386.035359 64.491029 
L 386.56933 66.819393 
L 386.925311 70.928242 
L 387.103301 71.325421 
L 387.281292 73.44833 
L 387.993254 74.475542 
L 388.171244 73.434621 
L 388.349234 70.626924 
L 388.527225 73.160701 
L 389.061196 75.02338 
L 389.239187 73.010043 
L 390.307129 83.32325 
L 390.48512 90.143953 
L 390.66311 91.513569 
L 390.8411 91.677916 
L 391.019091 89.308486 
L 391.723636 85.884446 
L 391.901627 88.760628 
L 392.079617 86.199452 
L 392.257608 86.719913 
L 392.791579 85.213327 
L 393.14756 78.433732 
L 393.32555 88.431933 
L 393.503541 87.185577 
L 394.037512 89.144118 
L 394.215502 90.70548 
L 394.393493 85.774875 
L 394.571483 88.281274 
L 395.283445 90.267214 
L 395.461435 91.89706 
L 395.639426 90.787674 
L 395.817416 91.924437 
L 395.995407 90.883537 
L 396.529378 92.431209 
L 396.707368 90.760276 
L 396.885359 93.34885 
L 397.063349 83.405445 
L 397.24134 81.337311 
L 397.775311 86.62403 
L 398.131292 93.047532 
L 398.309282 94.362373 
L 398.487273 97.156381 
L 398.487273 97.156381 
" clip-path="url(#p474ccb7fff)" style="fill: none; stroke: #1f77b4; stroke-width: 1.5; stroke-linecap: square"/>
   </g>
   <g id="patch_3">
    <path d="M 57.6 276.48 
L 57.6 41.472 
" style="fill: none; stroke: #000000; stroke-width: 0.8; stroke-linejoin: miter; stroke-linecap: square"/>
   </g>
   <g id="patch_4">
    <path d="M 414.72 276.48 
L 414.72 41.472 
" style="fill: none; stroke: #000000; stroke-width: 0.8; stroke-linejoin: miter; stroke-linecap: square"/>
   </g>
   <g id="patch_5">
    <path d="M 57.6 276.48 
L 414.72 276.48 
" style="fill: none; stroke: #000000; stroke-width: 0.8; stroke-linejoin: miter; stroke-linecap: square"/>
   </g>
   <g id="patch_6">
    <path d="M 57.6 41.472 
L 414.72 41.472 
" style="fill: none; stroke: #000000; stroke-width: 0.8; stroke-linejoin: miter; stroke-linecap: square"/>
   </g>
   <g id="text_16">
    <!-- AAPL Stock Prices -->
    <g transform="translate(182.642812 35.472) scale(0.12 -0.12)">
     <defs>
      <path id="DejaVuSans-41" d="M 2188 4044 
L 1331 1722 
L 3047 1722 
L 2188 4044 
z
M 1831 4666 
L 2547 4666 
L 4325 0 
L 3669 0 
L 3244 1197 
L 1141 1197 
L 716 0 
L 50 0 
L 1831 4666 
z
" transform="scale(0.015625)"/>
      <path id="DejaVuSans-50" d="M 1259 4147 
L 1259 2394 
L 2053 2394 
Q 2494 2394 2734 2622 
Q 2975 2850 2975 3272 
Q 2975 3691 2734 3919 
Q 2494 4147 2053 4147 
L 1259 4147 
z
M 628 4666 
L 2053 4666 
Q 2838 4666 3239 4311 
Q 3641 3956 3641 3272 
Q 3641 2581 3239 2228 
Q 2838 1875 2053 1875 
L 1259 1875 
L 1259 0 
L 628 0 
L 628 4666 
z
" transform="scale(0.015625)"/>
      <path id="DejaVuSans-4c" d="M 628 4666 
L 1259 4666 
L 1259 531 
L 3531 531 
L 3531 0 
L 628 0 
L 628 4666 
z
" transform="scale(0.015625)"/>
      <path id="DejaVuSans-20" transform="scale(0.015625)"/>
      <path id="DejaVuSans-53" d="M 3425 4513 
L 3425 3897 
Q 3066 4069 2747 4153 
Q 2428 4238 2131 4238 
Q 1616 4238 1336 4038 
Q 1056 3838 1056 3469 
Q 1056 3159 1242 3001 
Q 1428 2844 1947 2747 
L 2328 2669 
Q 3034 2534 3370 2195 
Q 3706 1856 3706 1288 
Q 3706 609 3251 259 
Q 2797 -91 1919 -91 
Q 1588 -91 1214 -16 
Q 841 59 441 206 
L 441 856 
Q 825 641 1194 531 
Q 1563 422 1919 422 
Q 2459 422 2753 634 
Q 3047 847 3047 1241 
Q 3047 1584 2836 1778 
Q 2625 1972 2144 2069 
L 1759 2144 
Q 1053 2284 737 2584 
Q 422 2884 422 3419 
Q 422 4038 858 4394 
Q 1294 4750 2059 4750 
Q 2388 4750 2728 4690 
Q 3069 4631 3425 4513 
z
" transform="scale(0.015625)"/>
      <path id="DejaVuSans-6f" d="M 1959 3097 
Q 1497 3097 1228 2736 
Q 959 2375 959 1747 
Q 959 1119 1226 758 
Q 1494 397 1959 397 
Q 2419 397 2687 759 
Q 2956 1122 2956 1747 
Q 2956 2369 2687 2733 
Q 2419 3097 1959 3097 
z
M 1959 3584 
Q 2709 3584 3137 3096 
Q 3566 2609 3566 1747 
Q 3566 888 3137 398 
Q 2709 -91 1959 -91 
Q 1206 -91 779 398 
Q 353 888 353 1747 
Q 353 2609 779 3096 
Q 1206 3584 1959 3584 
z
" transform="scale(0.015625)"/>
      <path id="DejaVuSans-63" d="M 3122 3366 
L 3122 2828 
Q 2878 2963 2633 3030 
Q 2388 3097 2138 3097 
Q 1578 3097 1268 2742 
Q 959 2388 959 1747 
Q 959 1106 1268 751 
Q 1578 397 2138 397 
Q 2388 397 2633 464 
Q 2878 531 3122 666 
L 3122 134 
Q 2881 22 2623 -34 
Q 2366 -91 2075 -91 
Q 1284 -91 818 406 
Q 353 903 353 1747 
Q 353 2603 823 3093 
Q 1294 3584 2113 3584 
Q 2378 3584 2631 3529 
Q 2884 3475 3122 3366 
z
" transform="scale(0.015625)"/>
      <path id="DejaVuSans-6b" d="M 581 4863 
L 1159 4863 
L 1159 1991 
L 2875 3500 
L 3609 3500 
L 1753 1863 
L 3688 0 
L 2938 0 
L 1159 1709 
L 1159 0 
L 581 0 
L 581 4863 
z
" transform="scale(0.015625)"/>
      <path id="DejaVuSans-72" d="M 2631 2963 
Q 2534 3019 2420 3045 
Q 2306 3072 2169 3072 
Q 1681 3072 1420 2755 
Q 1159 2438 1159 1844 
L 1159 0 
L 581 0 
L 581 3500 
L 1159 3500 
L 1159 2956 
Q 1341 3275 1631 3429 
Q 1922 3584 2338 3584 
Q 2397 3584 2469 3576 
Q 2541 3569 2628 3553 
L 2631 2963 
z
" transform="scale(0.015625)"/>
      <path id="DejaVuSans-69" d="M 603 3500 
L 1178 3500 
L 1178 0 
L 603 0 
L 603 3500 
z
M 603 4863 
L 1178 4863 
L 1178 4134 
L 603 4134 
L 603 4863 
z
" transform="scale(0.015625)"/>
      <path id="DejaVuSans-73" d="M 2834 3397 
L 2834 2853 
Q 2591 2978 2328 3040 
Q 2066 3103 1784 3103 
Q 1356 3103 1142 2972 
Q 928 2841 928 2578 
Q 928 2378 1081 2264 
Q 1234 2150 1697 2047 
L 1894 2003 
Q 2506 1872 2764 1633 
Q 3022 1394 3022 966 
Q 3022 478 2636 193 
Q 2250 -91 1575 -91 
Q 1294 -91 989 -36 
Q 684 19 347 128 
L 347 722 
Q 666 556 975 473 
Q 1284 391 1588 391 
Q 1994 391 2212 530 
Q 2431 669 2431 922 
Q 2431 1156 2273 1281 
Q 2116 1406 1581 1522 
L 1381 1569 
Q 847 1681 609 1914 
Q 372 2147 372 2553 
Q 372 3047 722 3315 
Q 1072 3584 1716 3584 
Q 2034 3584 2315 3537 
Q 2597 3491 2834 3397 
z
" transform="scale(0.015625)"/>
     </defs>
     <use xlink:href="#DejaVuSans-41"/>
     <use xlink:href="#DejaVuSans-41" x="71.158203"/>
     <use xlink:href="#DejaVuSans-50" x="139.566406"/>
     <use xlink:href="#DejaVuSans-4c" x="199.869141"/>
     <use xlink:href="#DejaVuSans-20" x="255.582031"/>
     <use xlink:href="#DejaVuSans-53" x="287.369141"/>
     <use xlink:href="#DejaVuSans-74" x="350.845703"/>
     <use xlink:href="#DejaVuSans-6f" x="390.054688"/>
     <use xlink:href="#DejaVuSans-63" x="451.236328"/>
     <use xlink:href="#DejaVuSans-6b" x="506.216797"/>
     <use xlink:href="#DejaVuSans-20" x="564.126953"/>
     <use xlink:href="#DejaVuSans-50" x="595.914062"/>
     <use xlink:href="#DejaVuSans-72" x="654.466797"/>
     <use xlink:href="#DejaVuSans-69" x="695.580078"/>
     <use xlink:href="#DejaVuSans-63" x="723.363281"/>
     <use xlink:href="#DejaVuSans-65" x="778.34375"/>
     <use xlink:href="#DejaVuSans-73" x="839.867188"/>
    </g>
   </g>
  </g>
 </g>
 <defs>
  <clipPath id="p474ccb7fff">
   <rect x="57.6" y="41.472" width="357.12" height="235.008"/>
  </clipPath>
 </defs>
</svg>
