<?xml version="1.0" encoding="utf-8" standalone="no"?>
<!DOCTYPE svg PUBLIC "-//W3C//DTD SVG 1.1//EN"
  "http://www.w3.org/Graphics/SVG/1.1/DTD/svg11.dtd">
<svg xmlns:xlink="http://www.w3.org/1999/xlink" width="460.8pt" height="345.6pt" viewBox="0 0 460.8 345.6" xmlns="http://www.w3.org/2000/svg" version="1.1">
 <metadata>
  <rdf:RDF xmlns:dc="http://purl.org/dc/elements/1.1/" xmlns:cc="http://creativecommons.org/ns#" xmlns:rdf="http://www.w3.org/1999/02/22-rdf-syntax-ns#">
   <cc:Work>
    <dc:type rdf:resource="http://purl.org/dc/dcmitype/StillImage"/>
    <dc:date>2024-04-20T21:16:31.234990</dc:date>
    <dc:format>image/svg+xml</dc:format>
    <dc:creator>
     <cc:Agent>
      <dc:title>Matplotlib v3.8.3, https://matplotlib.org/</dc:title>
     </cc:Agent>
    </dc:creator>
   </cc:Work>
  </rdf:RDF>
 </metadata>
 <defs>
  <style type="text/css">*{stroke-linejoin: round; stroke-linecap: butt}</style>
 </defs>
 <g id="figure_1">
  <g id="patch_1">
   <path d="M 0 345.6 
L 460.8 345.6 
L 460.8 0 
L 0 0 
z
" style="fill: #ffffff"/>
  </g>
  <g id="axes_1">
   <g id="patch_2">
    <path d="M 57.6 307.584 
L 414.72 307.584 
L 414.72 41.472 
L 57.6 41.472 
z
" style="fill: #ffffff"/>
   </g>
   <g id="matplotlib.axis_1">
    <g id="xtick_1">
     <g id="line2d_1">
      <defs>
       <path id="meffcb8eb2c" d="M 0 0 
L 0 3.5 
" style="stroke: #000000; stroke-width: 0.8"/>
      </defs>
      <g>
       <use xlink:href="#meffcb8eb2c" x="73.832727" y="307.584" style="stroke: #000000; stroke-width: 0.8"/>
      </g>
     </g>
     <g id="text_1">
      <!-- 0 -->
      <g transform="translate(70.651477 322.182437) scale(0.1 -0.1)">
       <defs>
        <path id="DejaVuSans-30" d="M 2034 4250 
Q 1547 4250 1301 3770 
Q 1056 3291 1056 2328 
Q 1056 1369 1301 889 
Q 1547 409 2034 409 
Q 2525 409 2770 889 
Q 3016 1369 3016 2328 
Q 3016 3291 2770 3770 
Q 2525 4250 2034 4250 
z
M 2034 4750 
Q 2819 4750 3233 4129 
Q 3647 3509 3647 2328 
Q 3647 1150 3233 529 
Q 2819 -91 2034 -91 
Q 1250 -91 836 529 
Q 422 1150 422 2328 
Q 422 3509 836 4129 
Q 1250 4750 2034 4750 
z
" transform="scale(0.015625)"/>
       </defs>
       <use xlink:href="#DejaVuSans-30"/>
      </g>
     </g>
    </g>
    <g id="xtick_2">
     <g id="line2d_2">
      <g>
       <use xlink:href="#meffcb8eb2c" x="133.898323" y="307.584" style="stroke: #000000; stroke-width: 0.8"/>
      </g>
     </g>
     <g id="text_2">
      <!-- 200 -->
      <g transform="translate(124.354573 322.182437) scale(0.1 -0.1)">
       <defs>
        <path id="DejaVuSans-32" d="M 1228 531 
L 3431 531 
L 3431 0 
L 469 0 
L 469 531 
Q 828 903 1448 1529 
Q 2069 2156 2228 2338 
Q 2531 2678 2651 2914 
Q 2772 3150 2772 3378 
Q 2772 3750 2511 3984 
Q 2250 4219 1831 4219 
Q 1534 4219 1204 4116 
Q 875 4013 500 3803 
L 500 4441 
Q 881 4594 1212 4672 
Q 1544 4750 1819 4750 
Q 2544 4750 2975 4387 
Q 3406 4025 3406 3419 
Q 3406 3131 3298 2873 
Q 3191 2616 2906 2266 
Q 2828 2175 2409 1742 
Q 1991 1309 1228 531 
z
" transform="scale(0.015625)"/>
       </defs>
       <use xlink:href="#DejaVuSans-32"/>
       <use xlink:href="#DejaVuSans-30" x="63.623047"/>
       <use xlink:href="#DejaVuSans-30" x="127.246094"/>
      </g>
     </g>
    </g>
    <g id="xtick_3">
     <g id="line2d_3">
      <g>
       <use xlink:href="#meffcb8eb2c" x="193.963919" y="307.584" style="stroke: #000000; stroke-width: 0.8"/>
      </g>
     </g>
     <g id="text_3">
      <!-- 400 -->
      <g transform="translate(184.420169 322.182437) scale(0.1 -0.1)">
       <defs>
        <path id="DejaVuSans-34" d="M 2419 4116 
L 825 1625 
L 2419 1625 
L 2419 4116 
z
M 2253 4666 
L 3047 4666 
L 3047 1625 
L 3713 1625 
L 3713 1100 
L 3047 1100 
L 3047 0 
L 2419 0 
L 2419 1100 
L 313 1100 
L 313 1709 
L 2253 4666 
z
" transform="scale(0.015625)"/>
       </defs>
       <use xlink:href="#DejaVuSans-34"/>
       <use xlink:href="#DejaVuSans-30" x="63.623047"/>
       <use xlink:href="#DejaVuSans-30" x="127.246094"/>
      </g>
     </g>
    </g>
    <g id="xtick_4">
     <g id="line2d_4">
      <g>
       <use xlink:href="#meffcb8eb2c" x="254.029515" y="307.584" style="stroke: #000000; stroke-width: 0.8"/>
      </g>
     </g>
     <g id="text_4">
      <!-- 600 -->
      <g transform="translate(244.485765 322.182437) scale(0.1 -0.1)">
       <defs>
        <path id="DejaVuSans-36" d="M 2113 2584 
Q 1688 2584 1439 2293 
Q 1191 2003 1191 1497 
Q 1191 994 1439 701 
Q 1688 409 2113 409 
Q 2538 409 2786 701 
Q 3034 994 3034 1497 
Q 3034 2003 2786 2293 
Q 2538 2584 2113 2584 
z
M 3366 4563 
L 3366 3988 
Q 3128 4100 2886 4159 
Q 2644 4219 2406 4219 
Q 1781 4219 1451 3797 
Q 1122 3375 1075 2522 
Q 1259 2794 1537 2939 
Q 1816 3084 2150 3084 
Q 2853 3084 3261 2657 
Q 3669 2231 3669 1497 
Q 3669 778 3244 343 
Q 2819 -91 2113 -91 
Q 1303 -91 875 529 
Q 447 1150 447 2328 
Q 447 3434 972 4092 
Q 1497 4750 2381 4750 
Q 2619 4750 2861 4703 
Q 3103 4656 3366 4563 
z
" transform="scale(0.015625)"/>
       </defs>
       <use xlink:href="#DejaVuSans-36"/>
       <use xlink:href="#DejaVuSans-30" x="63.623047"/>
       <use xlink:href="#DejaVuSans-30" x="127.246094"/>
      </g>
     </g>
    </g>
    <g id="xtick_5">
     <g id="line2d_5">
      <g>
       <use xlink:href="#meffcb8eb2c" x="314.095111" y="307.584" style="stroke: #000000; stroke-width: 0.8"/>
      </g>
     </g>
     <g id="text_5">
      <!-- 800 -->
      <g transform="translate(304.551361 322.182437) scale(0.1 -0.1)">
       <defs>
        <path id="DejaVuSans-38" d="M 2034 2216 
Q 1584 2216 1326 1975 
Q 1069 1734 1069 1313 
Q 1069 891 1326 650 
Q 1584 409 2034 409 
Q 2484 409 2743 651 
Q 3003 894 3003 1313 
Q 3003 1734 2745 1975 
Q 2488 2216 2034 2216 
z
M 1403 2484 
Q 997 2584 770 2862 
Q 544 3141 544 3541 
Q 544 4100 942 4425 
Q 1341 4750 2034 4750 
Q 2731 4750 3128 4425 
Q 3525 4100 3525 3541 
Q 3525 3141 3298 2862 
Q 3072 2584 2669 2484 
Q 3125 2378 3379 2068 
Q 3634 1759 3634 1313 
Q 3634 634 3220 271 
Q 2806 -91 2034 -91 
Q 1263 -91 848 271 
Q 434 634 434 1313 
Q 434 1759 690 2068 
Q 947 2378 1403 2484 
z
M 1172 3481 
Q 1172 3119 1398 2916 
Q 1625 2713 2034 2713 
Q 2441 2713 2670 2916 
Q 2900 3119 2900 3481 
Q 2900 3844 2670 4047 
Q 2441 4250 2034 4250 
Q 1625 4250 1398 4047 
Q 1172 3844 1172 3481 
z
" transform="scale(0.015625)"/>
       </defs>
       <use xlink:href="#DejaVuSans-38"/>
       <use xlink:href="#DejaVuSans-30" x="63.623047"/>
       <use xlink:href="#DejaVuSans-30" x="127.246094"/>
      </g>
     </g>
    </g>
    <g id="xtick_6">
     <g id="line2d_6">
      <g>
       <use xlink:href="#meffcb8eb2c" x="374.160706" y="307.584" style="stroke: #000000; stroke-width: 0.8"/>
      </g>
     </g>
     <g id="text_6">
      <!-- 1000 -->
      <g transform="translate(361.435706 322.182437) scale(0.1 -0.1)">
       <defs>
        <path id="DejaVuSans-31" d="M 794 531 
L 1825 531 
L 1825 4091 
L 703 3866 
L 703 4441 
L 1819 4666 
L 2450 4666 
L 2450 531 
L 3481 531 
L 3481 0 
L 794 0 
L 794 531 
z
" transform="scale(0.015625)"/>
       </defs>
       <use xlink:href="#DejaVuSans-31"/>
       <use xlink:href="#DejaVuSans-30" x="63.623047"/>
       <use xlink:href="#DejaVuSans-30" x="127.246094"/>
       <use xlink:href="#DejaVuSans-30" x="190.869141"/>
      </g>
     </g>
    </g>
   </g>
   <g id="matplotlib.axis_2">
    <g id="ytick_1">
     <g id="line2d_7">
      <defs>
       <path id="m69d71cb9c4" d="M 0 0 
L -3.5 0 
" style="stroke: #000000; stroke-width: 0.8"/>
      </defs>
      <g>
       <use xlink:href="#m69d71cb9c4" x="57.6" y="286.542987" style="stroke: #000000; stroke-width: 0.8"/>
      </g>
     </g>
     <g id="text_7">
      <!-- 60 -->
      <g transform="translate(37.875 290.342206) scale(0.1 -0.1)">
       <use xlink:href="#DejaVuSans-36"/>
       <use xlink:href="#DejaVuSans-30" x="63.623047"/>
      </g>
     </g>
    </g>
    <g id="ytick_2">
     <g id="line2d_8">
      <g>
       <use xlink:href="#m69d71cb9c4" x="57.6" y="252.743602" style="stroke: #000000; stroke-width: 0.8"/>
      </g>
     </g>
     <g id="text_8">
      <!-- 80 -->
      <g transform="translate(37.875 256.542821) scale(0.1 -0.1)">
       <use xlink:href="#DejaVuSans-38"/>
       <use xlink:href="#DejaVuSans-30" x="63.623047"/>
      </g>
     </g>
    </g>
    <g id="ytick_3">
     <g id="line2d_9">
      <g>
       <use xlink:href="#m69d71cb9c4" x="57.6" y="218.944217" style="stroke: #000000; stroke-width: 0.8"/>
      </g>
     </g>
     <g id="text_9">
      <!-- 100 -->
      <g transform="translate(31.5125 222.743435) scale(0.1 -0.1)">
       <use xlink:href="#DejaVuSans-31"/>
       <use xlink:href="#DejaVuSans-30" x="63.623047"/>
       <use xlink:href="#DejaVuSans-30" x="127.246094"/>
      </g>
     </g>
    </g>
    <g id="ytick_4">
     <g id="line2d_10">
      <g>
       <use xlink:href="#m69d71cb9c4" x="57.6" y="185.144831" style="stroke: #000000; stroke-width: 0.8"/>
      </g>
     </g>
     <g id="text_10">
      <!-- 120 -->
      <g transform="translate(31.5125 188.94405) scale(0.1 -0.1)">
       <use xlink:href="#DejaVuSans-31"/>
       <use xlink:href="#DejaVuSans-32" x="63.623047"/>
       <use xlink:href="#DejaVuSans-30" x="127.246094"/>
      </g>
     </g>
    </g>
    <g id="ytick_5">
     <g id="line2d_11">
      <g>
       <use xlink:href="#m69d71cb9c4" x="57.6" y="151.345446" style="stroke: #000000; stroke-width: 0.8"/>
      </g>
     </g>
     <g id="text_11">
      <!-- 140 -->
      <g transform="translate(31.5125 155.144664) scale(0.1 -0.1)">
       <use xlink:href="#DejaVuSans-31"/>
       <use xlink:href="#DejaVuSans-34" x="63.623047"/>
       <use xlink:href="#DejaVuSans-30" x="127.246094"/>
      </g>
     </g>
    </g>
    <g id="ytick_6">
     <g id="line2d_12">
      <g>
       <use xlink:href="#m69d71cb9c4" x="57.6" y="117.54606" style="stroke: #000000; stroke-width: 0.8"/>
      </g>
     </g>
     <g id="text_12">
      <!-- 160 -->
      <g transform="translate(31.5125 121.345279) scale(0.1 -0.1)">
       <use xlink:href="#DejaVuSans-31"/>
       <use xlink:href="#DejaVuSans-36" x="63.623047"/>
       <use xlink:href="#DejaVuSans-30" x="127.246094"/>
      </g>
     </g>
    </g>
    <g id="ytick_7">
     <g id="line2d_13">
      <g>
       <use xlink:href="#m69d71cb9c4" x="57.6" y="83.746675" style="stroke: #000000; stroke-width: 0.8"/>
      </g>
     </g>
     <g id="text_13">
      <!-- 180 -->
      <g transform="translate(31.5125 87.545894) scale(0.1 -0.1)">
       <use xlink:href="#DejaVuSans-31"/>
       <use xlink:href="#DejaVuSans-38" x="63.623047"/>
       <use xlink:href="#DejaVuSans-30" x="127.246094"/>
      </g>
     </g>
    </g>
    <g id="ytick_8">
     <g id="line2d_14">
      <g>
       <use xlink:href="#m69d71cb9c4" x="57.6" y="49.947289" style="stroke: #000000; stroke-width: 0.8"/>
      </g>
     </g>
     <g id="text_14">
      <!-- 200 -->
      <g transform="translate(31.5125 53.746508) scale(0.1 -0.1)">
       <use xlink:href="#DejaVuSans-32"/>
       <use xlink:href="#DejaVuSans-30" x="63.623047"/>
       <use xlink:href="#DejaVuSans-30" x="127.246094"/>
      </g>
     </g>
    </g>
   </g>
   <g id="line2d_15">
    <path d="M 73.832727 267.227218 
L 74.133055 264.472973 
L 74.433383 265.673314 
L 74.733711 264.699059 
L 75.034039 265.278684 
L 75.634695 260.658113 
L 75.935023 260.370383 
L 76.235351 257.644902 
L 76.535679 259.404329 
L 76.836007 259.955175 
L 77.436663 256.917287 
L 77.736991 257.805219 
L 78.337647 256.711739 
L 78.637975 257.089917 
L 78.938303 260.937668 
L 79.538959 254.611114 
L 79.839287 254.804322 
L 80.139615 260.707443 
L 80.439943 261.056894 
L 80.740271 256.867982 
L 81.040599 255.799142 
L 81.340927 254.253489 
L 81.641255 256.070677 
L 81.941583 255.44434 
L 82.241911 256.24372 
L 82.542239 253.116197 
L 82.842567 254.07632 
L 83.142895 254.043338 
L 83.443223 256.495104 
L 83.743551 254.591374 
L 84.043879 255.959446 
L 84.344207 258.946818 
L 84.944863 269.235901 
L 85.24519 267.352775 
L 85.545518 275.235439 
L 85.845846 275.301337 
L 86.146174 264.814494 
L 86.446502 268.724933 
L 86.74683 263.195129 
L 87.047158 267.241517 
L 87.347486 268.844404 
L 87.647814 278.264018 
L 87.948142 270.364889 
L 88.24847 274.448371 
L 88.548798 285.656331 
L 88.849126 273.401759 
L 89.149454 288.13692 
L 89.449782 283.748514 
L 89.75011 286.299127 
L 90.050438 287.077923 
L 90.350766 293.481284 
L 90.651094 295.488 
L 90.951422 286.212606 
L 91.25175 286.773006 
L 91.552078 281.449233 
L 91.852406 285.858236 
L 92.152734 282.944995 
L 92.453062 283.159271 
L 92.75339 288.672591 
L 93.053718 287.016125 
L 93.354046 288.466547 
L 93.654374 279.788642 
L 93.954702 281.041285 
L 94.25503 278.305264 
L 94.555358 277.514097 
L 94.855686 275.34667 
L 95.156014 269.660314 
L 95.456342 270.739856 
L 95.75667 269.808627 
L 96.056998 271.41154 
L 96.357326 273.830311 
L 96.657654 277.357544 
L 96.957982 274.17231 
L 97.25831 274.613227 
L 97.558638 271.34149 
L 97.858966 271.259062 
L 98.159294 273.150401 
L 98.75995 266.878902 
L 99.060278 268.827926 
L 99.961261 264.06456 
L 100.261589 262.783094 
L 100.862245 257.787813 
L 101.462901 260.82877 
L 101.763229 260.047866 
L 102.063557 260.803963 
L 102.363885 257.808481 
L 102.664213 258.560427 
L 102.964541 256.04422 
L 103.264869 257.027551 
L 103.565197 256.18472 
L 103.865525 257.077165 
L 104.165853 256.507004 
L 104.466181 256.449139 
L 104.766509 256.577209 
L 105.066837 254.9617 
L 105.667493 253.61066 
L 105.967821 254.767511 
L 106.268149 250.974635 
L 106.568477 250.16481 
L 107.169133 242.157531 
L 107.469461 249.156659 
L 107.769789 247.95842 
L 108.070117 246.227243 
L 108.370445 242.471551 
L 108.670773 242.674017 
L 108.971101 242.6161 
L 109.271429 243.446618 
L 109.872085 236.501204 
L 110.172413 239.174414 
L 110.472741 237.199448 
L 110.773069 241.831082 
L 111.073397 238.463792 
L 111.373725 237.215978 
L 111.674053 237.501091 
L 111.974381 237.501091 
L 112.274709 233.476764 
L 112.575037 233.956051 
L 112.875365 230.369702 
L 113.175693 229.692113 
L 113.476021 229.415329 
L 113.776348 230.146619 
L 114.076676 227.535336 
L 114.377004 226.432186 
L 114.677332 228.419556 
L 114.97766 228.741814 
L 115.277988 225.386863 
L 115.578316 227.630387 
L 115.878644 227.180006 
L 116.178972 234.497292 
L 116.4793 234.877417 
L 116.779628 231.249795 
L 117.079956 233.823842 
L 117.680612 228.969061 
L 117.98094 212.326464 
L 118.281268 207.901434 
L 118.581596 206.699082 
L 118.881924 206.042136 
L 119.182252 199.695829 
L 119.48258 203.975729 
L 119.782908 201.301836 
L 120.083236 206.852488 
L 120.383564 200.834075 
L 120.683892 197.522781 
L 120.98422 197.692458 
L 121.284548 198.189152 
L 121.584876 196.608017 
L 121.885204 196.367967 
L 122.185532 192.117012 
L 122.48586 182.025727 
L 122.786188 179.562899 
L 123.086516 181.272389 
L 123.386844 178.461889 
L 123.687172 180.966092 
L 123.9875 181.301386 
L 124.588156 165.783626 
L 124.888484 170.386378 
L 125.188812 187.804 
L 125.48914 187.671546 
L 125.789468 201.148675 
L 126.089796 193.698186 
L 126.390124 200.039374 
L 126.690452 202.506328 
L 126.99078 196.943285 
L 127.291108 196.645279 
L 127.591436 202.291085 
L 127.891764 205.254772 
L 128.192091 211.049588 
L 128.492419 205.685206 
L 128.792747 202.82089 
L 129.093075 210.585978 
L 129.393403 208.764741 
L 129.994059 197.605531 
L 130.294387 199.045986 
L 130.594715 196.198263 
L 130.895043 194.575675 
L 131.195371 200.817545 
L 131.495699 195.05584 
L 131.796027 200.585747 
L 132.096355 197.406856 
L 132.396683 197.588989 
L 132.697011 194.277643 
L 132.997339 181.976061 
L 133.297667 187.439761 
L 133.597995 187.290725 
L 133.898323 188.085451 
L 134.198651 190.883522 
L 134.498979 195.916761 
L 134.799307 193.383599 
L 135.099635 194.443234 
L 135.700291 197.473102 
L 136.000619 197.456534 
L 136.300947 194.890262 
L 136.601275 203.830872 
L 136.901603 197.009467 
L 137.201931 207.705106 
L 137.502259 207.854128 
L 137.802587 205.089181 
L 138.403243 190.866954 
L 138.703571 191.090874 
L 139.003899 195.021582 
L 139.304227 195.602083 
L 139.604555 189.764074 
L 139.904883 190.22847 
L 140.205211 190.145501 
L 140.505539 188.420668 
L 140.805867 189.92991 
L 141.106195 192.185502 
L 141.406523 191.173818 
L 141.706851 193.329898 
L 142.007179 199.118138 
L 142.607834 195.502559 
L 142.908162 194.573805 
L 143.20849 190.493792 
L 143.508818 184.40703 
L 143.809146 183.809947 
L 144.109474 184.042158 
L 144.409802 185.186528 
L 144.71013 182.698752 
L 145.010458 181.65388 
L 145.310786 185.966053 
L 145.611114 183.5446 
L 146.21177 185.966053 
L 146.512098 175.849046 
L 146.812426 175.965151 
L 147.112754 174.489046 
L 147.413082 177.872427 
L 147.71341 175.268557 
L 148.013738 169.214906 
L 148.314066 170.740716 
L 148.614394 169.065677 
L 148.914722 161.237424 
L 149.515378 166.16326 
L 149.815706 167.871512 
L 150.116034 173.3115 
L 150.416362 170.657914 
L 150.71669 177.971964 
L 151.017018 170.807117 
L 151.317346 168.932978 
L 151.617674 174.024675 
L 151.918002 174.323197 
L 152.21833 170.856937 
L 152.818986 177.07636 
L 153.119314 175.931951 
L 154.020298 157.290096 
L 154.320626 150.904851 
L 154.620954 150.506779 
L 154.921282 152.331124 
L 155.521938 169.082232 
L 155.822266 165.466705 
L 156.122594 164.05691 
L 156.422922 165.79835 
L 156.72325 160.076446 
L 157.023577 160.782466 
L 157.323905 160.53321 
L 157.924561 163.057978 
L 158.224889 163.489882 
L 158.525217 163.091191 
L 159.125873 170.615546 
L 159.426201 172.492457 
L 159.726529 172.226737 
L 160.026857 178.654775 
L 160.327185 178.887347 
L 160.627513 179.734459 
L 160.927841 186.976409 
L 161.228169 186.527936 
L 161.528497 175.681612 
L 162.429481 188.404874 
L 162.729809 186.262203 
L 163.030137 194.666909 
L 163.330465 186.810316 
L 163.630793 188.654026 
L 163.931121 185.365232 
L 164.231449 186.909995 
L 164.531777 181.993429 
L 164.832105 179.369033 
L 165.132433 180.714464 
L 165.432761 187.740462 
L 165.733089 188.637394 
L 166.033417 182.990002 
L 166.333745 184.401859 
L 166.634073 188.471326 
L 167.234729 186.610996 
L 167.535057 186.31201 
L 167.835385 188.786919 
L 168.135713 185.049652 
L 168.436041 183.63782 
L 168.736369 178.820894 
L 169.036697 178.306007 
L 169.337025 175.498899 
L 169.937681 167.027765 
L 170.238009 169.951121 
L 170.538337 164.652535 
L 170.838665 168.63893 
L 171.138993 164.536288 
L 171.43932 165.101021 
L 171.739648 163.971504 
L 172.039976 166.845065 
L 172.340304 166.197273 
L 172.640632 168.788416 
L 172.94096 164.835235 
L 173.241288 164.170862 
L 173.541616 164.718988 
L 173.841944 166.064393 
L 174.142272 166.230486 
L 174.4426 169.585721 
L 174.742928 167.791857 
L 175.043256 175.581945 
L 175.343584 175.166699 
L 175.643912 172.442663 
L 175.94424 171.294566 
L 176.244568 176.885047 
L 176.544896 178.449022 
L 176.845224 183.67347 
L 177.44588 175.886772 
L 178.046536 180.212703 
L 178.346864 180.478901 
L 178.647192 176.119705 
L 178.94752 179.247667 
L 179.247848 176.469105 
L 179.548176 176.801858 
L 179.848504 176.885047 
L 180.148832 179.497245 
L 180.44916 180.612038 
L 180.749488 181.161106 
L 181.049816 179.863303 
L 181.350144 182.392313 
L 181.650472 178.482325 
L 181.9508 178.465706 
L 182.251128 177.068069 
L 182.551456 176.419194 
L 182.851784 178.11628 
L 183.152112 176.053162 
L 183.45244 170.84541 
L 183.752768 172.242995 
L 184.053096 171.394413 
L 184.353424 168.665774 
L 184.653752 170.878624 
L 185.254408 165.021984 
L 186.155391 166.469505 
L 186.756047 161.112022 
L 187.056375 160.063785 
L 187.356703 159.547996 
L 188.257687 147.402115 
L 188.558015 149.614965 
L 188.858343 146.503649 
L 189.158671 147.518569 
L 189.458999 145.621789 
L 189.759327 139.781807 
L 190.059655 140.896548 
L 190.359983 144.373936 
L 190.660311 150.9294 
L 190.960639 144.773297 
L 191.260967 146.021099 
L 191.861623 140.763437 
L 192.161951 140.048005 
L 192.762607 146.719923 
L 193.062935 145.621789 
L 193.363263 145.255744 
L 193.663591 145.821457 
L 193.963919 142.760012 
L 194.264247 143.442204 
L 194.564575 143.259143 
L 194.864903 144.425587 
L 195.165231 144.508904 
L 195.465559 145.325368 
L 195.765887 144.892123 
L 196.066215 139.843206 
L 196.366543 139.493304 
L 196.666871 136.127316 
L 196.967199 137.676979 
L 197.267527 144.059 
L 197.567855 143.492437 
L 198.168511 138.476785 
L 198.468839 138.626761 
L 199.069495 142.092725 
L 199.369823 140.326426 
L 199.670151 132.794722 
L 199.970479 134.944239 
L 200.270806 133.811138 
L 200.571134 131.911521 
L 200.871462 130.82842 
L 201.17179 126.845894 
L 201.772446 131.211665 
L 202.072774 139.709939 
L 202.373102 138.743472 
L 202.67343 141.12631 
L 202.973758 139.609963 
L 203.274086 140.009866 
L 203.874742 149.757799 
L 204.17507 148.941309 
L 204.475398 144.908781 
L 204.775726 143.275827 
L 205.076054 143.125876 
L 205.376382 145.708639 
L 205.67671 151.474096 
L 205.977038 149.941066 
L 206.277366 152.157294 
L 206.577694 150.241071 
L 206.878022 156.089794 
L 207.17835 152.807149 
L 207.478678 151.32412 
L 207.779006 149.174628 
L 208.079334 149.824432 
L 208.379662 149.974383 
L 208.67999 152.140662 
L 208.980318 153.140419 
L 209.280646 148.391403 
L 209.580974 146.591814 
L 210.18163 140.059816 
L 210.481958 139.226693 
L 210.782286 138.860081 
L 211.082614 140.176475 
L 211.382942 140.259767 
L 211.68327 139.126717 
L 211.983598 139.909839 
L 212.283926 133.711188 
L 212.584254 138.326885 
L 212.884582 139.726572 
L 213.18491 137.960247 
L 213.485238 135.510803 
L 213.785566 136.393926 
L 214.085894 135.492804 
L 214.386222 136.894527 
L 214.686549 136.277137 
L 214.986877 141.099801 
L 215.287205 141.183247 
L 215.587533 137.645467 
L 215.887861 137.628834 
L 216.188189 135.960088 
L 216.488517 131.804866 
L 216.788845 124.495755 
L 217.089173 120.023484 
L 217.990157 117.703953 
L 218.290485 126.264632 
L 218.590813 120.54082 
L 218.891141 112.09693 
L 219.191469 112.981395 
L 219.491797 114.666851 
L 219.792125 117.870846 
L 220.092453 112.063588 
L 220.693109 95.776592 
L 220.993437 96.64432 
L 221.293765 88.484138 
L 221.594093 94.675234 
L 221.894421 97.028107 
L 222.194749 88.734451 
L 222.495077 100.48244 
L 223.095733 104.67103 
L 223.696389 94.842101 
L 223.996717 93.774111 
L 224.297045 87.015678 
L 224.597373 88.751187 
L 224.897701 88.600953 
L 225.198029 90.570091 
L 225.498357 91.62137 
L 225.798685 84.212231 
L 226.099013 88.067009 
L 226.399341 96.043615 
L 226.699669 100.916356 
L 226.999997 100.632649 
L 227.300325 100.599281 
L 227.600653 95.776592 
L 227.900981 95.025678 
L 228.201309 100.599281 
L 228.501637 99.130743 
L 229.102292 110.545024 
L 230.303604 121.30847 
L 230.603932 121.458653 
L 230.90426 122.242935 
L 231.204588 103.703145 
L 231.504916 96.277244 
L 231.805244 96.560926 
L 232.105572 94.508315 
L 232.4059 99.414502 
L 232.706228 99.899012 
L 233.006556 101.118783 
L 233.306884 95.822106 
L 233.607212 93.399325 
L 234.207868 106.164761 
L 234.508196 105.763775 
L 234.808524 99.230668 
L 235.108852 99.631654 
L 235.40918 105.763775 
L 235.709508 108.403784 
L 236.009836 113.382948 
L 236.310164 120.48414 
L 236.91082 112.497401 
L 237.211148 112.046311 
L 237.511476 115.254354 
L 237.811804 109.640214 
L 238.112132 110.191641 
L 239.013116 124.878612 
L 239.313444 115.67205 
L 240.214428 136.273991 
L 240.815084 121.286216 
L 241.115412 119.565225 
L 241.41574 113.951085 
L 241.716068 111.611828 
L 242.016396 105.864008 
L 242.316724 103.541487 
L 242.617052 97.091955 
L 243.217708 94.53552 
L 243.518035 88.921355 
L 243.818363 90.909704 
L 244.118691 96.189646 
L 244.419019 96.690943 
L 244.719347 89.790192 
L 245.320003 100.834689 
L 245.620331 100.316708 
L 245.920659 103.742006 
L 246.220987 110.993639 
L 246.521315 107.802228 
L 246.821643 103.224102 
L 247.121971 111.762242 
L 247.422299 112.129783 
L 247.722627 108.236685 
L 248.022955 108.520754 
L 248.323283 109.874127 
L 248.623611 117.61027 
L 248.923939 115.788993 
L 249.224267 125.947917 
L 249.524595 126.332219 
L 249.824923 114.51917 
L 250.125251 124.527653 
L 250.425579 124.009723 
L 250.725907 121.470025 
L 251.026235 110.542497 
L 251.326563 125.998073 
L 251.626891 124.759812 
L 251.927219 133.494578 
L 252.227547 129.394927 
L 252.527875 142.798305 
L 252.828203 149.391238 
L 253.128531 141.777583 
L 253.428859 144.404699 
L 253.729187 138.213397 
L 254.029515 152.302835 
L 254.329843 158.109268 
L 254.630171 157.707689 
L 254.930499 148.470904 
L 255.230827 153.072522 
L 255.531155 152.804803 
L 255.831483 147.349768 
L 256.131811 137.544047 
L 256.432139 138.882722 
L 256.732467 139.100234 
L 257.032795 134.916931 
L 257.333123 144.672445 
L 257.633451 143.400739 
L 257.933778 139.100234 
L 258.234106 140.355282 
L 259.13509 167.262374 
L 259.435418 165.789866 
L 259.735746 161.322082 
L 260.036074 170.307883 
L 260.336402 167.797891 
L 260.63673 160.585841 
L 260.937058 161.455942 
L 261.537714 150.897218 
L 261.838042 150.897218 
L 262.13837 157.958673 
L 262.438698 154.963423 
L 262.739026 159.163488 
L 264.240666 141.894733 
L 264.540994 145.525862 
L 264.841322 143.869235 
L 265.14165 144.488352 
L 265.441978 139.501865 
L 265.742306 136.657185 
L 266.042634 141.844474 
L 266.342962 135.268329 
L 266.943618 127.989362 
L 267.844602 134.264316 
L 268.14493 125.579758 
L 268.445258 124.642662 
L 268.745586 116.008285 
L 269.045914 117.681648 
L 269.346242 120.19164 
L 269.64657 109.950843 
L 270.547554 111.676037 
L 270.847882 111.592204 
L 271.14821 104.353361 
L 271.448538 105.610162 
L 271.748866 99.561049 
L 272.049194 97.734564 
L 272.349521 98.002722 
L 272.649849 95.4557 
L 272.950177 96.125952 
L 273.250505 100.532931 
L 273.550833 107.15178 
L 273.851161 107.721463 
L 274.151489 107.218774 
L 274.451817 103.029643 
L 274.752145 113.770602 
L 275.653129 124.494749 
L 275.953457 123.254761 
L 276.253785 126.857446 
L 276.554113 129.002296 
L 276.854441 126.606102 
L 277.154769 129.119601 
L 277.455097 124.24343 
L 277.755425 114.088993 
L 278.055753 130.158477 
L 278.356081 127.695288 
L 278.656409 132.621718 
L 278.956737 135.420085 
L 279.557393 125.031013 
L 279.857721 130.359563 
L 280.158049 132.001724 
L 280.458377 135.87249 
L 280.758705 135.302754 
L 281.059033 133.643832 
L 281.359361 136.861133 
L 281.659689 149.193943 
L 281.960017 156.365714 
L 282.560673 143.128042 
L 282.861001 142.625379 
L 283.161329 144.250777 
L 283.461657 153.198749 
L 283.761985 152.645775 
L 284.062313 155.058705 
L 284.362641 156.13113 
L 284.662969 148.339314 
L 284.963297 156.06411 
L 285.263625 149.311221 
L 285.563953 147.065803 
L 285.864281 146.881504 
L 286.164609 147.669087 
L 286.464937 141.167543 
L 287.065592 132.672002 
L 287.36592 137.682162 
L 287.666248 145.306415 
L 287.966576 126.974751 
L 288.567232 135.50384 
L 289.167888 155.226243 
L 289.468216 155.679447 
L 290.068872 153.799583 
L 290.3692 161.570771 
L 290.669528 141.429563 
L 290.969856 136.679568 
L 291.270184 139.062946 
L 291.570512 136.10893 
L 291.87084 138.206976 
L 292.171168 134.967576 
L 292.471496 134.010883 
L 292.771824 139.516151 
L 293.072152 135.87396 
L 293.37248 134.3801 
L 294.273464 150.996601 
L 294.573792 139.482602 
L 294.87412 139.01261 
L 295.174448 139.851819 
L 295.474776 141.832354 
L 295.775104 148.076107 
L 296.075432 151.38263 
L 296.37576 148.512576 
L 296.676088 149.334971 
L 296.976416 145.424235 
L 297.276744 143.779316 
L 297.577072 147.572592 
L 297.8774 158.834937 
L 298.478056 165.766864 
L 298.778384 165.884323 
L 299.078712 160.59729 
L 299.37904 166.001808 
L 299.679368 166.622885 
L 299.979696 169.694387 
L 300.280024 176.391344 
L 300.580352 170.399349 
L 300.88068 169.862208 
L 301.181007 178.019412 
L 301.481335 175.854229 
L 301.781663 178.103335 
L 302.081991 170.382562 
L 302.682647 168.519485 
L 302.982975 163.887 
L 303.283303 164.021272 
L 303.883959 159.774843 
L 304.184287 161.000081 
L 304.484615 160.899383 
L 305.385599 148.713971 
L 305.685927 149.838486 
L 306.286583 143.007282 
L 306.586911 147.925073 
L 307.187567 143.846516 
L 307.788223 128.623126 
L 308.088551 133.272398 
L 308.388879 128.371369 
L 308.689207 132.953492 
L 308.989535 134.715845 
L 309.289863 134.093865 
L 309.590191 129.31981 
L 309.890519 130.412452 
L 310.190847 126.831969 
L 310.791503 131.505094 
L 311.091831 138.346767 
L 311.692487 136.80025 
L 311.992815 141.322109 
L 312.293143 139.288117 
L 312.593471 140.145454 
L 312.893799 143.675524 
L 313.194127 142.666895 
L 313.494455 134.060213 
L 313.794783 129.353411 
L 314.095111 133.102024 
L 314.395439 130.96718 
L 314.996095 138.313141 
L 315.59675 131.437893 
L 315.897078 130.765449 
L 316.197406 125.957819 
L 316.497734 127.386671 
L 317.09839 120.192001 
L 317.398718 122.629455 
L 317.999374 118.561445 
L 318.299702 121.873022 
L 318.60003 122.932038 
L 318.900358 117.687321 
L 319.200686 115.01451 
L 319.501014 110.744847 
L 319.801342 108.609925 
L 320.10167 109.517623 
L 320.401998 112.661147 
L 320.702326 111.148231 
L 321.002654 115.569238 
L 321.302982 117.636882 
L 321.60331 118.813537 
L 321.903638 109.63534 
L 322.203966 110.223694 
L 322.504294 110.190068 
L 323.10495 106.155684 
L 323.405278 107.803053 
L 323.705606 110.543064 
L 324.005934 110.021963 
L 324.306262 112.644334 
L 324.60659 112.661147 
L 324.906918 104.844498 
L 325.207246 102.709628 
L 325.507574 102.860919 
L 326.10823 106.458267 
L 326.408558 109.248717 
L 326.708886 96.170538 
L 327.009214 96.288229 
L 327.309542 99.196345 
L 327.60987 96.187351 
L 327.910198 95.868006 
L 328.210526 97.450315 
L 328.510854 98.291948 
L 328.811182 98.291948 
L 329.11151 97.248301 
L 329.411838 93.275676 
L 329.712166 93.090475 
L 330.012493 94.706488 
L 330.312821 99.150445 
L 330.613149 98.679138 
L 330.913477 96.743316 
L 331.514133 89.488202 
L 331.814461 89.572345 
L 332.114789 84.79174 
L 332.415117 83.34409 
L 332.715445 85.650237 
L 333.015773 86.273042 
L 333.316101 88.612866 
L 333.616429 83.983734 
L 333.916757 83.327225 
L 334.217085 78.563434 
L 334.517413 79.37144 
L 334.817741 78.294115 
L 335.118069 74.82645 
L 335.418397 76.66129 
L 335.718725 76.509792 
L 336.019053 78.277251 
L 336.319381 73.159998 
L 336.619709 73.69866 
L 336.920037 76.072111 
L 337.220365 71.375675 
L 337.520693 69.372498 
L 337.821021 68.800184 
L 338.121349 61.427224 
L 338.722005 65.871181 
L 339.022333 65.0632 
L 339.322661 66.96537 
L 339.622989 70.449822 
L 339.923317 71.341997 
L 340.223645 68.497162 
L 340.523973 67.20101 
L 340.824301 66.948505 
L 341.124629 61.393572 
L 341.424957 61.831227 
L 341.725285 59.525054 
L 342.025613 62.841196 
L 342.325941 64.844347 
L 343.226925 60.535049 
L 343.527253 62.689724 
L 343.827581 58.296232 
L 344.127909 57.252585 
L 344.428236 58.666583 
L 344.728564 63.767022 
L 345.028892 66.140525 
L 345.32922 81.593393 
L 345.629548 86.879059 
L 345.929876 85.279911 
L 346.230204 87.990036 
L 346.530532 88.360361 
L 346.83086 88.259225 
L 347.131188 85.444277 
L 347.431516 88.832338 
L 347.731844 90.315652 
L 348.032172 94.647616 
L 348.3325 93.821688 
L 348.933156 89.20318 
L 349.233484 82.646194 
L 349.533812 90.635925 
L 350.134468 84.213804 
L 350.735124 71.639268 
L 351.035452 71.268427 
L 351.33578 68.588319 
L 351.636108 68.1838 
L 352.236764 88.646905 
L 352.537092 87.601866 
L 352.83742 85.612846 
L 353.438076 94.293665 
L 353.738404 91.714667 
L 354.038732 92.945218 
L 354.33906 87.955816 
L 354.639388 86.101662 
L 354.939716 92.136102 
L 355.240044 94.765617 
L 355.540372 93.316033 
L 355.8407 91.141605 
L 356.141028 98.086246 
L 356.441356 100.665243 
L 356.741684 100.226944 
L 357.042012 99.350448 
L 357.34234 95.069025 
L 357.642668 97.344589 
L 358.243324 93.113735 
L 358.543652 88.76488 
L 358.843979 86.236502 
L 359.144307 87.247863 
L 359.744963 83.337282 
L 360.045291 86.472503 
L 360.345619 86.691614 
L 360.946275 91.54615 
L 361.246603 92.186645 
L 361.546931 96.5355 
L 361.847259 96.333227 
L 362.147587 95.591571 
L 362.447915 99.53583 
L 362.748243 106.6322 
L 363.048571 104.390365 
L 363.348899 100.901219 
L 363.649227 100.092104 
L 364.249883 88.63004 
L 364.550211 90.180812 
L 365.150867 81.466289 
L 365.451195 79.662703 
L 365.751523 80.471792 
L 366.051851 73.332332 
L 366.352179 76.032812 
L 366.652507 71.576993 
L 366.952835 70.614962 
L 367.253163 67.745629 
L 367.553491 67.77941 
L 367.853819 64.808864 
L 368.154147 66.175982 
L 368.454475 65.045149 
L 368.754803 67.306814 
L 369.055131 67.610635 
L 369.355459 66.581068 
L 369.655787 68.319516 
L 369.956115 67.340595 
L 370.256443 65.163279 
L 370.556771 68.218251 
L 370.857099 61.483852 
L 371.157427 63.34043 
L 371.758083 57.618759 
L 372.058411 61.888938 
L 372.358739 59.306562 
L 372.659067 53.821176 
L 372.959395 53.568 
L 373.259722 54.479412 
L 373.56005 57.314963 
L 373.860378 55.542734 
L 374.160706 59.104032 
L 374.461034 59.357233 
L 374.761362 61.18003 
L 375.06169 62.108333 
L 375.362018 61.939583 
L 375.662346 61.213811 
L 375.962674 62.986015 
L 376.263002 74.615075 
L 376.56333 76.961114 
L 376.863658 80.910607 
L 377.163986 82.142731 
L 377.464314 74.750095 
L 377.764642 75.458976 
L 378.06497 73.686773 
L 378.365298 74.699449 
L 378.665626 74.142479 
L 378.965954 78.007571 
L 379.266282 79.611 
L 379.56661 69.568478 
L 380.167266 60.690595 
L 380.467594 58.513306 
L 380.767922 59.661028 
L 381.06825 60.217999 
L 381.368578 63.171681 
L 381.668906 64.336268 
L 382.269562 76.707964 
L 382.56989 72.555915 
L 382.870218 74.260608 
L 383.470874 68.437646 
L 383.771202 68.25198 
L 384.07153 70.091694 
L 384.371858 68.790436 
L 385.272842 76.733313 
L 385.57317 77.223392 
L 385.873498 79.84285 
L 386.173826 81.110327 
L 386.474154 79.825934 
L 386.774482 76.361517 
L 387.375137 81.786304 
L 387.675465 79.302047 
L 387.975793 81.346921 
L 388.276121 82.479198 
L 388.576449 84.321258 
L 389.177105 100.443579 
L 389.477433 102.133549 
L 389.777761 102.336337 
L 390.378417 95.998952 
L 390.678745 95.187774 
L 390.979073 98.736694 
L 391.279401 95.57646 
L 391.579729 96.218656 
L 391.880057 94.35968 
L 392.480713 85.994337 
L 392.781041 98.331118 
L 393.081369 96.79324 
L 393.682025 101.136447 
L 393.982353 95.052573 
L 394.583009 100.59567 
L 394.883337 102.606738 
L 395.183665 101.237867 
L 395.483993 102.640519 
L 395.784321 101.356151 
L 396.084649 103.265825 
L 396.384977 101.20406 
L 396.685305 104.398101 
L 396.985633 92.128934 
L 397.285961 89.577064 
L 397.886617 101.69414 
L 398.487273 105.648688 
L 398.487273 105.648688 
" clip-path="url(#p6e3c3ab80b)" style="fill: none; stroke: #1f77b4; stroke-width: 1.5; stroke-linecap: square"/>
   </g>
   <g id="line2d_16">
    <path d="M 73.832727 268.555527 
L 74.133055 267.887891 
L 74.433383 266.04614 
L 74.733711 266.033273 
L 75.034039 265.449471 
L 75.334367 265.662973 
L 75.634695 264.626031 
L 75.935023 262.645572 
L 76.235351 261.615348 
L 76.535679 259.545215 
L 76.836007 259.845736 
L 77.136335 260.383521 
L 77.436663 259.860486 
L 77.736991 258.829474 
L 78.037319 258.848737 
L 78.637975 258.053418 
L 78.938303 258.131372 
L 79.238631 260.454409 
L 79.538959 259.342466 
L 79.839287 257.305457 
L 80.139615 256.379901 
L 80.439943 259.416152 
L 80.740271 261.02136 
L 81.641255 256.329939 
L 81.941583 256.628409 
L 82.241911 256.422436 
L 82.542239 257.054911 
L 82.842567 255.573738 
L 83.142895 255.556861 
L 83.443223 255.358018 
L 83.743551 256.752702 
L 84.043879 256.276573 
L 84.344207 256.969105 
L 84.644535 258.931655 
L 85.24519 267.695598 
L 85.545518 268.380279 
L 85.845846 273.157106 
L 86.146174 274.807595 
L 86.446502 269.049449 
L 86.74683 268.640249 
L 87.047158 264.882443 
L 87.347486 266.091525 
L 87.647814 267.798578 
L 87.948142 274.551145 
L 88.24847 272.793395 
L 88.548798 274.468304 
L 88.849126 281.249933 
L 89.149454 276.61122 
L 89.449782 283.580519 
L 89.75011 283.48122 
L 90.050438 285.187313 
L 90.350766 286.064422 
L 90.951422 293.095854 
L 91.25175 288.739605 
L 91.552078 286.863099 
L 91.852406 282.354978 
L 92.152734 283.418616 
L 92.453062 282.32611 
L 92.75339 282.576455 
L 93.053718 286.183718 
L 93.354046 286.788466 
L 93.654374 287.797784 
L 93.954702 282.604982 
L 94.25503 280.984992 
L 94.555358 278.437048 
L 95.156014 275.672604 
L 95.456342 271.909988 
L 96.056998 270.182292 
L 96.357326 270.992065 
L 96.657654 272.908275 
L 96.957982 276.021152 
L 97.25831 275.367467 
L 97.558638 275.170056 
L 97.858966 272.747662 
L 98.159294 271.550351 
L 98.459622 272.220139 
L 99.060278 268.41326 
L 99.360605 268.718629 
L 99.660933 267.858352 
L 100.561917 264.017486 
L 101.162573 259.719277 
L 101.462901 259.776046 
L 101.763229 260.869862 
L 102.063557 261.078052 
L 102.363885 261.67097 
L 102.664213 260.048575 
L 102.964541 259.737186 
L 103.264869 257.979577 
L 103.565197 257.896505 
L 103.865525 257.416547 
L 104.165853 257.907348 
L 104.766509 257.763483 
L 105.066837 257.783739 
L 105.667493 256.034769 
L 105.967821 255.244724 
L 106.268149 255.657159 
L 106.568477 253.637891 
L 106.868805 252.434946 
L 107.469461 245.976247 
L 107.769789 248.731717 
L 108.070117 249.259136 
L 108.370445 248.869252 
L 108.670773 246.488916 
L 109.271429 244.859017 
L 109.571757 245.184834 
L 110.172413 240.764795 
L 110.472741 241.280378 
L 110.773069 240.255478 
L 111.073397 242.720988 
L 111.674053 240.863494 
L 112.274709 240.222406 
L 112.575037 237.806381 
L 112.875365 237.201808 
L 113.175693 234.865619 
L 113.476021 233.656885 
L 113.776348 233.032211 
L 114.076676 233.271332 
L 114.677332 230.941874 
L 115.277988 231.995487 
L 115.578316 230.358923 
L 115.878644 231.006083 
L 116.178972 230.892879 
L 116.4793 235.116616 
L 116.779628 237.007052 
L 117.079956 235.854031 
L 117.380284 236.739462 
L 117.98094 233.352174 
L 118.281268 223.082805 
L 118.581596 216.763342 
L 118.881924 213.349056 
L 119.182252 211.970179 
L 119.48258 208.326119 
L 119.782908 209.653047 
L 120.083236 208.616466 
L 120.383564 211.478062 
L 120.98422 206.52025 
L 121.284548 205.41233 
L 121.584876 205.135804 
L 121.885204 204.238059 
L 122.185532 203.887577 
L 122.48586 201.478399 
L 122.786188 195.127192 
L 123.086516 191.387114 
L 123.386844 190.590879 
L 123.687172 188.876967 
L 123.9875 189.881198 
L 124.287828 190.456697 
L 124.588156 187.078667 
L 124.888484 181.379701 
L 125.188812 181.443459 
L 125.48914 190.290656 
L 125.789468 193.796705 
L 126.089796 203.141498 
L 126.390124 202.540212 
L 126.690452 205.981059 
L 126.99078 207.966894 
L 127.291108 205.60782 
L 127.591436 204.55578 
L 128.192091 209.700315 
L 128.492419 214.140442 
L 128.792747 212.999837 
L 129.093075 211.025142 
L 129.393403 214.240534 
L 129.693731 214.219814 
L 130.294387 207.009698 
L 130.594715 206.18319 
L 131.195371 202.800144 
L 131.495699 205.709137 
L 131.796027 203.708719 
L 132.096355 206.298328 
L 132.396683 205.236669 
L 132.697011 205.077049 
L 132.997339 203.057471 
L 133.297667 195.62524 
L 133.597995 195.765933 
L 133.898323 195.346097 
L 134.198651 196.020927 
L 134.498979 197.925288 
L 134.799307 201.477122 
L 135.099635 201.472867 
L 135.399963 202.139342 
L 136.000619 204.073384 
L 136.300947 204.486413 
L 136.601275 203.247495 
L 136.901603 207.650567 
L 137.201931 205.455806 
L 137.502259 210.826363 
L 137.802587 212.630014 
L 138.102915 212.121626 
L 139.003899 199.862657 
L 139.604555 202.07913 
L 139.904883 199.637795 
L 140.505539 198.615307 
L 140.805867 197.443821 
L 141.106195 197.834351 
L 141.406523 199.188291 
L 141.706851 199.265059 
L 142.007179 200.564253 
L 142.307507 204.098011 
L 142.607834 204.239039 
L 142.908162 203.688193 
L 143.20849 202.798507 
L 143.508818 200.106085 
L 143.809146 195.782424 
L 144.109474 193.79089 
L 144.409802 193.062707 
L 144.71013 193.559504 
L 145.310786 191.756279 
L 145.611114 193.679503 
L 145.911442 193.021087 
L 146.512098 194.357221 
L 146.812426 189.239157 
L 147.413082 185.672869 
L 147.71341 186.861206 
L 148.013738 185.984517 
L 148.314066 182.727543 
L 148.614394 182.296541 
L 148.914722 181.016725 
L 149.21505 176.542675 
L 149.515378 176.511885 
L 149.815706 177.249802 
L 150.116034 178.583461 
L 150.416362 182.052249 
L 150.71669 181.978318 
L 151.017018 185.957801 
L 151.617674 181.748892 
L 151.918002 183.449988 
L 152.21833 184.133882 
L 152.518658 182.803601 
L 152.818986 184.119248 
L 153.119314 185.999924 
L 153.419642 186.174372 
L 153.71997 182.68658 
L 154.620954 168.023732 
L 154.921282 166.053253 
L 155.22161 166.196602 
L 155.521938 170.590662 
L 155.822266 176.696828 
L 156.122594 177.372006 
L 156.422922 177.15492 
L 156.72325 177.680611 
L 157.023577 174.680101 
L 157.624233 173.410883 
L 158.525217 175.544219 
L 158.825545 175.582358 
L 159.125873 177.469068 
L 159.726529 182.158865 
L 160.026857 182.898162 
L 160.327185 186.559809 
L 160.927841 189.04493 
L 161.228169 193.242867 
L 161.528497 194.504245 
L 161.828825 189.392563 
L 162.129153 189.815197 
L 162.729809 194.932114 
L 163.030137 195.110211 
L 163.330465 199.834897 
L 163.630793 197.188338 
L 163.931121 197.422973 
L 164.231449 195.293144 
L 164.531777 195.349359 
L 165.132433 190.462409 
L 165.432761 190.248481 
L 165.733089 193.876825 
L 166.033417 195.836834 
L 166.333745 193.807303 
L 166.634073 193.843985 
L 166.934401 195.696541 
L 167.234729 195.923994 
L 167.835385 195.311555 
L 168.135713 196.492762 
L 168.736369 193.627169 
L 169.036697 190.434882 
L 169.337025 188.995883 
L 169.937681 183.980644 
L 170.238009 180.645755 
L 170.538337 180.925078 
L 170.838665 178.157578 
L 171.138993 179.445195 
L 171.43932 177.621095 
L 171.739648 177.455182 
L 172.039976 176.669056 
L 172.340304 177.890078 
L 172.640632 177.945558 
L 172.94096 179.443506 
L 173.241288 177.906968 
L 173.541616 177.086146 
L 173.841944 176.907224 
L 174.4426 177.82418 
L 174.742928 179.778877 
L 175.043256 179.568211 
L 175.343584 183.674025 
L 175.643912 184.833867 
L 176.244568 183.123965 
L 177.145552 190.745807 
L 177.44588 190.192046 
L 177.746208 187.94958 
L 178.046536 187.96308 
L 178.346864 188.954482 
L 178.647192 189.539909 
L 178.94752 187.607259 
L 179.247848 188.631759 
L 179.548176 187.334267 
L 180.148832 187.018493 
L 180.749488 189.519911 
L 181.049816 190.335305 
L 181.350144 189.9554 
L 181.650472 191.129516 
L 181.9508 189.388656 
L 182.251128 188.811391 
L 182.851784 186.988903 
L 183.152112 187.620514 
L 183.45244 186.7709 
L 183.752768 183.817026 
L 184.053096 183.432247 
L 184.353424 182.647449 
L 184.653752 181.012483 
L 184.95408 181.627887 
L 185.855063 177.812163 
L 186.155391 177.762072 
L 186.455719 178.047107 
L 187.056375 175.03449 
L 187.657031 172.949594 
L 188.558015 164.504854 
L 188.858343 164.419164 
L 189.158671 162.687575 
L 189.458999 162.748535 
L 189.759327 161.748159 
L 190.059655 158.542539 
L 190.359983 157.933995 
L 190.660311 159.199692 
L 190.960639 162.971179 
L 191.260967 161.383584 
L 191.561295 161.769742 
L 191.861623 160.449273 
L 192.161951 158.512188 
L 192.462279 157.367818 
L 192.762607 158.698189 
L 193.062935 160.661963 
L 193.363263 160.999024 
L 193.663591 161.084997 
L 193.963919 161.314629 
L 194.264247 159.806045 
L 194.864903 159.326409 
L 195.165231 159.852848 
L 195.465559 160.10458 
L 195.765887 160.663279 
L 196.066215 160.640612 
L 196.366543 158.134875 
L 196.666871 157.073925 
L 196.967199 154.813936 
L 197.267527 154.801945 
L 197.567855 157.854777 
L 197.868183 158.730655 
L 198.168511 158.099985 
L 198.468839 156.612314 
L 198.769167 156.017333 
L 199.369823 157.610395 
L 199.670151 157.167789 
L 199.970479 153.3864 
L 200.270806 153.097664 
L 201.17179 149.948235 
L 201.472118 147.651578 
L 201.772446 148.132503 
L 202.072774 148.972588 
L 202.373102 153.520905 
L 202.67343 154.710995 
L 202.973758 156.676704 
L 203.274086 156.547846 
L 203.574414 156.724745 
L 203.874742 158.924598 
L 204.17507 162.267016 
L 204.475398 163.230234 
L 205.076054 160.40131 
L 205.376382 159.60991 
L 205.67671 160.526015 
L 205.977038 163.748138 
L 206.277366 164.265758 
L 206.577694 165.847938 
L 206.878022 165.352881 
L 207.17835 168.152512 
L 207.779006 166.513214 
L 208.079334 165.009967 
L 208.379662 164.742454 
L 208.67999 164.640802 
L 209.280646 166.684155 
L 210.782286 156.847696 
L 211.082614 156.075946 
L 211.382942 156.482992 
L 211.68327 156.701794 
L 211.983598 156.293897 
L 212.283926 156.544262 
L 212.584254 153.502905 
L 213.18491 155.613974 
L 213.485238 155.227481 
L 213.785566 153.986177 
L 214.085894 153.935609 
L 214.386222 153.345992 
L 214.686549 153.858274 
L 214.986877 153.705152 
L 215.287205 156.100418 
L 215.587533 156.968817 
L 215.887861 155.702965 
L 216.188189 155.254712 
L 216.488517 154.094818 
L 216.788845 151.627245 
L 217.389501 143.355637 
L 217.689829 141.426572 
L 218.290485 139.518652 
L 218.590813 143.374926 
L 218.891141 141.924259 
L 219.191469 137.770585 
L 219.491797 136.587921 
L 219.792125 136.563037 
L 220.092453 138.064478 
L 220.392781 135.926565 
L 220.993437 125.913131 
L 221.293765 124.273807 
L 221.594093 119.656923 
L 222.194749 122.236772 
L 222.495077 119.119138 
L 222.795405 123.5903 
L 223.396061 127.707253 
L 223.696389 126.068471 
L 223.996717 123.613327 
L 224.297045 122.076945 
L 224.597373 118.2806 
L 225.198029 117.246907 
L 225.798685 118.789968 
L 226.099013 115.79165 
L 226.399341 116.60208 
L 226.999997 123.61227 
L 227.300325 125.00324 
L 227.600653 125.728729 
L 227.900981 123.765934 
L 228.201309 122.748874 
L 228.501637 124.721055 
L 228.801965 124.627139 
L 229.702948 133.842237 
L 230.003276 136.697541 
L 230.90426 141.414994 
L 231.204588 142.184939 
L 231.805244 127.415913 
L 232.4059 122.542991 
L 232.706228 124.101654 
L 233.006556 124.819638 
L 233.306884 125.869241 
L 233.90754 122.091102 
L 234.207868 124.420483 
L 234.508196 127.716201 
L 234.808524 128.923285 
L 235.108852 126.613064 
L 235.40918 126.068342 
L 236.310164 133.580603 
L 236.610492 138.188203 
L 236.91082 137.880308 
L 237.211148 136.405711 
L 237.511476 135.488033 
L 237.811804 136.471184 
L 238.112132 134.110394 
L 238.41246 133.758636 
L 238.712788 135.85119 
L 239.313444 142.624863 
L 239.613772 139.527213 
L 240.214428 145.669675 
L 240.514756 150.436097 
L 240.815084 148.725008 
L 241.716068 138.454376 
L 242.016396 135.93804 
L 242.316724 132.20152 
L 242.617052 129.87036 
L 242.91738 125.916302 
L 243.518035 122.464444 
L 243.818363 119.333555 
L 244.118691 119.176333 
L 244.419019 121.271182 
L 244.719347 122.240382 
L 245.019675 119.660327 
L 245.320003 121.443 
L 245.620331 124.172413 
L 245.920659 125.024283 
L 246.220987 127.138214 
L 246.521315 131.212413 
L 246.821643 131.23673 
L 247.121971 129.426981 
L 247.422299 132.675432 
L 247.722627 133.689939 
L 248.022955 132.549618 
L 248.323283 132.375453 
L 248.623611 132.786186 
L 248.923939 136.545192 
L 249.224267 137.007422 
L 249.524595 142.324549 
L 249.824923 144.28479 
L 250.125251 139.700217 
L 250.425579 142.95772 
L 250.725907 143.245734 
L 251.026235 142.481049 
L 251.326563 137.054483 
L 251.626891 142.537033 
L 251.927219 143.30396 
L 252.227547 148.419227 
L 252.527875 148.203933 
L 253.128531 160.499583 
L 253.428859 159.085431 
L 253.729187 160.139315 
L 254.029515 157.024775 
L 254.630171 167.766044 
L 254.930499 169.861331 
L 255.230827 166.186365 
L 255.531155 167.191847 
L 255.831483 166.87717 
L 256.131811 164.100258 
L 256.432139 158.270307 
L 256.732467 156.789263 
L 257.032795 156.045879 
L 257.333123 153.8034 
L 257.633451 157.958621 
L 257.933778 158.636249 
L 258.234106 157.169955 
L 258.534434 157.239244 
L 258.834762 161.441939 
L 259.435418 174.59472 
L 259.735746 176.757724 
L 260.036074 175.494231 
L 260.336402 179.473186 
L 260.63673 179.202372 
L 260.937058 175.635234 
L 261.237386 174.763457 
L 262.13837 166.283375 
L 262.438698 169.183111 
L 262.739026 168.755822 
L 263.039354 171.14655 
L 263.339682 169.974923 
L 263.940338 165.20569 
L 264.240666 161.301994 
L 264.540994 159.309416 
L 264.841322 160.284289 
L 265.14165 159.822523 
L 265.441978 160.186763 
L 266.042634 155.579626 
L 266.342962 157.159821 
L 267.243946 148.962918 
L 267.544274 148.866527 
L 267.844602 149.602742 
L 268.14493 151.076617 
L 268.445258 147.457918 
L 268.745586 145.912948 
L 269.045914 140.85565 
L 269.346242 139.876729 
L 269.64657 140.391693 
L 269.946898 135.776227 
L 270.247226 134.696376 
L 270.547554 134.121895 
L 270.847882 134.284611 
L 271.14821 134.3121 
L 271.448538 130.988196 
L 271.748866 130.489142 
L 272.049194 127.206446 
L 272.349521 125.303916 
L 272.649849 124.548076 
L 272.950177 123.054887 
L 273.250505 122.896736 
L 273.550833 124.768477 
L 273.851161 128.448652 
L 274.151489 130.127481 
L 274.451817 130.766093 
L 274.752145 129.071018 
L 275.352801 136.486063 
L 275.953457 142.638685 
L 276.253785 143.169404 
L 276.854441 146.787098 
L 277.154769 146.281572 
L 277.455097 147.421352 
L 277.755425 145.364745 
L 278.055753 139.875723 
L 278.356081 145.562969 
L 278.656409 145.849977 
L 279.257065 151.468294 
L 279.857721 146.803395 
L 280.458377 149.222721 
L 280.758705 151.701666 
L 281.059033 152.441388 
L 281.359361 152.043703 
L 281.659689 153.457598 
L 282.260345 165.867459 
L 282.560673 164.903132 
L 282.861001 161.788953 
L 283.161329 160.064481 
L 283.461657 159.893669 
L 283.761985 164.269213 
L 284.062313 165.674856 
L 284.362641 167.865426 
L 284.662969 169.200749 
L 284.963297 165.708792 
L 285.263625 168.341556 
L 285.864281 163.642463 
L 286.164609 162.711686 
L 286.464937 162.719602 
L 287.36592 153.005683 
L 287.666248 154.101213 
L 287.966576 158.09867 
L 288.266904 150.635971 
L 288.567232 150.499043 
L 288.86756 151.890142 
L 289.167888 157.088855 
L 289.468216 164.261245 
L 289.768544 167.482001 
L 290.068872 168.581038 
L 290.3692 168.398673 
L 290.669528 172.065027 
L 290.969856 162.90764 
L 291.270184 157.742656 
L 291.570512 156.382114 
L 291.87084 154.274758 
L 292.171168 154.818346 
L 292.471496 153.404657 
L 292.771824 152.607353 
L 293.072152 154.935032 
L 293.672808 152.936729 
L 293.973136 154.95383 
L 294.573792 162.896191 
L 294.87412 158.850151 
L 295.174448 157.415962 
L 295.474776 156.796458 
L 295.775104 157.466324 
L 296.37576 163.857706 
L 296.676088 163.780475 
L 296.976416 164.29959 
L 297.577072 160.715652 
L 297.8774 161.903602 
L 298.478056 172.004944 
L 298.778384 175.808045 
L 299.078712 177.327859 
L 299.37904 175.12798 
L 299.679368 176.98978 
L 299.979696 177.642498 
L 300.280024 179.680358 
L 300.580352 184.003594 
L 300.88068 182.573556 
L 301.181007 181.992849 
L 301.481335 185.737066 
L 301.781663 185.835636 
L 302.081991 187.369466 
L 302.382319 183.788957 
L 302.982975 180.628697 
L 303.283303 177.667988 
L 303.583631 176.715086 
L 304.184287 173.652468 
L 304.484615 173.714111 
L 304.784943 173.640412 
L 305.085271 171.428865 
L 305.685927 165.302597 
L 305.986255 164.746271 
L 306.586911 160.483106 
L 306.887239 162.108659 
L 307.187567 161.474663 
L 307.487895 160.512735 
L 308.088551 150.792291 
L 308.388879 151.076488 
L 308.689207 148.514304 
L 309.289863 151.44635 
L 309.590191 151.815257 
L 309.890519 149.680206 
L 310.190847 149.435617 
L 310.491175 147.351238 
L 310.791503 147.997973 
L 311.091831 149.04835 
L 311.392159 152.877187 
L 311.692487 153.96988 
L 311.992815 154.2278 
L 312.293143 156.495989 
L 312.593471 156.167438 
L 312.893799 156.627605 
L 313.194127 158.44344 
L 313.494455 158.599245 
L 314.095111 150.802425 
L 314.395439 150.990928 
L 314.695767 149.793771 
L 315.296423 153.762012 
L 315.59675 153.111821 
L 315.897078 151.295754 
L 316.197406 150.170492 
L 316.497734 147.226507 
L 316.798062 146.894371 
L 317.398718 142.475015 
L 317.699046 142.799982 
L 317.999374 141.89022 
L 318.299702 140.623053 
L 318.900358 142.519627 
L 320.10167 133.491973 
L 320.401998 133.044313 
L 320.702326 134.284043 
L 321.002654 134.050234 
L 321.60331 137.885904 
L 321.903638 139.159595 
L 322.203966 135.325215 
L 323.10495 132.382957 
L 323.405278 131.085 
L 323.705606 131.370641 
L 324.005934 132.678165 
L 324.306262 132.93428 
L 324.60659 134.373601 
L 324.906918 134.840524 
L 325.207246 131.437068 
L 325.507574 129.323627 
L 325.807902 128.347593 
L 326.10823 128.710956 
L 326.408558 129.699574 
L 326.708886 131.437326 
L 327.009214 126.048048 
L 327.309542 124.488096 
L 327.60987 124.732633 
L 327.910198 123.341379 
L 328.210526 122.883146 
L 328.811182 123.915962 
L 329.11151 124.155213 
L 329.411838 123.791205 
L 329.712166 121.84543 
L 330.012493 121.091396 
L 330.312821 121.396945 
L 330.613149 123.483671 
L 330.913477 124.034762 
L 331.213805 123.548344 
L 331.814461 119.342375 
L 332.114789 118.465569 
L 332.415117 115.861996 
L 332.715445 114.379328 
L 333.316101 115.062732 
L 333.616429 116.299677 
L 333.916757 114.673298 
L 334.217085 113.961941 
L 334.517413 111.42477 
L 334.817741 110.903746 
L 335.118069 110.035888 
L 335.418397 108.244576 
L 335.718725 108.447158 
L 336.019053 108.293778 
L 336.319381 109.07249 
L 336.619709 107.076121 
L 336.920037 106.755641 
L 337.220365 107.47378 
L 337.821021 104.283504 
L 338.121349 103.424621 
L 338.421677 99.862704 
L 338.722005 99.785988 
L 339.022333 100.243731 
L 339.322661 100.089629 
L 339.622989 100.954263 
L 339.923317 102.71347 
L 340.223645 103.732722 
L 341.124629 101.803941 
L 341.424957 99.201967 
L 341.725285 98.545381 
L 342.025613 97.114338 
L 342.626269 99.098716 
L 342.926597 98.973392 
L 343.226925 98.419283 
L 343.527253 97.577109 
L 343.827581 98.147902 
L 344.127909 96.375054 
L 344.428236 95.458897 
L 344.728564 95.596006 
L 345.32922 99.450501 
L 345.929876 111.797493 
L 346.83086 116.303287 
L 347.131188 116.608062 
L 347.431516 115.467818 
L 348.032172 117.557097 
L 348.3325 119.964715 
L 348.632828 120.466451 
L 348.933156 119.800994 
L 349.233484 118.517401 
L 349.533812 115.040349 
L 349.83414 117.373778 
L 350.434796 114.869278 
L 351.035452 107.579558 
L 351.936436 102.990524 
L 352.537092 112.999317 
L 352.83742 114.80396 
L 353.137748 114.979182 
L 353.738404 119.601043 
L 354.038732 119.358079 
L 354.33906 120.01549 
L 354.939716 116.445167 
L 355.540372 120.193909 
L 355.8407 120.362942 
L 356.141028 119.609991 
L 356.741684 124.4661 
L 357.042012 125.197209 
L 357.34234 125.183388 
L 357.642668 123.222295 
L 357.942996 123.575317 
L 358.543652 121.273606 
L 359.144307 116.835632 
L 359.444635 116.443955 
L 360.045291 114.032623 
L 360.345619 114.996176 
L 360.645947 115.33321 
L 362.147587 122.199665 
L 362.447915 122.279681 
L 362.748243 124.116868 
L 363.048571 127.946014 
L 363.348899 128.344705 
L 363.949555 126.386036 
L 364.550211 119.683019 
L 364.850539 118.931615 
L 365.751523 111.945226 
L 366.051851 111.510434 
L 366.352179 108.109453 
L 366.652507 108.238645 
L 366.952835 106.018807 
L 367.253163 104.963995 
L 367.553491 103.205535 
L 367.853819 102.587321 
L 368.154147 100.971437 
L 368.454475 101.027549 
L 368.754803 100.424239 
L 369.055131 101.234051 
L 369.355459 101.581271 
L 369.655787 101.334723 
L 369.956115 102.032387 
L 370.256443 101.790738 
L 370.556771 100.844076 
L 370.857099 101.822894 
L 371.157427 99.148743 
L 371.457755 99.213958 
L 372.058411 96.043228 
L 372.358739 97.235356 
L 372.659067 96.386941 
L 372.959395 93.962845 
L 373.259722 93.023326 
L 373.56005 92.855995 
L 373.860378 93.916687 
L 374.160706 93.531353 
L 374.461034 95.03607 
L 374.761362 95.571921 
L 375.362018 97.421589 
L 375.662346 97.67871 
L 375.962674 97.512952 
L 376.263002 98.219667 
L 376.56333 103.387849 
L 377.464314 111.06824 
L 377.764642 108.596593 
L 378.06497 108.185885 
L 378.365298 106.955593 
L 378.665626 106.978775 
L 378.965954 106.677868 
L 379.56661 109.550527 
L 380.467594 99.311148 
L 380.767922 97.106628 
L 381.06825 96.67578 
L 381.368578 96.650612 
L 381.969234 98.867459 
L 382.56989 105.65792 
L 382.870218 105.33646 
L 383.170546 106.288899 
L 384.07153 102.926727 
L 384.371858 103.366497 
L 384.672186 102.919868 
L 384.972514 104.108515 
L 385.57317 107.37218 
L 385.873498 108.204555 
L 386.474154 110.789097 
L 386.774482 110.686568 
L 387.07481 109.201218 
L 387.675465 111.186344 
L 387.975793 110.565654 
L 388.876777 113.192667 
L 389.777761 125.032225 
L 390.078089 126.487534 
L 390.378417 125.737986 
L 390.678745 123.910547 
L 390.979073 122.788302 
L 391.279401 123.866709 
L 391.579729 122.736831 
L 391.880057 122.846374 
L 392.180385 121.941693 
L 392.781041 117.103738 
L 393.081369 121.600455 
L 393.381697 122.162325 
L 393.982353 125.473361 
L 394.282681 123.273663 
L 394.583009 124.039971 
L 395.183665 126.504501 
L 395.483993 126.46283 
L 395.784321 127.226534 
L 396.084649 126.825986 
L 396.384977 127.619397 
L 396.685305 126.867116 
L 396.985633 128.163784 
L 397.285961 122.876003 
L 397.586289 120.14182 
L 397.886617 121.702854 
L 398.487273 126.885915 
L 398.487273 126.885915 
" clip-path="url(#p6e3c3ab80b)" style="fill: none; stroke: #ff7f0e; stroke-width: 1.5; stroke-linecap: square"/>
   </g>
   <g id="patch_3">
    <path d="M 57.6 307.584 
L 57.6 41.472 
" style="fill: none; stroke: #000000; stroke-width: 0.8; stroke-linejoin: miter; stroke-linecap: square"/>
   </g>
   <g id="patch_4">
    <path d="M 414.72 307.584 
L 414.72 41.472 
" style="fill: none; stroke: #000000; stroke-width: 0.8; stroke-linejoin: miter; stroke-linecap: square"/>
   </g>
   <g id="patch_5">
    <path d="M 57.6 307.584 
L 414.72 307.584 
" style="fill: none; stroke: #000000; stroke-width: 0.8; stroke-linejoin: miter; stroke-linecap: square"/>
   </g>
   <g id="patch_6">
    <path d="M 57.6 41.472 
L 414.72 41.472 
" style="fill: none; stroke: #000000; stroke-width: 0.8; stroke-linejoin: miter; stroke-linecap: square"/>
   </g>
   <g id="text_15">
    <!-- Prediction Adjustment -->
    <g transform="translate(170.0025 35.472) scale(0.12 -0.12)">
     <defs>
      <path id="DejaVuSans-50" d="M 1259 4147 
L 1259 2394 
L 2053 2394 
Q 2494 2394 2734 2622 
Q 2975 2850 2975 3272 
Q 2975 3691 2734 3919 
Q 2494 4147 2053 4147 
L 1259 4147 
z
M 628 4666 
L 2053 4666 
Q 2838 4666 3239 4311 
Q 3641 3956 3641 3272 
Q 3641 2581 3239 2228 
Q 2838 1875 2053 1875 
L 1259 1875 
L 1259 0 
L 628 0 
L 628 4666 
z
" transform="scale(0.015625)"/>
      <path id="DejaVuSans-72" d="M 2631 2963 
Q 2534 3019 2420 3045 
Q 2306 3072 2169 3072 
Q 1681 3072 1420 2755 
Q 1159 2438 1159 1844 
L 1159 0 
L 581 0 
L 581 3500 
L 1159 3500 
L 1159 2956 
Q 1341 3275 1631 3429 
Q 1922 3584 2338 3584 
Q 2397 3584 2469 3576 
Q 2541 3569 2628 3553 
L 2631 2963 
z
" transform="scale(0.015625)"/>
      <path id="DejaVuSans-65" d="M 3597 1894 
L 3597 1613 
L 953 1613 
Q 991 1019 1311 708 
Q 1631 397 2203 397 
Q 2534 397 2845 478 
Q 3156 559 3463 722 
L 3463 178 
Q 3153 47 2828 -22 
Q 2503 -91 2169 -91 
Q 1331 -91 842 396 
Q 353 884 353 1716 
Q 353 2575 817 3079 
Q 1281 3584 2069 3584 
Q 2775 3584 3186 3129 
Q 3597 2675 3597 1894 
z
M 3022 2063 
Q 3016 2534 2758 2815 
Q 2500 3097 2075 3097 
Q 1594 3097 1305 2825 
Q 1016 2553 972 2059 
L 3022 2063 
z
" transform="scale(0.015625)"/>
      <path id="DejaVuSans-64" d="M 2906 2969 
L 2906 4863 
L 3481 4863 
L 3481 0 
L 2906 0 
L 2906 525 
Q 2725 213 2448 61 
Q 2172 -91 1784 -91 
Q 1150 -91 751 415 
Q 353 922 353 1747 
Q 353 2572 751 3078 
Q 1150 3584 1784 3584 
Q 2172 3584 2448 3432 
Q 2725 3281 2906 2969 
z
M 947 1747 
Q 947 1113 1208 752 
Q 1469 391 1925 391 
Q 2381 391 2643 752 
Q 2906 1113 2906 1747 
Q 2906 2381 2643 2742 
Q 2381 3103 1925 3103 
Q 1469 3103 1208 2742 
Q 947 2381 947 1747 
z
" transform="scale(0.015625)"/>
      <path id="DejaVuSans-69" d="M 603 3500 
L 1178 3500 
L 1178 0 
L 603 0 
L 603 3500 
z
M 603 4863 
L 1178 4863 
L 1178 4134 
L 603 4134 
L 603 4863 
z
" transform="scale(0.015625)"/>
      <path id="DejaVuSans-63" d="M 3122 3366 
L 3122 2828 
Q 2878 2963 2633 3030 
Q 2388 3097 2138 3097 
Q 1578 3097 1268 2742 
Q 959 2388 959 1747 
Q 959 1106 1268 751 
Q 1578 397 2138 397 
Q 2388 397 2633 464 
Q 2878 531 3122 666 
L 3122 134 
Q 2881 22 2623 -34 
Q 2366 -91 2075 -91 
Q 1284 -91 818 406 
Q 353 903 353 1747 
Q 353 2603 823 3093 
Q 1294 3584 2113 3584 
Q 2378 3584 2631 3529 
Q 2884 3475 3122 3366 
z
" transform="scale(0.015625)"/>
      <path id="DejaVuSans-74" d="M 1172 4494 
L 1172 3500 
L 2356 3500 
L 2356 3053 
L 1172 3053 
L 1172 1153 
Q 1172 725 1289 603 
Q 1406 481 1766 481 
L 2356 481 
L 2356 0 
L 1766 0 
Q 1100 0 847 248 
Q 594 497 594 1153 
L 594 3053 
L 172 3053 
L 172 3500 
L 594 3500 
L 594 4494 
L 1172 4494 
z
" transform="scale(0.015625)"/>
      <path id="DejaVuSans-6f" d="M 1959 3097 
Q 1497 3097 1228 2736 
Q 959 2375 959 1747 
Q 959 1119 1226 758 
Q 1494 397 1959 397 
Q 2419 397 2687 759 
Q 2956 1122 2956 1747 
Q 2956 2369 2687 2733 
Q 2419 3097 1959 3097 
z
M 1959 3584 
Q 2709 3584 3137 3096 
Q 3566 2609 3566 1747 
Q 3566 888 3137 398 
Q 2709 -91 1959 -91 
Q 1206 -91 779 398 
Q 353 888 353 1747 
Q 353 2609 779 3096 
Q 1206 3584 1959 3584 
z
" transform="scale(0.015625)"/>
      <path id="DejaVuSans-6e" d="M 3513 2113 
L 3513 0 
L 2938 0 
L 2938 2094 
Q 2938 2591 2744 2837 
Q 2550 3084 2163 3084 
Q 1697 3084 1428 2787 
Q 1159 2491 1159 1978 
L 1159 0 
L 581 0 
L 581 3500 
L 1159 3500 
L 1159 2956 
Q 1366 3272 1645 3428 
Q 1925 3584 2291 3584 
Q 2894 3584 3203 3211 
Q 3513 2838 3513 2113 
z
" transform="scale(0.015625)"/>
      <path id="DejaVuSans-20" transform="scale(0.015625)"/>
      <path id="DejaVuSans-41" d="M 2188 4044 
L 1331 1722 
L 3047 1722 
L 2188 4044 
z
M 1831 4666 
L 2547 4666 
L 4325 0 
L 3669 0 
L 3244 1197 
L 1141 1197 
L 716 0 
L 50 0 
L 1831 4666 
z
" transform="scale(0.015625)"/>
      <path id="DejaVuSans-6a" d="M 603 3500 
L 1178 3500 
L 1178 -63 
Q 1178 -731 923 -1031 
Q 669 -1331 103 -1331 
L -116 -1331 
L -116 -844 
L 38 -844 
Q 366 -844 484 -692 
Q 603 -541 603 -63 
L 603 3500 
z
M 603 4863 
L 1178 4863 
L 1178 4134 
L 603 4134 
L 603 4863 
z
" transform="scale(0.015625)"/>
      <path id="DejaVuSans-75" d="M 544 1381 
L 544 3500 
L 1119 3500 
L 1119 1403 
Q 1119 906 1312 657 
Q 1506 409 1894 409 
Q 2359 409 2629 706 
Q 2900 1003 2900 1516 
L 2900 3500 
L 3475 3500 
L 3475 0 
L 2900 0 
L 2900 538 
Q 2691 219 2414 64 
Q 2138 -91 1772 -91 
Q 1169 -91 856 284 
Q 544 659 544 1381 
z
M 1991 3584 
L 1991 3584 
z
" transform="scale(0.015625)"/>
      <path id="DejaVuSans-73" d="M 2834 3397 
L 2834 2853 
Q 2591 2978 2328 3040 
Q 2066 3103 1784 3103 
Q 1356 3103 1142 2972 
Q 928 2841 928 2578 
Q 928 2378 1081 2264 
Q 1234 2150 1697 2047 
L 1894 2003 
Q 2506 1872 2764 1633 
Q 3022 1394 3022 966 
Q 3022 478 2636 193 
Q 2250 -91 1575 -91 
Q 1294 -91 989 -36 
Q 684 19 347 128 
L 347 722 
Q 666 556 975 473 
Q 1284 391 1588 391 
Q 1994 391 2212 530 
Q 2431 669 2431 922 
Q 2431 1156 2273 1281 
Q 2116 1406 1581 1522 
L 1381 1569 
Q 847 1681 609 1914 
Q 372 2147 372 2553 
Q 372 3047 722 3315 
Q 1072 3584 1716 3584 
Q 2034 3584 2315 3537 
Q 2597 3491 2834 3397 
z
" transform="scale(0.015625)"/>
      <path id="DejaVuSans-6d" d="M 3328 2828 
Q 3544 3216 3844 3400 
Q 4144 3584 4550 3584 
Q 5097 3584 5394 3201 
Q 5691 2819 5691 2113 
L 5691 0 
L 5113 0 
L 5113 2094 
Q 5113 2597 4934 2840 
Q 4756 3084 4391 3084 
Q 3944 3084 3684 2787 
Q 3425 2491 3425 1978 
L 3425 0 
L 2847 0 
L 2847 2094 
Q 2847 2600 2669 2842 
Q 2491 3084 2119 3084 
Q 1678 3084 1418 2786 
Q 1159 2488 1159 1978 
L 1159 0 
L 581 0 
L 581 3500 
L 1159 3500 
L 1159 2956 
Q 1356 3278 1631 3431 
Q 1906 3584 2284 3584 
Q 2666 3584 2933 3390 
Q 3200 3197 3328 2828 
z
" transform="scale(0.015625)"/>
     </defs>
     <use xlink:href="#DejaVuSans-50"/>
     <use xlink:href="#DejaVuSans-72" x="58.552734"/>
     <use xlink:href="#DejaVuSans-65" x="97.416016"/>
     <use xlink:href="#DejaVuSans-64" x="158.939453"/>
     <use xlink:href="#DejaVuSans-69" x="222.416016"/>
     <use xlink:href="#DejaVuSans-63" x="250.199219"/>
     <use xlink:href="#DejaVuSans-74" x="305.179688"/>
     <use xlink:href="#DejaVuSans-69" x="344.388672"/>
     <use xlink:href="#DejaVuSans-6f" x="372.171875"/>
     <use xlink:href="#DejaVuSans-6e" x="433.353516"/>
     <use xlink:href="#DejaVuSans-20" x="496.732422"/>
     <use xlink:href="#DejaVuSans-41" x="528.519531"/>
     <use xlink:href="#DejaVuSans-64" x="595.177734"/>
     <use xlink:href="#DejaVuSans-6a" x="658.654297"/>
     <use xlink:href="#DejaVuSans-75" x="686.4375"/>
     <use xlink:href="#DejaVuSans-73" x="749.816406"/>
     <use xlink:href="#DejaVuSans-74" x="801.916016"/>
     <use xlink:href="#DejaVuSans-6d" x="841.125"/>
     <use xlink:href="#DejaVuSans-65" x="938.537109"/>
     <use xlink:href="#DejaVuSans-6e" x="1000.060547"/>
     <use xlink:href="#DejaVuSans-74" x="1063.439453"/>
    </g>
   </g>
   <g id="legend_1">
    <g id="patch_7">
     <path d="M 64.6 78.82825 
L 152.826562 78.82825 
Q 154.826562 78.82825 154.826562 76.82825 
L 154.826562 48.472 
Q 154.826562 46.472 152.826562 46.472 
L 64.6 46.472 
Q 62.6 46.472 62.6 48.472 
L 62.6 76.82825 
Q 62.6 78.82825 64.6 78.82825 
z
" style="fill: #ffffff; opacity: 0.8; stroke: #cccccc; stroke-linejoin: miter"/>
    </g>
    <g id="line2d_17">
     <path d="M 66.6 54.570437 
L 76.6 54.570437 
L 86.6 54.570437 
" style="fill: none; stroke: #1f77b4; stroke-width: 1.5; stroke-linecap: square"/>
    </g>
    <g id="text_16">
     <!-- True Y -->
     <g transform="translate(94.6 58.070437) scale(0.1 -0.1)">
      <defs>
       <path id="DejaVuSans-54" d="M -19 4666 
L 3928 4666 
L 3928 4134 
L 2272 4134 
L 2272 0 
L 1638 0 
L 1638 4134 
L -19 4134 
L -19 4666 
z
" transform="scale(0.015625)"/>
       <path id="DejaVuSans-59" d="M -13 4666 
L 666 4666 
L 1959 2747 
L 3244 4666 
L 3922 4666 
L 2272 2222 
L 2272 0 
L 1638 0 
L 1638 2222 
L -13 4666 
z
" transform="scale(0.015625)"/>
      </defs>
      <use xlink:href="#DejaVuSans-54"/>
      <use xlink:href="#DejaVuSans-72" x="46.333984"/>
      <use xlink:href="#DejaVuSans-75" x="87.447266"/>
      <use xlink:href="#DejaVuSans-65" x="150.826172"/>
      <use xlink:href="#DejaVuSans-20" x="212.349609"/>
      <use xlink:href="#DejaVuSans-59" x="244.136719"/>
     </g>
    </g>
    <g id="line2d_18">
     <path d="M 66.6 69.248562 
L 76.6 69.248562 
L 86.6 69.248562 
" style="fill: none; stroke: #ff7f0e; stroke-width: 1.5; stroke-linecap: square"/>
    </g>
    <g id="text_17">
     <!-- Predicted Y -->
     <g transform="translate(94.6 72.748562) scale(0.1 -0.1)">
      <use xlink:href="#DejaVuSans-50"/>
      <use xlink:href="#DejaVuSans-72" x="58.552734"/>
      <use xlink:href="#DejaVuSans-65" x="97.416016"/>
      <use xlink:href="#DejaVuSans-64" x="158.939453"/>
      <use xlink:href="#DejaVuSans-69" x="222.416016"/>
      <use xlink:href="#DejaVuSans-63" x="250.199219"/>
      <use xlink:href="#DejaVuSans-74" x="305.179688"/>
      <use xlink:href="#DejaVuSans-65" x="344.388672"/>
      <use xlink:href="#DejaVuSans-64" x="405.912109"/>
      <use xlink:href="#DejaVuSans-20" x="469.388672"/>
      <use xlink:href="#DejaVuSans-59" x="501.175781"/>
     </g>
    </g>
   </g>
  </g>
 </g>
 <defs>
  <clipPath id="p6e3c3ab80b">
   <rect x="57.6" y="41.472" width="357.12" height="266.112"/>
  </clipPath>
 </defs>
</svg>
