<?xml version="1.0" encoding="utf-8" standalone="no"?>
<!DOCTYPE svg PUBLIC "-//W3C//DTD SVG 1.1//EN"
  "http://www.w3.org/Graphics/SVG/1.1/DTD/svg11.dtd">
<svg xmlns:xlink="http://www.w3.org/1999/xlink" width="460.8pt" height="345.6pt" viewBox="0 0 460.8 345.6" xmlns="http://www.w3.org/2000/svg" version="1.1">
 <metadata>
  <rdf:RDF xmlns:dc="http://purl.org/dc/elements/1.1/" xmlns:cc="http://creativecommons.org/ns#" xmlns:rdf="http://www.w3.org/1999/02/22-rdf-syntax-ns#">
   <cc:Work>
    <dc:type rdf:resource="http://purl.org/dc/dcmitype/StillImage"/>
    <dc:date>2024-04-20T15:45:13.210724</dc:date>
    <dc:format>image/svg+xml</dc:format>
    <dc:creator>
     <cc:Agent>
      <dc:title>Matplotlib v3.8.0, https://matplotlib.org/</dc:title>
     </cc:Agent>
    </dc:creator>
   </cc:Work>
  </rdf:RDF>
 </metadata>
 <defs>
  <style type="text/css">*{stroke-linejoin: round; stroke-linecap: butt}</style>
 </defs>
 <g id="figure_1">
  <g id="patch_1">
   <path d="M 0 345.6 
L 460.8 345.6 
L 460.8 0 
L 0 0 
z
" style="fill: #ffffff"/>
  </g>
  <g id="axes_1">
   <g id="patch_2">
    <path d="M 57.6 307.584 
L 414.72 307.584 
L 414.72 41.472 
L 57.6 41.472 
z
" style="fill: #ffffff"/>
   </g>
   <g id="matplotlib.axis_1">
    <g id="xtick_1">
     <g id="line2d_1">
      <defs>
       <path id="m50f131b413" d="M 0 0 
L 0 3.5 
" style="stroke: #000000; stroke-width: 0.8"/>
      </defs>
      <g>
       <use xlink:href="#m50f131b413" x="73.832727" y="307.584" style="stroke: #000000; stroke-width: 0.8"/>
      </g>
     </g>
     <g id="text_1">
      <!-- 0 -->
      <g transform="translate(70.651477 322.182437) scale(0.1 -0.1)">
       <defs>
        <path id="DejaVuSans-30" d="M 2034 4250 
Q 1547 4250 1301 3770 
Q 1056 3291 1056 2328 
Q 1056 1369 1301 889 
Q 1547 409 2034 409 
Q 2525 409 2770 889 
Q 3016 1369 3016 2328 
Q 3016 3291 2770 3770 
Q 2525 4250 2034 4250 
z
M 2034 4750 
Q 2819 4750 3233 4129 
Q 3647 3509 3647 2328 
Q 3647 1150 3233 529 
Q 2819 -91 2034 -91 
Q 1250 -91 836 529 
Q 422 1150 422 2328 
Q 422 3509 836 4129 
Q 1250 4750 2034 4750 
z
" transform="scale(0.015625)"/>
       </defs>
       <use xlink:href="#DejaVuSans-30"/>
      </g>
     </g>
    </g>
    <g id="xtick_2">
     <g id="line2d_2">
      <g>
       <use xlink:href="#m50f131b413" x="125.944211" y="307.584" style="stroke: #000000; stroke-width: 0.8"/>
      </g>
     </g>
     <g id="text_2">
      <!-- 100 -->
      <g transform="translate(116.400461 322.182437) scale(0.1 -0.1)">
       <defs>
        <path id="DejaVuSans-31" d="M 794 531 
L 1825 531 
L 1825 4091 
L 703 3866 
L 703 4441 
L 1819 4666 
L 2450 4666 
L 2450 531 
L 3481 531 
L 3481 0 
L 794 0 
L 794 531 
z
" transform="scale(0.015625)"/>
       </defs>
       <use xlink:href="#DejaVuSans-31"/>
       <use xlink:href="#DejaVuSans-30" x="63.623047"/>
       <use xlink:href="#DejaVuSans-30" x="127.246094"/>
      </g>
     </g>
    </g>
    <g id="xtick_3">
     <g id="line2d_3">
      <g>
       <use xlink:href="#m50f131b413" x="178.055695" y="307.584" style="stroke: #000000; stroke-width: 0.8"/>
      </g>
     </g>
     <g id="text_3">
      <!-- 200 -->
      <g transform="translate(168.511945 322.182437) scale(0.1 -0.1)">
       <defs>
        <path id="DejaVuSans-32" d="M 1228 531 
L 3431 531 
L 3431 0 
L 469 0 
L 469 531 
Q 828 903 1448 1529 
Q 2069 2156 2228 2338 
Q 2531 2678 2651 2914 
Q 2772 3150 2772 3378 
Q 2772 3750 2511 3984 
Q 2250 4219 1831 4219 
Q 1534 4219 1204 4116 
Q 875 4013 500 3803 
L 500 4441 
Q 881 4594 1212 4672 
Q 1544 4750 1819 4750 
Q 2544 4750 2975 4387 
Q 3406 4025 3406 3419 
Q 3406 3131 3298 2873 
Q 3191 2616 2906 2266 
Q 2828 2175 2409 1742 
Q 1991 1309 1228 531 
z
" transform="scale(0.015625)"/>
       </defs>
       <use xlink:href="#DejaVuSans-32"/>
       <use xlink:href="#DejaVuSans-30" x="63.623047"/>
       <use xlink:href="#DejaVuSans-30" x="127.246094"/>
      </g>
     </g>
    </g>
    <g id="xtick_4">
     <g id="line2d_4">
      <g>
       <use xlink:href="#m50f131b413" x="230.167179" y="307.584" style="stroke: #000000; stroke-width: 0.8"/>
      </g>
     </g>
     <g id="text_4">
      <!-- 300 -->
      <g transform="translate(220.623429 322.182437) scale(0.1 -0.1)">
       <defs>
        <path id="DejaVuSans-33" d="M 2597 2516 
Q 3050 2419 3304 2112 
Q 3559 1806 3559 1356 
Q 3559 666 3084 287 
Q 2609 -91 1734 -91 
Q 1441 -91 1130 -33 
Q 819 25 488 141 
L 488 750 
Q 750 597 1062 519 
Q 1375 441 1716 441 
Q 2309 441 2620 675 
Q 2931 909 2931 1356 
Q 2931 1769 2642 2001 
Q 2353 2234 1838 2234 
L 1294 2234 
L 1294 2753 
L 1863 2753 
Q 2328 2753 2575 2939 
Q 2822 3125 2822 3475 
Q 2822 3834 2567 4026 
Q 2313 4219 1838 4219 
Q 1578 4219 1281 4162 
Q 984 4106 628 3988 
L 628 4550 
Q 988 4650 1302 4700 
Q 1616 4750 1894 4750 
Q 2613 4750 3031 4423 
Q 3450 4097 3450 3541 
Q 3450 3153 3228 2886 
Q 3006 2619 2597 2516 
z
" transform="scale(0.015625)"/>
       </defs>
       <use xlink:href="#DejaVuSans-33"/>
       <use xlink:href="#DejaVuSans-30" x="63.623047"/>
       <use xlink:href="#DejaVuSans-30" x="127.246094"/>
      </g>
     </g>
    </g>
    <g id="xtick_5">
     <g id="line2d_5">
      <g>
       <use xlink:href="#m50f131b413" x="282.278663" y="307.584" style="stroke: #000000; stroke-width: 0.8"/>
      </g>
     </g>
     <g id="text_5">
      <!-- 400 -->
      <g transform="translate(272.734913 322.182437) scale(0.1 -0.1)">
       <defs>
        <path id="DejaVuSans-34" d="M 2419 4116 
L 825 1625 
L 2419 1625 
L 2419 4116 
z
M 2253 4666 
L 3047 4666 
L 3047 1625 
L 3713 1625 
L 3713 1100 
L 3047 1100 
L 3047 0 
L 2419 0 
L 2419 1100 
L 313 1100 
L 313 1709 
L 2253 4666 
z
" transform="scale(0.015625)"/>
       </defs>
       <use xlink:href="#DejaVuSans-34"/>
       <use xlink:href="#DejaVuSans-30" x="63.623047"/>
       <use xlink:href="#DejaVuSans-30" x="127.246094"/>
      </g>
     </g>
    </g>
    <g id="xtick_6">
     <g id="line2d_6">
      <g>
       <use xlink:href="#m50f131b413" x="334.390147" y="307.584" style="stroke: #000000; stroke-width: 0.8"/>
      </g>
     </g>
     <g id="text_6">
      <!-- 500 -->
      <g transform="translate(324.846397 322.182437) scale(0.1 -0.1)">
       <defs>
        <path id="DejaVuSans-35" d="M 691 4666 
L 3169 4666 
L 3169 4134 
L 1269 4134 
L 1269 2991 
Q 1406 3038 1543 3061 
Q 1681 3084 1819 3084 
Q 2600 3084 3056 2656 
Q 3513 2228 3513 1497 
Q 3513 744 3044 326 
Q 2575 -91 1722 -91 
Q 1428 -91 1123 -41 
Q 819 9 494 109 
L 494 744 
Q 775 591 1075 516 
Q 1375 441 1709 441 
Q 2250 441 2565 725 
Q 2881 1009 2881 1497 
Q 2881 1984 2565 2268 
Q 2250 2553 1709 2553 
Q 1456 2553 1204 2497 
Q 953 2441 691 2322 
L 691 4666 
z
" transform="scale(0.015625)"/>
       </defs>
       <use xlink:href="#DejaVuSans-35"/>
       <use xlink:href="#DejaVuSans-30" x="63.623047"/>
       <use xlink:href="#DejaVuSans-30" x="127.246094"/>
      </g>
     </g>
    </g>
    <g id="xtick_7">
     <g id="line2d_7">
      <g>
       <use xlink:href="#m50f131b413" x="386.501631" y="307.584" style="stroke: #000000; stroke-width: 0.8"/>
      </g>
     </g>
     <g id="text_7">
      <!-- 600 -->
      <g transform="translate(376.957881 322.182437) scale(0.1 -0.1)">
       <defs>
        <path id="DejaVuSans-36" d="M 2113 2584 
Q 1688 2584 1439 2293 
Q 1191 2003 1191 1497 
Q 1191 994 1439 701 
Q 1688 409 2113 409 
Q 2538 409 2786 701 
Q 3034 994 3034 1497 
Q 3034 2003 2786 2293 
Q 2538 2584 2113 2584 
z
M 3366 4563 
L 3366 3988 
Q 3128 4100 2886 4159 
Q 2644 4219 2406 4219 
Q 1781 4219 1451 3797 
Q 1122 3375 1075 2522 
Q 1259 2794 1537 2939 
Q 1816 3084 2150 3084 
Q 2853 3084 3261 2657 
Q 3669 2231 3669 1497 
Q 3669 778 3244 343 
Q 2819 -91 2113 -91 
Q 1303 -91 875 529 
Q 447 1150 447 2328 
Q 447 3434 972 4092 
Q 1497 4750 2381 4750 
Q 2619 4750 2861 4703 
Q 3103 4656 3366 4563 
z
" transform="scale(0.015625)"/>
       </defs>
       <use xlink:href="#DejaVuSans-36"/>
       <use xlink:href="#DejaVuSans-30" x="63.623047"/>
       <use xlink:href="#DejaVuSans-30" x="127.246094"/>
      </g>
     </g>
    </g>
   </g>
   <g id="matplotlib.axis_2">
    <g id="ytick_1">
     <g id="line2d_8">
      <defs>
       <path id="m1dd19d0ad4" d="M 0 0 
L -3.5 0 
" style="stroke: #000000; stroke-width: 0.8"/>
      </defs>
      <g>
       <use xlink:href="#m1dd19d0ad4" x="57.6" y="270.132247" style="stroke: #000000; stroke-width: 0.8"/>
      </g>
     </g>
     <g id="text_8">
      <!-- 200 -->
      <g transform="translate(31.5125 273.931466) scale(0.1 -0.1)">
       <use xlink:href="#DejaVuSans-32"/>
       <use xlink:href="#DejaVuSans-30" x="63.623047"/>
       <use xlink:href="#DejaVuSans-30" x="127.246094"/>
      </g>
     </g>
    </g>
    <g id="ytick_2">
     <g id="line2d_9">
      <g>
       <use xlink:href="#m1dd19d0ad4" x="57.6" y="212.383323" style="stroke: #000000; stroke-width: 0.8"/>
      </g>
     </g>
     <g id="text_9">
      <!-- 400 -->
      <g transform="translate(31.5125 216.182541) scale(0.1 -0.1)">
       <use xlink:href="#DejaVuSans-34"/>
       <use xlink:href="#DejaVuSans-30" x="63.623047"/>
       <use xlink:href="#DejaVuSans-30" x="127.246094"/>
      </g>
     </g>
    </g>
    <g id="ytick_3">
     <g id="line2d_10">
      <g>
       <use xlink:href="#m1dd19d0ad4" x="57.6" y="154.634398" style="stroke: #000000; stroke-width: 0.8"/>
      </g>
     </g>
     <g id="text_10">
      <!-- 600 -->
      <g transform="translate(31.5125 158.433617) scale(0.1 -0.1)">
       <use xlink:href="#DejaVuSans-36"/>
       <use xlink:href="#DejaVuSans-30" x="63.623047"/>
       <use xlink:href="#DejaVuSans-30" x="127.246094"/>
      </g>
     </g>
    </g>
    <g id="ytick_4">
     <g id="line2d_11">
      <g>
       <use xlink:href="#m1dd19d0ad4" x="57.6" y="96.885474" style="stroke: #000000; stroke-width: 0.8"/>
      </g>
     </g>
     <g id="text_11">
      <!-- 800 -->
      <g transform="translate(31.5125 100.684693) scale(0.1 -0.1)">
       <defs>
        <path id="DejaVuSans-38" d="M 2034 2216 
Q 1584 2216 1326 1975 
Q 1069 1734 1069 1313 
Q 1069 891 1326 650 
Q 1584 409 2034 409 
Q 2484 409 2743 651 
Q 3003 894 3003 1313 
Q 3003 1734 2745 1975 
Q 2488 2216 2034 2216 
z
M 1403 2484 
Q 997 2584 770 2862 
Q 544 3141 544 3541 
Q 544 4100 942 4425 
Q 1341 4750 2034 4750 
Q 2731 4750 3128 4425 
Q 3525 4100 3525 3541 
Q 3525 3141 3298 2862 
Q 3072 2584 2669 2484 
Q 3125 2378 3379 2068 
Q 3634 1759 3634 1313 
Q 3634 634 3220 271 
Q 2806 -91 2034 -91 
Q 1263 -91 848 271 
Q 434 634 434 1313 
Q 434 1759 690 2068 
Q 947 2378 1403 2484 
z
M 1172 3481 
Q 1172 3119 1398 2916 
Q 1625 2713 2034 2713 
Q 2441 2713 2670 2916 
Q 2900 3119 2900 3481 
Q 2900 3844 2670 4047 
Q 2441 4250 2034 4250 
Q 1625 4250 1398 4047 
Q 1172 3844 1172 3481 
z
" transform="scale(0.015625)"/>
       </defs>
       <use xlink:href="#DejaVuSans-38"/>
       <use xlink:href="#DejaVuSans-30" x="63.623047"/>
       <use xlink:href="#DejaVuSans-30" x="127.246094"/>
      </g>
     </g>
    </g>
   </g>
   <g id="line2d_12">
    <path d="M 73.832727 261.094037 
L 74.353842 256.622532 
L 74.874957 257.389408 
L 75.396072 255.976742 
L 75.917187 254.171996 
L 76.438301 253.422412 
L 76.959416 251.767594 
L 77.480531 251.199648 
L 78.001646 241.965433 
L 78.522761 242.106712 
L 79.043876 239.073819 
L 79.564991 239.497622 
L 80.086105 242.951437 
L 80.60722 240.267367 
L 81.128335 240.267367 
L 81.64945 241.31967 
L 82.170565 240.806489 
L 82.69168 243.522273 
L 83.212794 236.562733 
L 83.733909 232.786045 
L 84.255024 235.752639 
L 84.776139 236.358053 
L 85.297254 233.682662 
L 85.818369 237.058625 
L 86.339483 231.658797 
L 86.860598 233.676882 
L 87.381713 237.243558 
L 87.902828 235.251178 
L 88.423943 239.382989 
L 88.945058 241.274466 
L 89.466172 234.383287 
L 89.987287 236.116187 
L 90.508402 239.968312 
L 91.029517 240.810252 
L 91.550632 246.683607 
L 92.071747 246.176136 
L 92.592862 240.057681 
L 93.113976 246.031976 
L 93.635091 247.721592 
L 94.156206 247.95803 
L 94.677321 244.048249 
L 95.198436 243.111159 
L 95.719551 242.419161 
L 96.240665 238.656396 
L 96.76178 240.452714 
L 97.282895 241.37826 
L 97.80401 242.574856 
L 98.325125 243.079446 
L 98.84624 241.032265 
L 99.367354 243.428331 
L 99.888469 248.289599 
L 100.409584 246.634579 
L 100.930699 249.318966 
L 101.451814 248.877821 
L 101.972929 247.675462 
L 102.494043 247.150702 
L 103.015158 251.256563 
L 103.536273 250.198373 
L 104.578503 255.604634 
L 105.620733 260.486117 
L 106.141847 260.491888 
L 106.662962 263.513622 
L 107.184077 262.221884 
L 107.705192 264.609288 
L 108.226307 262.025831 
L 108.747422 257.279856 
L 109.268536 256.841584 
L 109.789651 255.100053 
L 110.310766 258.831091 
L 111.874111 255.486419 
L 112.395225 250.881727 
L 112.91634 253.421945 
L 113.437455 258.828205 
L 113.95857 257.911304 
L 114.479685 251.487238 
L 115.0008 251.441108 
L 115.521914 257.219301 
L 116.043029 259.713389 
L 116.564144 260.439996 
L 117.085259 263.33198 
L 117.606374 259.407752 
L 118.127489 258.228475 
L 118.648604 257.571067 
L 119.169718 260.189146 
L 119.690833 258.034924 
L 120.211948 259.494139 
L 120.733063 261.737752 
L 121.254178 266.305729 
L 121.775293 265.83855 
L 122.296407 261.512818 
L 122.817522 262.539452 
L 123.338637 264.148634 
L 123.859752 266.369178 
L 124.901982 257.238978 
L 125.423096 256.460355 
L 125.944211 251.595341 
L 126.465326 250.784992 
L 126.986441 251.390582 
L 127.507556 253.957191 
L 128.028671 246.701504 
L 128.549785 248.022276 
L 129.592015 245.242263 
L 130.11313 248.028057 
L 130.634245 249.193125 
L 131.15536 250.848437 
L 131.676475 248.979712 
L 132.718704 257.495647 
L 133.239819 258.069528 
L 134.282049 264.676377 
L 134.803164 265.8674 
L 135.324278 263.851602 
L 135.845393 266.576815 
L 136.887623 263.866018 
L 137.408738 265.930831 
L 137.929853 269.676929 
L 138.450967 271.603331 
L 138.972082 270.487278 
L 139.493197 273.699858 
L 140.014312 274.775521 
L 140.535427 270.833335 
L 141.056542 274.394865 
L 141.577657 271.551407 
L 142.098771 271.352424 
L 142.619886 269.241468 
L 143.141001 273.538364 
L 143.662116 274.025731 
L 144.183231 279.000332 
L 144.704346 277.14027 
L 145.22546 279.923151 
L 145.746575 281.235292 
L 146.26769 276.82016 
L 146.788805 278.094811 
L 147.30992 275.46188 
L 147.831035 279.034936 
L 148.352149 278.498545 
L 148.873264 279.738588 
L 149.394379 279.150291 
L 149.915494 281.29586 
L 150.957724 276.40201 
L 151.478838 273.633531 
L 151.999953 274.034384 
L 152.521068 275.049493 
L 153.042183 271.381265 
L 153.563298 273.895968 
L 154.084413 273.705629 
L 154.605528 273.301895 
L 155.126642 274.092229 
L 155.647757 275.822895 
L 156.168872 278.920775 
L 156.689987 282.748417 
L 157.211102 282.203258 
L 157.732217 280.210116 
L 158.253331 282.881109 
L 158.774446 282.076342 
L 159.295561 280.097611 
L 159.816676 280.691812 
L 160.337791 281.081214 
L 160.858906 278.482336 
L 161.38002 279.223641 
L 161.901135 281.78213 
L 162.943365 284.156025 
L 163.46448 285.990524 
L 163.985595 284.71849 
L 164.506709 284.239675 
L 165.027824 282.1398 
L 165.548939 282.197486 
L 166.070054 284.176213 
L 166.591169 284.378126 
L 167.112284 284.1416 
L 167.633399 283.541632 
L 168.675628 281.438884 
L 169.717858 276.51803 
L 170.238973 275.817118 
L 170.760088 277.925638 
L 171.281202 278.776548 
L 171.802317 280.192814 
L 172.323432 276.567072 
L 173.365662 275.491179 
L 173.886777 274.689302 
L 174.407891 274.444128 
L 175.450121 272.456757 
L 175.971236 273.108635 
L 176.492351 276.558423 
L 177.013466 278.597713 
L 177.53458 275.681549 
L 178.055695 276.128641 
L 178.57681 273.916284 
L 179.097925 272.984592 
L 179.61904 273.425926 
L 180.140155 274.995058 
L 180.66127 273.731677 
L 181.703499 278.747712 
L 182.224614 278.323697 
L 182.745729 278.20543 
L 183.266844 276.212292 
L 183.787959 280.980261 
L 184.309073 282.304215 
L 185.351303 284.343518 
L 185.872418 287.680801 
L 186.393533 288.517286 
L 186.914648 289.042257 
L 187.956877 287.515933 
L 188.477992 286.370475 
L 188.999107 286.03001 
L 189.520222 289.994411 
L 190.041337 290.003059 
L 190.562451 290.577231 
L 191.083566 289.801084 
L 191.604681 289.270192 
L 192.125796 289.864565 
L 192.646911 289.619315 
L 193.168026 291.639014 
L 193.689141 291.768851 
L 194.210255 292.599818 
L 194.73137 292.06604 
L 195.252485 291.134092 
L 195.7736 292.622903 
L 196.294715 292.856613 
L 196.81583 291.780399 
L 197.336944 289.890537 
L 197.858059 289.769349 
L 198.379174 289.997288 
L 198.900289 293.038383 
L 199.421404 294.209813 
L 200.463633 294.700312 
L 200.984748 293.373079 
L 201.505863 295.488 
L 202.026978 293.580821 
L 203.069208 293.110516 
L 203.590322 292.697922 
L 204.111437 291.913118 
L 204.632552 291.52938 
L 205.153667 289.619315 
L 205.674782 290.672442 
L 206.195897 289.864565 
L 206.717012 287.966043 
L 207.238126 288.938388 
L 207.759241 288.805661 
L 208.280356 289.740495 
L 208.801471 289.15767 
L 209.322586 287.036977 
L 209.843701 286.618615 
L 210.364815 285.750134 
L 210.88593 288.133392 
L 211.407045 282.437815 
L 211.92816 280.773004 
L 212.449275 280.865342 
L 212.97039 279.794891 
L 213.491504 281.976174 
L 214.533734 283.421708 
L 215.054849 283.687154 
L 215.575964 281.606859 
L 216.097079 280.219033 
L 216.618193 280.937471 
L 217.139308 282.215652 
L 217.660423 282.758092 
L 218.181538 279.040884 
L 218.702653 278.429046 
L 219.744883 279.944211 
L 220.265997 281.742208 
L 220.787112 281.358366 
L 221.308227 278.330918 
L 221.829342 278.815774 
L 222.871572 275.724833 
L 223.392686 276.873467 
L 223.913801 278.957185 
L 224.956031 280.971635 
L 225.477146 281.459371 
L 225.998261 280.258792 
L 226.519375 283.612355 
L 227.04049 283.996197 
L 227.561605 287.127536 
L 228.08272 287.372851 
L 228.603835 285.736472 
L 229.12495 285.704727 
L 229.646064 286.567652 
L 230.167179 285.31511 
L 230.688294 286.71195 
L 231.209409 284.997647 
L 231.730524 282.778289 
L 232.251639 281.967318 
L 232.772754 281.701806 
L 233.293868 280.22992 
L 233.814983 279.110145 
L 234.336098 276.792667 
L 234.857213 277.73062 
L 235.378328 279.496872 
L 235.899443 276.397278 
L 236.420557 272.489598 
L 237.462787 272.11441 
L 238.505017 269.107163 
L 239.026132 272.57906 
L 239.547246 271.496805 
L 240.068361 267.439048 
L 240.589476 265.228343 
L 241.110591 266.985937 
L 241.631706 267.017677 
L 242.152821 263.889224 
L 242.673936 263.796872 
L 243.19505 263.415917 
L 243.716165 266.509739 
L 244.23728 265.000342 
L 244.758395 261.586167 
L 245.27951 262.18358 
L 246.321739 266.154757 
L 246.842854 268.270215 
L 247.363969 267.984502 
L 247.885084 259.586147 
L 248.406199 260.677072 
L 248.927314 260.056577 
L 249.448428 260.879096 
L 249.969543 262.374059 
L 251.011773 258.933907 
L 252.054003 260.659885 
L 252.575117 258.082217 
L 253.096232 260.232676 
L 253.617347 261.592234 
L 254.138462 261.589343 
L 254.659577 258.422828 
L 255.180692 257.94656 
L 255.701807 254.156553 
L 256.744036 253.120291 
L 257.786266 251.480744 
L 258.307381 249.393796 
L 258.828496 250.583043 
L 259.34961 251.298895 
L 259.870725 251.648168 
L 260.39184 249.991305 
L 261.43407 247.702303 
L 261.955185 247.159638 
L 262.997414 250.288615 
L 263.518529 249.838333 
L 264.039644 248.273818 
L 264.560759 249.457302 
L 265.081874 251.402804 
L 265.602988 251.495178 
L 266.645218 249.939351 
L 267.166333 248.019809 
L 267.687448 247.257774 
L 268.208563 249.644932 
L 268.729678 249.601622 
L 269.250792 249.82389 
L 269.771907 252.135988 
L 270.293022 250.072136 
L 270.814137 249.29276 
L 271.335252 247.783116 
L 271.856367 244.431861 
L 272.377481 246.45243 
L 272.898596 247.630125 
L 273.419711 248.322899 
L 273.940826 245.095767 
L 274.461941 243.736214 
L 274.983056 245.410401 
L 275.50417 244.50403 
L 276.5464 246.077189 
L 277.067515 244.307747 
L 277.58863 243.557256 
L 278.109745 240.771762 
L 278.630859 236.441985 
L 279.151974 237.636995 
L 279.673089 237.891013 
L 280.194204 239.29963 
L 280.715319 239.732606 
L 281.236434 218.251127 
L 282.278663 212.099953 
L 282.799778 218.672559 
L 283.320893 213.084247 
L 283.842008 214.362988 
L 284.363123 214.813279 
L 284.884238 216.305599 
L 285.405352 219.697634 
L 285.926467 216.70976 
L 286.447582 215.95919 
L 286.968697 213.903779 
L 287.489812 209.458074 
L 288.010927 203.756619 
L 288.532041 204.749681 
L 289.053156 204.637084 
L 289.574271 201.415398 
L 290.095386 203.618045 
L 290.616501 203.675771 
L 291.137616 206.031426 
L 291.65873 210.583929 
L 292.179845 206.99273 
L 292.70096 209.183825 
L 293.222075 210.03544 
L 293.74319 205.762957 
L 294.264305 205.442516 
L 294.78542 205.719638 
L 295.306534 206.337424 
L 295.827649 205.182692 
L 296.348764 206.115146 
L 296.869879 205.465621 
L 297.390994 201.144048 
L 297.912109 195.153892 
L 298.433223 196.620394 
L 299.475453 190.774584 
L 299.996568 191.978397 
L 300.517683 196.473166 
L 301.038798 199.969102 
L 301.559912 199.0944 
L 302.081027 196.01416 
L 302.602142 196.669475 
L 303.123257 195.376169 
L 303.644372 192.922378 
L 304.165487 192.982994 
L 304.686601 193.623875 
L 305.207716 200.084571 
L 305.728831 199.374421 
L 306.249946 198.898099 
L 306.771061 196.770502 
L 307.292176 198.944282 
L 307.813291 205.035474 
L 308.334405 205.514676 
L 308.85552 209.940184 
L 309.376635 201.574169 
L 309.89775 201.034341 
L 310.418865 202.344962 
L 310.93998 202.754886 
L 311.461094 202.88479 
L 311.982209 192.295939 
L 312.503324 196.045927 
L 313.024439 191.8658 
L 313.545554 191.730125 
L 314.066669 195.035532 
L 314.587783 192.676996 
L 315.108898 187.050591 
L 315.630013 185.664911 
L 316.151128 185.402223 
L 316.672243 187.844462 
L 317.193358 187.731865 
L 317.714472 192.013389 
L 318.756702 196.31221 
L 319.798932 198.33893 
L 320.320047 196.563381 
L 320.841162 196.286233 
L 321.362276 201.139377 
L 321.883391 200.948831 
L 322.404506 202.236454 
L 323.446736 209.462753 
L 324.488965 205.983851 
L 325.01008 206.881728 
L 326.573425 202.297087 
L 327.09454 198.592983 
L 327.615654 202.245116 
L 328.136769 200.732299 
L 328.657884 198.864368 
L 329.178999 195.763668 
L 329.700114 197.175439 
L 330.221229 195.659733 
L 330.742343 192.749578 
L 331.263458 192.348281 
L 331.784573 196.632686 
L 332.305688 194.802275 
L 333.347918 206.058927 
L 333.869033 206.333185 
L 334.390147 208.394544 
L 334.911262 203.809904 
L 335.432377 201.823604 
L 335.953492 207.26282 
L 336.474607 211.457715 
L 336.995722 210.955364 
L 337.516836 209.047031 
L 338.037951 210.146997 
L 338.559066 205.686488 
L 339.080181 202.276873 
L 339.601296 197.949185 
L 340.122411 195.795425 
L 340.643525 195.206472 
L 341.16464 193.419389 
L 341.685755 192.333856 
L 342.20687 188.33527 
L 342.727985 187.51246 
L 343.2491 184.521476 
L 343.770215 186.738724 
L 344.291329 185.02959 
L 344.812444 185.555037 
L 345.333559 182.34752 
L 345.854674 183.690004 
L 346.375789 187.235303 
L 346.896904 189.949131 
L 347.418018 188.603765 
L 347.939133 189.819228 
L 348.460248 188.898255 
L 348.981363 192.853513 
L 349.502478 192.867956 
L 350.023593 196.491204 
L 350.544707 193.430659 
L 351.065822 196.499866 
L 352.108052 190.716585 
L 352.629167 193.254538 
L 353.150282 190.280604 
L 353.671396 189.036168 
L 354.192511 188.279694 
L 354.713626 186.720545 
L 355.234741 183.293315 
L 355.755856 184.659001 
L 356.276971 188.969771 
L 356.798086 186.431818 
L 357.3192 186.893794 
L 357.840315 185.597377 
L 358.882545 184.895765 
L 359.40366 184.895765 
L 359.924775 188.805185 
L 360.445889 190.534683 
L 360.967004 189.296028 
L 361.488119 186.122877 
L 362.009234 177.01052 
L 362.530349 174.449463 
L 363.051464 170.955836 
L 363.572578 169.593023 
L 364.093693 169.916398 
L 364.614808 165.088808 
L 365.135923 166.038736 
L 365.657038 162.995515 
L 366.178153 156.11217 
L 366.699267 155.641533 
L 367.220382 155.009216 
L 367.741497 150.710016 
L 368.262612 149.973756 
L 368.783727 151.665707 
L 369.304842 147.525296 
L 369.825957 146.63312 
L 370.347071 150.233598 
L 370.868186 145.902623 
L 371.910416 127.698141 
L 372.431531 130.900168 
L 372.952646 125.483581 
L 373.47376 126.805966 
L 373.994875 119.610772 
L 374.51599 119.278744 
L 375.037105 119.625206 
L 375.55822 114.508906 
L 376.079335 118.094933 
L 376.600449 118.224872 
L 377.121564 127.351662 
L 377.642679 133.068555 
L 378.163794 101.117563 
L 379.206024 99.517995 
L 379.727138 100.646926 
L 380.248253 103.643956 
L 380.769368 99.460243 
L 381.811598 81.775463 
L 382.332713 79.66474 
L 382.853828 71.764692 
L 383.374942 60.304417 
L 383.896057 75.14877 
L 384.417172 80.213362 
L 384.938287 62.487326 
L 385.459402 65.446958 
L 385.980517 73.9476 
L 386.501631 74.256559 
L 387.022746 72.47212 
L 388.586091 63.867533 
L 389.107206 55.626751 
L 389.62832 53.568 
L 390.67055 67.28915 
L 391.191665 66.983081 
L 391.71278 66.962867 
L 392.233895 69.593327 
L 392.755009 71.002402 
L 393.276124 79.835107 
L 393.797239 73.7628 
L 394.318354 76.289315 
L 394.839469 81.426093 
L 395.360584 76.560736 
L 395.881699 66.232353 
L 396.923928 79.557906 
L 397.445043 75.475053 
L 397.966158 85.234635 
L 398.487273 83.398206 
L 398.487273 83.398206 
" clip-path="url(#pce8784564b)" style="fill: none; stroke: #1f77b4; stroke-width: 1.5; stroke-linecap: square"/>
   </g>
   <g id="line2d_13">
    <path d="M 73.832727 263.750249 
L 74.353842 263.085796 
L 74.874957 260.994429 
L 75.917187 258.426555 
L 76.438301 257.334863 
L 77.480531 255.777631 
L 78.001646 255.03771 
L 78.522761 251.578987 
L 79.564991 246.325161 
L 80.086105 245.217723 
L 80.60722 246.103325 
L 82.170565 247.360502 
L 82.69168 247.144887 
L 83.212794 247.643414 
L 83.733909 246.010501 
L 84.255024 243.512765 
L 84.776139 242.51083 
L 85.297254 242.204136 
L 85.818369 241.625545 
L 86.339483 242.713025 
L 86.860598 241.897917 
L 87.381713 241.80668 
L 87.902828 242.607874 
L 88.423943 242.553206 
L 89.466172 245.893393 
L 89.987287 244.825246 
L 90.508402 244.141795 
L 91.029517 244.527548 
L 91.550632 245.15441 
L 92.071747 248.01372 
L 92.592862 250.091909 
L 93.113976 249.348089 
L 93.635091 250.044793 
L 94.677321 250.962232 
L 95.198436 250.466023 
L 95.719551 249.667798 
L 96.240665 248.53447 
L 96.76178 246.53104 
L 97.282895 245.690263 
L 97.80401 245.791643 
L 98.84624 248.036217 
L 99.367354 248.002644 
L 99.888469 248.387393 
L 100.409584 250.073748 
L 100.930699 250.832981 
L 101.451814 252.233649 
L 101.972929 252.971487 
L 102.494043 252.763229 
L 103.015158 252.069169 
L 103.536273 252.716095 
L 104.057388 253.051648 
L 105.099618 256.576622 
L 106.141847 260.74072 
L 106.662962 261.825389 
L 107.184077 263.173808 
L 107.705192 263.414815 
L 108.226307 264.158486 
L 108.747422 263.568858 
L 110.310766 257.791701 
L 110.831881 258.156523 
L 111.874111 259.297653 
L 112.395225 259.102728 
L 112.91634 257.07447 
L 113.437455 255.96185 
L 114.479685 258.516418 
L 115.0008 257.735698 
L 115.521914 256.701168 
L 116.043029 257.126997 
L 116.564144 258.48092 
L 117.085259 260.293566 
L 117.606374 262.785883 
L 118.127489 263.131781 
L 118.648604 262.078636 
L 119.169718 260.140915 
L 119.690833 259.619112 
L 120.211948 259.364786 
L 120.733063 260.232848 
L 121.254178 261.61725 
L 121.775293 264.153631 
L 122.296407 265.817507 
L 123.859752 263.852012 
L 124.380867 264.473706 
L 124.901982 263.718108 
L 125.944211 259.995119 
L 126.465326 256.854154 
L 126.986441 254.477121 
L 127.507556 253.627154 
L 128.028671 254.812322 
L 128.549785 253.795124 
L 129.0709 253.288773 
L 130.11313 250.618563 
L 130.634245 250.830707 
L 131.15536 251.669862 
L 131.676475 253.256169 
L 132.197589 253.787291 
L 132.718704 255.106049 
L 134.282049 261.05727 
L 134.803164 263.509824 
L 135.324278 265.401146 
L 135.845393 265.540932 
L 136.366508 265.947613 
L 137.408738 264.754757 
L 137.929853 264.937584 
L 138.450967 266.533835 
L 138.972082 268.854239 
L 140.535427 272.865258 
L 141.056542 271.95697 
L 141.577657 271.98022 
L 142.098771 271.084964 
L 142.619886 270.613794 
L 143.141001 269.620811 
L 143.662116 270.406884 
L 144.183231 271.517746 
L 144.704346 274.480754 
L 146.26769 278.624109 
L 146.788805 277.191515 
L 147.30992 276.215649 
L 147.831035 274.553407 
L 148.352149 275.003306 
L 148.873264 275.606182 
L 149.394379 276.97055 
L 149.915494 277.650014 
L 150.436609 278.71294 
L 150.957724 278.195635 
L 151.478838 276.538196 
L 151.999953 274.276902 
L 152.521068 272.718132 
L 153.042183 272.523629 
L 153.563298 271.657717 
L 154.605528 272.719511 
L 155.647757 272.998642 
L 156.168872 273.631077 
L 156.689987 275.274735 
L 157.211102 277.997392 
L 157.732217 279.735909 
L 158.253331 279.756348 
L 158.774446 280.019133 
L 159.295561 279.395625 
L 159.816676 278.308766 
L 160.337791 277.949408 
L 160.858906 278.137707 
L 161.38002 277.62131 
L 161.901135 277.417154 
L 162.42225 278.089083 
L 162.943365 279.39258 
L 163.985595 282.570467 
L 164.506709 282.938002 
L 165.027824 282.535048 
L 166.070054 279.672103 
L 166.591169 279.881555 
L 167.633399 281.57426 
L 168.154513 281.916267 
L 168.675628 281.347775 
L 169.196743 280.129012 
L 170.760088 274.874011 
L 171.281202 275.026904 
L 171.802317 275.942559 
L 172.323432 277.521556 
L 172.844547 277.371778 
L 173.365662 276.436561 
L 174.407891 273.54481 
L 174.929006 272.860266 
L 175.971236 272.270273 
L 176.492351 272.216076 
L 177.013466 273.364604 
L 177.53458 275.095257 
L 178.055695 275.619814 
L 178.57681 275.682629 
L 179.097925 274.325666 
L 179.61904 272.653154 
L 180.140155 271.6703 
L 181.182384 272.577914 
L 182.224614 275.732701 
L 182.745729 276.615189 
L 183.266844 276.988681 
L 183.787959 276.045256 
L 184.309073 276.737223 
L 184.830188 277.93916 
L 185.872418 281.114364 
L 186.393533 283.247345 
L 186.914648 284.654168 
L 187.435762 285.41878 
L 187.956877 285.403787 
L 188.477992 284.825981 
L 189.520222 282.949837 
L 190.041337 284.037987 
L 191.083566 287.188786 
L 191.604681 287.70276 
L 192.125796 287.243472 
L 193.168026 286.061948 
L 193.689141 286.744196 
L 194.73137 288.960493 
L 195.252485 289.248502 
L 195.7736 288.770652 
L 196.294715 288.631558 
L 196.81583 288.73325 
L 197.336944 288.682322 
L 198.900289 286.739398 
L 199.421404 287.704426 
L 200.463633 290.927715 
L 200.984748 291.875758 
L 201.505863 291.310312 
L 202.026978 291.049047 
L 202.548093 290.228046 
L 203.069208 289.835737 
L 204.111437 289.551182 
L 205.153667 288.712926 
L 205.674782 287.789274 
L 206.717012 287.180217 
L 207.238126 286.307453 
L 208.280356 285.982567 
L 208.801471 286.340995 
L 209.322586 286.508776 
L 209.843701 285.815408 
L 210.88593 283.746303 
L 211.407045 283.836633 
L 213.491504 278.252128 
L 214.012619 278.542719 
L 214.533734 279.585171 
L 215.054849 280.987928 
L 215.575964 281.88306 
L 216.097079 281.247417 
L 216.618193 279.555268 
L 217.139308 278.547151 
L 217.660423 278.561272 
L 218.181538 279.308511 
L 218.702653 278.947105 
L 219.744883 277.399231 
L 220.265997 277.16296 
L 221.308227 279.005729 
L 221.829342 278.672071 
L 222.350457 277.979443 
L 223.392686 274.829696 
L 223.913801 274.528641 
L 224.434916 275.54865 
L 225.477146 278.621121 
L 225.998261 279.521897 
L 226.519375 279.273185 
L 227.561605 280.360828 
L 228.603835 283.646761 
L 229.12495 283.999215 
L 230.167179 283.141453 
L 230.688294 282.416944 
L 231.209409 282.695656 
L 231.730524 282.72381 
L 232.251639 281.890633 
L 233.814983 278.651905 
L 234.336098 277.917597 
L 234.857213 276.762698 
L 235.378328 276.250901 
L 235.899443 276.695508 
L 236.420557 276.152914 
L 237.462787 272.790301 
L 238.505017 270.33001 
L 239.026132 269.471989 
L 239.547246 270.376554 
L 240.068361 270.998071 
L 240.589476 269.943248 
L 241.110591 267.863287 
L 241.631706 266.73544 
L 242.152821 266.299975 
L 242.673936 265.409253 
L 243.716165 264.596837 
L 244.23728 265.442407 
L 244.758395 265.529789 
L 245.27951 264.510019 
L 245.800625 263.838226 
L 246.321739 263.970478 
L 246.842854 264.772394 
L 247.885084 267.803618 
L 249.448428 261.270855 
L 249.969543 260.5119 
L 251.011773 262.23612 
L 251.532888 262.167899 
L 252.575117 261.574601 
L 253.096232 260.519196 
L 253.617347 260.882387 
L 254.659577 262.395662 
L 255.180692 261.768738 
L 255.701807 260.769076 
L 256.744036 256.893265 
L 257.265151 255.725509 
L 257.786266 255.093506 
L 258.307381 254.930721 
L 258.828496 254.243133 
L 259.34961 254.049411 
L 259.870725 254.123465 
L 260.39184 254.501041 
L 260.912955 254.278429 
L 261.43407 253.727987 
L 262.476299 251.767101 
L 262.997414 251.674207 
L 264.039644 253.248415 
L 265.081874 253.363276 
L 266.124103 254.206459 
L 266.645218 254.318351 
L 267.166333 254.120786 
L 268.208563 252.116567 
L 268.729678 252.098547 
L 269.250792 252.413639 
L 269.771907 253.110449 
L 270.293022 254.392951 
L 270.814137 254.474654 
L 271.335252 254.010484 
L 271.856367 252.886832 
L 272.377481 250.879983 
L 272.898596 250.213724 
L 273.419711 250.468816 
L 273.940826 251.296111 
L 274.461941 251.119954 
L 274.983056 250.390682 
L 275.50417 249.977938 
L 276.025285 249.396325 
L 276.5464 249.46355 
L 277.067515 249.96561 
L 277.58863 249.985807 
L 278.109745 249.588959 
L 278.630859 248.149157 
L 279.151974 245.585712 
L 279.673089 244.250312 
L 280.194204 243.723508 
L 280.715319 244.279276 
L 281.236434 245.251807 
L 282.799778 228.340402 
L 283.842008 226.320864 
L 285.405352 229.328379 
L 285.926467 230.636621 
L 286.968697 230.102187 
L 287.489812 229.091721 
L 288.010927 227.00124 
L 288.532041 223.710733 
L 289.053156 221.937238 
L 290.095386 219.981999 
L 291.137616 220.590867 
L 291.65873 221.616938 
L 292.179845 223.592277 
L 292.70096 223.901949 
L 293.222075 224.652969 
L 293.74319 225.136806 
L 294.78542 223.071641 
L 295.306534 222.416441 
L 296.348764 222.05588 
L 296.869879 222.345735 
L 297.390994 222.307139 
L 297.912109 221.140159 
L 298.433223 218.545784 
L 299.996568 213.7071 
L 300.517683 213.258192 
L 301.038798 214.375209 
L 301.559912 216.372674 
L 302.081027 217.682476 
L 302.602142 217.630513 
L 303.123257 217.42021 
L 303.644372 216.6138 
L 304.165487 215.262556 
L 304.686601 214.424441 
L 305.207716 214.207266 
L 305.728831 216.067848 
L 306.249946 217.314134 
L 306.771061 218.160674 
L 307.292176 217.919892 
L 307.813291 218.078372 
L 308.85552 220.899033 
L 309.376635 223.257896 
L 310.418865 221.465569 
L 310.93998 220.517703 
L 311.461094 219.931155 
L 311.982209 219.853224 
L 312.503324 217.204586 
L 313.024439 216.552946 
L 313.545554 214.695677 
L 314.066669 213.689864 
L 314.587783 213.978485 
L 315.108898 213.933166 
L 316.672243 210.142433 
L 317.193358 209.987891 
L 317.714472 210.221633 
L 318.756702 213.564243 
L 319.277817 215.383533 
L 319.798932 216.704843 
L 320.320047 217.56282 
L 320.841162 217.422061 
L 321.362276 217.034792 
L 321.883391 217.946318 
L 322.404506 218.518608 
L 322.925621 219.496743 
L 323.446736 221.150909 
L 323.967851 223.198751 
L 324.488965 224.034381 
L 325.531195 223.633798 
L 326.573425 221.748199 
L 327.09454 220.704548 
L 327.615654 219.100971 
L 328.136769 219.199707 
L 328.657884 218.944755 
L 329.178999 218.472893 
L 329.700114 217.363471 
L 330.221229 216.980775 
L 330.742343 216.238735 
L 331.263458 215.091634 
L 331.784573 214.301966 
L 332.305688 214.984148 
L 332.826803 215.162366 
L 333.347918 217.148596 
L 333.869033 219.879095 
L 334.911262 223.793062 
L 335.432377 223.29331 
L 335.953492 221.920927 
L 336.474607 222.138975 
L 337.516836 224.732293 
L 338.559066 225.78449 
L 339.080181 224.388668 
L 339.601296 222.248691 
L 340.643525 217.050362 
L 341.16464 215.693153 
L 341.685755 214.652772 
L 342.20687 213.975895 
L 342.727985 212.658286 
L 343.2491 211.683165 
L 343.770215 210.165757 
L 344.291329 209.86569 
L 344.812444 209.327439 
L 345.333559 209.385104 
L 345.854674 208.663744 
L 346.375789 208.5664 
L 346.896904 209.354941 
L 347.418018 210.669527 
L 348.460248 212.16064 
L 348.981363 212.265474 
L 349.502478 213.195197 
L 350.023593 213.703152 
L 350.544707 215.065172 
L 351.065822 215.162128 
L 351.586937 216.046074 
L 352.108052 215.520372 
L 352.629167 214.347012 
L 353.150282 214.115852 
L 354.192511 212.399316 
L 355.234741 210.955452 
L 355.755856 209.566256 
L 356.276971 209.110872 
L 356.798086 209.930201 
L 357.3192 210.035748 
L 357.840315 210.488789 
L 358.36143 210.293722 
L 359.924775 209.274278 
L 360.445889 210.164982 
L 360.967004 211.369095 
L 361.488119 212.00624 
L 362.009234 211.478872 
L 363.572578 202.671218 
L 364.093693 200.661699 
L 364.614808 199.830193 
L 365.135923 198.528286 
L 365.657038 198.216208 
L 366.178153 197.251212 
L 366.699267 195.049014 
L 367.220382 193.505092 
L 367.741497 192.323625 
L 368.262612 190.725247 
L 368.783727 189.769996 
L 369.304842 189.624152 
L 369.825957 188.665809 
L 370.347071 188.060527 
L 370.868186 188.433574 
L 371.389301 187.666024 
L 371.910416 185.343765 
L 372.431531 181.837414 
L 372.952646 180.176128 
L 373.47376 177.848468 
L 373.994875 177.077966 
L 374.51599 175.196015 
L 375.037105 174.289053 
L 375.55822 173.746564 
L 376.079335 172.41112 
L 377.121564 172.382552 
L 378.163794 176.870624 
L 378.684909 172.034963 
L 379.727138 166.546524 
L 380.248253 165.021362 
L 380.769368 164.816347 
L 381.290483 164.1982 
L 381.811598 162.46464 
L 383.374942 155.160903 
L 383.896057 151.73162 
L 384.417172 152.25407 
L 384.938287 153.049405 
L 385.459402 150.995166 
L 385.980517 150.792389 
L 386.501631 151.603708 
L 387.022746 152.044209 
L 387.543861 152.236323 
L 388.064976 151.969379 
L 388.586091 151.326982 
L 389.107206 150.397885 
L 389.62832 148.470853 
L 390.149435 147.035589 
L 390.67055 147.141225 
L 391.191665 148.157894 
L 393.276124 151.09236 
L 393.797239 152.975509 
L 394.318354 152.945267 
L 394.839469 153.641909 
L 395.360584 154.725935 
L 395.881699 154.484122 
L 396.402813 152.753364 
L 396.923928 152.890246 
L 397.445043 153.636005 
L 397.966158 153.476741 
L 398.487273 155.353898 
L 398.487273 155.353898 
" clip-path="url(#pce8784564b)" style="fill: none; stroke: #ff7f0e; stroke-width: 1.5; stroke-linecap: square"/>
   </g>
   <g id="patch_3">
    <path d="M 57.6 307.584 
L 57.6 41.472 
" style="fill: none; stroke: #000000; stroke-width: 0.8; stroke-linejoin: miter; stroke-linecap: square"/>
   </g>
   <g id="patch_4">
    <path d="M 414.72 307.584 
L 414.72 41.472 
" style="fill: none; stroke: #000000; stroke-width: 0.8; stroke-linejoin: miter; stroke-linecap: square"/>
   </g>
   <g id="patch_5">
    <path d="M 57.6 307.584 
L 414.72 307.584 
" style="fill: none; stroke: #000000; stroke-width: 0.8; stroke-linejoin: miter; stroke-linecap: square"/>
   </g>
   <g id="patch_6">
    <path d="M 57.6 41.472 
L 414.72 41.472 
" style="fill: none; stroke: #000000; stroke-width: 0.8; stroke-linejoin: miter; stroke-linecap: square"/>
   </g>
   <g id="text_12">
    <!-- Prediction Adjustment -->
    <g transform="translate(170.0025 35.472) scale(0.12 -0.12)">
     <defs>
      <path id="DejaVuSans-50" d="M 1259 4147 
L 1259 2394 
L 2053 2394 
Q 2494 2394 2734 2622 
Q 2975 2850 2975 3272 
Q 2975 3691 2734 3919 
Q 2494 4147 2053 4147 
L 1259 4147 
z
M 628 4666 
L 2053 4666 
Q 2838 4666 3239 4311 
Q 3641 3956 3641 3272 
Q 3641 2581 3239 2228 
Q 2838 1875 2053 1875 
L 1259 1875 
L 1259 0 
L 628 0 
L 628 4666 
z
" transform="scale(0.015625)"/>
      <path id="DejaVuSans-72" d="M 2631 2963 
Q 2534 3019 2420 3045 
Q 2306 3072 2169 3072 
Q 1681 3072 1420 2755 
Q 1159 2438 1159 1844 
L 1159 0 
L 581 0 
L 581 3500 
L 1159 3500 
L 1159 2956 
Q 1341 3275 1631 3429 
Q 1922 3584 2338 3584 
Q 2397 3584 2469 3576 
Q 2541 3569 2628 3553 
L 2631 2963 
z
" transform="scale(0.015625)"/>
      <path id="DejaVuSans-65" d="M 3597 1894 
L 3597 1613 
L 953 1613 
Q 991 1019 1311 708 
Q 1631 397 2203 397 
Q 2534 397 2845 478 
Q 3156 559 3463 722 
L 3463 178 
Q 3153 47 2828 -22 
Q 2503 -91 2169 -91 
Q 1331 -91 842 396 
Q 353 884 353 1716 
Q 353 2575 817 3079 
Q 1281 3584 2069 3584 
Q 2775 3584 3186 3129 
Q 3597 2675 3597 1894 
z
M 3022 2063 
Q 3016 2534 2758 2815 
Q 2500 3097 2075 3097 
Q 1594 3097 1305 2825 
Q 1016 2553 972 2059 
L 3022 2063 
z
" transform="scale(0.015625)"/>
      <path id="DejaVuSans-64" d="M 2906 2969 
L 2906 4863 
L 3481 4863 
L 3481 0 
L 2906 0 
L 2906 525 
Q 2725 213 2448 61 
Q 2172 -91 1784 -91 
Q 1150 -91 751 415 
Q 353 922 353 1747 
Q 353 2572 751 3078 
Q 1150 3584 1784 3584 
Q 2172 3584 2448 3432 
Q 2725 3281 2906 2969 
z
M 947 1747 
Q 947 1113 1208 752 
Q 1469 391 1925 391 
Q 2381 391 2643 752 
Q 2906 1113 2906 1747 
Q 2906 2381 2643 2742 
Q 2381 3103 1925 3103 
Q 1469 3103 1208 2742 
Q 947 2381 947 1747 
z
" transform="scale(0.015625)"/>
      <path id="DejaVuSans-69" d="M 603 3500 
L 1178 3500 
L 1178 0 
L 603 0 
L 603 3500 
z
M 603 4863 
L 1178 4863 
L 1178 4134 
L 603 4134 
L 603 4863 
z
" transform="scale(0.015625)"/>
      <path id="DejaVuSans-63" d="M 3122 3366 
L 3122 2828 
Q 2878 2963 2633 3030 
Q 2388 3097 2138 3097 
Q 1578 3097 1268 2742 
Q 959 2388 959 1747 
Q 959 1106 1268 751 
Q 1578 397 2138 397 
Q 2388 397 2633 464 
Q 2878 531 3122 666 
L 3122 134 
Q 2881 22 2623 -34 
Q 2366 -91 2075 -91 
Q 1284 -91 818 406 
Q 353 903 353 1747 
Q 353 2603 823 3093 
Q 1294 3584 2113 3584 
Q 2378 3584 2631 3529 
Q 2884 3475 3122 3366 
z
" transform="scale(0.015625)"/>
      <path id="DejaVuSans-74" d="M 1172 4494 
L 1172 3500 
L 2356 3500 
L 2356 3053 
L 1172 3053 
L 1172 1153 
Q 1172 725 1289 603 
Q 1406 481 1766 481 
L 2356 481 
L 2356 0 
L 1766 0 
Q 1100 0 847 248 
Q 594 497 594 1153 
L 594 3053 
L 172 3053 
L 172 3500 
L 594 3500 
L 594 4494 
L 1172 4494 
z
" transform="scale(0.015625)"/>
      <path id="DejaVuSans-6f" d="M 1959 3097 
Q 1497 3097 1228 2736 
Q 959 2375 959 1747 
Q 959 1119 1226 758 
Q 1494 397 1959 397 
Q 2419 397 2687 759 
Q 2956 1122 2956 1747 
Q 2956 2369 2687 2733 
Q 2419 3097 1959 3097 
z
M 1959 3584 
Q 2709 3584 3137 3096 
Q 3566 2609 3566 1747 
Q 3566 888 3137 398 
Q 2709 -91 1959 -91 
Q 1206 -91 779 398 
Q 353 888 353 1747 
Q 353 2609 779 3096 
Q 1206 3584 1959 3584 
z
" transform="scale(0.015625)"/>
      <path id="DejaVuSans-6e" d="M 3513 2113 
L 3513 0 
L 2938 0 
L 2938 2094 
Q 2938 2591 2744 2837 
Q 2550 3084 2163 3084 
Q 1697 3084 1428 2787 
Q 1159 2491 1159 1978 
L 1159 0 
L 581 0 
L 581 3500 
L 1159 3500 
L 1159 2956 
Q 1366 3272 1645 3428 
Q 1925 3584 2291 3584 
Q 2894 3584 3203 3211 
Q 3513 2838 3513 2113 
z
" transform="scale(0.015625)"/>
      <path id="DejaVuSans-20" transform="scale(0.015625)"/>
      <path id="DejaVuSans-41" d="M 2188 4044 
L 1331 1722 
L 3047 1722 
L 2188 4044 
z
M 1831 4666 
L 2547 4666 
L 4325 0 
L 3669 0 
L 3244 1197 
L 1141 1197 
L 716 0 
L 50 0 
L 1831 4666 
z
" transform="scale(0.015625)"/>
      <path id="DejaVuSans-6a" d="M 603 3500 
L 1178 3500 
L 1178 -63 
Q 1178 -731 923 -1031 
Q 669 -1331 103 -1331 
L -116 -1331 
L -116 -844 
L 38 -844 
Q 366 -844 484 -692 
Q 603 -541 603 -63 
L 603 3500 
z
M 603 4863 
L 1178 4863 
L 1178 4134 
L 603 4134 
L 603 4863 
z
" transform="scale(0.015625)"/>
      <path id="DejaVuSans-75" d="M 544 1381 
L 544 3500 
L 1119 3500 
L 1119 1403 
Q 1119 906 1312 657 
Q 1506 409 1894 409 
Q 2359 409 2629 706 
Q 2900 1003 2900 1516 
L 2900 3500 
L 3475 3500 
L 3475 0 
L 2900 0 
L 2900 538 
Q 2691 219 2414 64 
Q 2138 -91 1772 -91 
Q 1169 -91 856 284 
Q 544 659 544 1381 
z
M 1991 3584 
L 1991 3584 
z
" transform="scale(0.015625)"/>
      <path id="DejaVuSans-73" d="M 2834 3397 
L 2834 2853 
Q 2591 2978 2328 3040 
Q 2066 3103 1784 3103 
Q 1356 3103 1142 2972 
Q 928 2841 928 2578 
Q 928 2378 1081 2264 
Q 1234 2150 1697 2047 
L 1894 2003 
Q 2506 1872 2764 1633 
Q 3022 1394 3022 966 
Q 3022 478 2636 193 
Q 2250 -91 1575 -91 
Q 1294 -91 989 -36 
Q 684 19 347 128 
L 347 722 
Q 666 556 975 473 
Q 1284 391 1588 391 
Q 1994 391 2212 530 
Q 2431 669 2431 922 
Q 2431 1156 2273 1281 
Q 2116 1406 1581 1522 
L 1381 1569 
Q 847 1681 609 1914 
Q 372 2147 372 2553 
Q 372 3047 722 3315 
Q 1072 3584 1716 3584 
Q 2034 3584 2315 3537 
Q 2597 3491 2834 3397 
z
" transform="scale(0.015625)"/>
      <path id="DejaVuSans-6d" d="M 3328 2828 
Q 3544 3216 3844 3400 
Q 4144 3584 4550 3584 
Q 5097 3584 5394 3201 
Q 5691 2819 5691 2113 
L 5691 0 
L 5113 0 
L 5113 2094 
Q 5113 2597 4934 2840 
Q 4756 3084 4391 3084 
Q 3944 3084 3684 2787 
Q 3425 2491 3425 1978 
L 3425 0 
L 2847 0 
L 2847 2094 
Q 2847 2600 2669 2842 
Q 2491 3084 2119 3084 
Q 1678 3084 1418 2786 
Q 1159 2488 1159 1978 
L 1159 0 
L 581 0 
L 581 3500 
L 1159 3500 
L 1159 2956 
Q 1356 3278 1631 3431 
Q 1906 3584 2284 3584 
Q 2666 3584 2933 3390 
Q 3200 3197 3328 2828 
z
" transform="scale(0.015625)"/>
     </defs>
     <use xlink:href="#DejaVuSans-50"/>
     <use xlink:href="#DejaVuSans-72" x="58.552734"/>
     <use xlink:href="#DejaVuSans-65" x="97.416016"/>
     <use xlink:href="#DejaVuSans-64" x="158.939453"/>
     <use xlink:href="#DejaVuSans-69" x="222.416016"/>
     <use xlink:href="#DejaVuSans-63" x="250.199219"/>
     <use xlink:href="#DejaVuSans-74" x="305.179688"/>
     <use xlink:href="#DejaVuSans-69" x="344.388672"/>
     <use xlink:href="#DejaVuSans-6f" x="372.171875"/>
     <use xlink:href="#DejaVuSans-6e" x="433.353516"/>
     <use xlink:href="#DejaVuSans-20" x="496.732422"/>
     <use xlink:href="#DejaVuSans-41" x="528.519531"/>
     <use xlink:href="#DejaVuSans-64" x="595.177734"/>
     <use xlink:href="#DejaVuSans-6a" x="658.654297"/>
     <use xlink:href="#DejaVuSans-75" x="686.4375"/>
     <use xlink:href="#DejaVuSans-73" x="749.816406"/>
     <use xlink:href="#DejaVuSans-74" x="801.916016"/>
     <use xlink:href="#DejaVuSans-6d" x="841.125"/>
     <use xlink:href="#DejaVuSans-65" x="938.537109"/>
     <use xlink:href="#DejaVuSans-6e" x="1000.060547"/>
     <use xlink:href="#DejaVuSans-74" x="1063.439453"/>
    </g>
   </g>
   <g id="legend_1">
    <g id="patch_7">
     <path d="M 64.6 78.82825 
L 152.826562 78.82825 
Q 154.826562 78.82825 154.826562 76.82825 
L 154.826562 48.472 
Q 154.826562 46.472 152.826562 46.472 
L 64.6 46.472 
Q 62.6 46.472 62.6 48.472 
L 62.6 76.82825 
Q 62.6 78.82825 64.6 78.82825 
z
" style="fill: #ffffff; opacity: 0.8; stroke: #cccccc; stroke-linejoin: miter"/>
    </g>
    <g id="line2d_14">
     <path d="M 66.6 54.570437 
L 76.6 54.570437 
L 86.6 54.570437 
" style="fill: none; stroke: #1f77b4; stroke-width: 1.5; stroke-linecap: square"/>
    </g>
    <g id="text_13">
     <!-- True Y -->
     <g transform="translate(94.6 58.070437) scale(0.1 -0.1)">
      <defs>
       <path id="DejaVuSans-54" d="M -19 4666 
L 3928 4666 
L 3928 4134 
L 2272 4134 
L 2272 0 
L 1638 0 
L 1638 4134 
L -19 4134 
L -19 4666 
z
" transform="scale(0.015625)"/>
       <path id="DejaVuSans-59" d="M -13 4666 
L 666 4666 
L 1959 2747 
L 3244 4666 
L 3922 4666 
L 2272 2222 
L 2272 0 
L 1638 0 
L 1638 2222 
L -13 4666 
z
" transform="scale(0.015625)"/>
      </defs>
      <use xlink:href="#DejaVuSans-54"/>
      <use xlink:href="#DejaVuSans-72" x="46.333984"/>
      <use xlink:href="#DejaVuSans-75" x="87.447266"/>
      <use xlink:href="#DejaVuSans-65" x="150.826172"/>
      <use xlink:href="#DejaVuSans-20" x="212.349609"/>
      <use xlink:href="#DejaVuSans-59" x="244.136719"/>
     </g>
    </g>
    <g id="line2d_15">
     <path d="M 66.6 69.248562 
L 76.6 69.248562 
L 86.6 69.248562 
" style="fill: none; stroke: #ff7f0e; stroke-width: 1.5; stroke-linecap: square"/>
    </g>
    <g id="text_14">
     <!-- Predicted Y -->
     <g transform="translate(94.6 72.748562) scale(0.1 -0.1)">
      <use xlink:href="#DejaVuSans-50"/>
      <use xlink:href="#DejaVuSans-72" x="58.552734"/>
      <use xlink:href="#DejaVuSans-65" x="97.416016"/>
      <use xlink:href="#DejaVuSans-64" x="158.939453"/>
      <use xlink:href="#DejaVuSans-69" x="222.416016"/>
      <use xlink:href="#DejaVuSans-63" x="250.199219"/>
      <use xlink:href="#DejaVuSans-74" x="305.179688"/>
      <use xlink:href="#DejaVuSans-65" x="344.388672"/>
      <use xlink:href="#DejaVuSans-64" x="405.912109"/>
      <use xlink:href="#DejaVuSans-20" x="469.388672"/>
      <use xlink:href="#DejaVuSans-59" x="501.175781"/>
     </g>
    </g>
   </g>
  </g>
 </g>
 <defs>
  <clipPath id="pce8784564b">
   <rect x="57.6" y="41.472" width="357.12" height="266.112"/>
  </clipPath>
 </defs>
</svg>
